<svg enable-background="new 0 0 96.9 176.1" viewBox="0 0 96.9 176.1" xmlns="http://www.w3.org/2000/svg"><g fill="#0053e7"><path d="m55.6 80.9c-.5.1-.9.1-1.4.2-.1 0-.1 0-.2 0-1.1 0-2.3.1-3.4.1-.6 0-1.2.1-1.9.2-.1 0-.2 0-.3 0-.4 0-.9 0-1.3 0-.7 0-1.4.1-2.1.2-.1 0-.3 0-.4 0-1.3 0-2.5 0-3.8.1-.6.1-1.2.1-1.8.3-.3.1-.6 0-.9 0-.4.1-.7 0-1 0-.4 0-.8 0-1.1 0s-.5-.1-.8-.1c-.4-.1-.8-.2-1.2-.2s-.8 0-1.3 0-.9 0-1.4 0c-.4 0-.7-.1-1.1.1 0 0 0 0-.1 0-.4-.2-.8 0-1.3 0-.3 0-.7 0-1 .1-.2 0-.3.3-.4.4-.3.4-.9.5-1.3.3s-.7-.5-.7-1c-.1-1.2-.1-2.3-.1-3.5 0-.5 0-.9 0-1.4 0-.4 0-.8-.4-1.1v-.2c.2-.1.2-.3.2-.5 0-.5 0-1.1 0-1.6 0-.4 0-.5.5-.4.2.1.2-.1.2-.2 0-.5.1-1 .4-1.4.2-.3.5-.6.7-.9.4-.6.8-1.1 1.2-1.7.6-.9 1.2-1.7 1.8-2.6.5-.7.9-1.3 1.3-2 .3-.4.6-.8.9-1.2.1-.2.2-.4.3-.5s.1-.3.2-.4c.7-.4 1.1-1.1 1.5-1.7.5-.6.9-1.2 1.4-1.9.5-.6 1-1.3 1.4-1.9.2-.3.5-.6.7-.9.1-.2.3-.4.4-.5.8-.7 1.3-1.6 1.9-2.5.4-.5.7-1 1.1-1.5.7-.9 1.4-1.8 2.1-2.8.4-.5.9-1.1 1.3-1.6.7-.9 1.4-1.9 2.1-2.8.4-.5.7-1 1-1.5.4-.6.9-1.2 1.3-1.7.5-.7 1.1-1.5 1.6-2.3.4-.6.8-1.2 1.2-1.8.1-.2.3-.4.1-.7-.2-.2.1-.3.2-.4 0-.1.1-.1.2-.1.5 0 .8-.4 1-.8.3-.3.5-.7.8-1 .3-.4.5-.9.8-1.4.5-.9 1.1-1.7 1.6-2.6s1.4-1.4 2.1-2.2c.2-.3.5-.4.8-.6.2-.1.5-.1.6.1.2.1.3.1.5.1 1.2 0 2.3.1 3.5 0 .9-.1 1.8-.1 2.7-.1.4 0 .8.2 1.3.2.6.1.8.6.9 1 .1.3.1.7-.2 1-.2.1-.1.4.1.5.2.2.3.3 0 .5-.1.1-.1.3-.1.5v1.4.3c-.2.3-.1.4.2.4.2 0 .3.1.3.3s0 .4-.3.4-.4.2-.4.5c0 .9.2 1.8.1 2.7-.1 1.6 0 3.3-.1 4.9-.1 1.4-.2 2.8-.2 4.1 0 .9 0 1.8-.1 2.6-.1.6-.1 1.2-.1 1.9 0 .2-.1.5.1.7v.2c-.3.5-.2 1.2-.3 1.8-.1.9 0 1.8-.1 2.7-.1.6 0 1.1-.1 1.7 0 .3.1.4.3.6.3.2.2.4-.1.5-.1 0-.2.2-.2.3v2.3c0 .3.2.2.3.1.1 0 .2-.1.3 0 .1 0 .2.2.2.3.1.2 0 .4-.3.5-.2.1-.4.1-.5.2-.1.2 0 .4 0 .6v1.7.3c.4.5 0 .8-.1 1.3-.1.3-.1.7 0 1.1 0 .2.2.2.4.2s.3 0 .5.1c.2.2.1.3.1.5 0 .1-.2.2-.3.2 0 0 0 0-.1 0-.2 0-.4 0-.5.1-.1.2-.1.4-.1.7 0 .2.1.3.1.5 0 .6.3.7.8.4.1-.1.3-.1.5-.2v.5c0 .1-.1.1-.1.2v.1c.3 0 .5.1.8.1h3.4c1 0 2 .1 2.9.1.4 0 .9.1 1.3.2.5.2 1 .5 1.2 1.1 0 0 .1.1.1.1 0 .4.1.8.1 1.3s.2 1-.1 1.5v.3 1.6c0 .7-.1 1.4-.2 2.1 0 .5-.2.8-.7.9-.1 0-.3.2-.3.3-.2.3-.2.4-.6.4-.5.1-1.1.2-1.6.3-1.8.1-3.6.1-5.4.1-.4 0-.9-.1-1.3-.1-.3 0-.3 0-.2.2 0 .2.1.3.1.5v1c.1.3 0 .6 0 .9.1 1.1.1 2.2.1 3.4 0 .4.1.5.5.5.8 0 1.6.1 2.3 0 .8-.1 1.7 0 2.5-.1.6-.1 1.2.1 1.7-.2.1-.1.3.1.5.1.6-.1 1.3 0 1.9-.2h.1c.7 0 1.3-.1 2-.1.9 0 1.8 0 2.7-.1.5-.1 1-.1 1.5-.1.8-.1 1.5-.1 2.3-.2s1.6-.2 2.5-.2c.7 0 1.3-.1 2-.2.8-.2 1.6-.3 2.3-.8.6-.3 1-.8 1.3-1.4 0 0 0-.1 0-.2 0 0-.1 0-.1-.1-.1-.1-.2-.3-.3-.4.1-.1.3-.1.4-.2.4-.4.9-.1 1.3-.2.3 0 .6.1.9.2.5.1.8.5.8 1 0 .3.1.5.1.8 0 .5 0 1-.1 1.5-.1.3-.3.6-.6.7s-.5.2-.6.5c0 .1-.1.1-.1.2-.9.3-1.7 1-2.7 1-.6 0-1.1.2-1.7.2-.7 0-1.3.1-2 .2-.4.1-.8.1-1.2.1h-.1c-.2 0-.4 0-.5.1-.1 0 0 .3 0 .5v.1c0 3.9.2 7.8.1 11.7 0 2.1 0 4.2-.1 6.3 0 .4-.1.7-.1 1.1.2 2.2 0 4.3.1 6.5 0 .4-.1.8-.1 1.3 0 .3-.1.6.1.8v.2c-.2.3 0 .6-.1 1-.1.3 0 .7 0 1 0 .2 0 .4-.1.6-.3 1.1-.1 2.2-.2 3.2-.1 1.1.1 2.2-.2 3.3.2.3-.1.6.1.9.1.3 0 .7 0 1.1 0 .7 0 1.4.1 2.1.2.9 0 1.7.1 2.6 0 .2-.1.5-.1.7s.1.4.1.6c-.2 1 0 2-.1 2.9-.1 1.5-.1 2.9-.1 4.4 0 .3.1.6 0 .9s0 .6 0 .9v1 .9c0 1.3 0 2.7.1 4 .1 1 0 2.1.1 3.1 0 .4 0 .7-.1 1.1-.1.3 0 .7 0 1v3.6c0 .4.1.8.1 1.3 0 .2.1.5-.1.7 0 .1.1.3.1.4 0 .5-.1.9-.1 1.4-.3.1-.2.3-.2.5-.1.2.1.3 0 .5-.1.4 0 .8 0 1.2v1.2 1.2c0 .1 0 .3.1.4.3.4.2.9.1 1.3-.1.6-.3 1.2-.3 1.8 0 .7-.1 1.4-.1 2.1 0 .1-.1.2-.1.3s-.1.2 0 .3.1.3.1.4c0 0-.1.1-.2.1-.4.1-.5.2-.3.5.2.4.2.7-.1 1-.1.1-.2.3-.2.5-.1.2-.2.3-.4.2-.1 0-.2-.1-.3-.2-.2-.2-.5-.3-.8-.2-.2.1-.4-.1-.7 0-.2 0-.4.1-.7.1-.2 0-.4-.1-.6-.1s-.3.3-.5 0c-.6.3-1.3 0-1.9.2-.2.1-.5-.2-.7 0-.3-.3-.7.2-1-.1-.7.2-1.4.1-2.1.1-.5 0-1.1-.1-1.6 0-1.6.2-3.1.1-4.7.1-1 0-2.1 0-3.2-.1-1.3-.1-2.7-.2-4-.1-1.2.1-2.4 0-3.6.1-1.4.1-2.8.1-4.3.1-.9 0-1.9-.1-2.8-.1-.6 0-1.2.1-1.9.1-.3 0-.6 0-1-.1s-.7 0-1.1 0c-.6-.1-1.3 0-1.9 0-.2 0-.3.1-.4.1s-.2 0-.3 0c-.9-.2-1.8-.1-2.7-.1-.8.1-1.6.1-2.4.1-.9 0-1.8.1-2.7.2-.4 0-.8.1-1.3.1-3.1-.3-6.1-.1-9.2-.1-.3 0-.6-.1-.9-.1-.2 0-.5.1-.7.1-.8-.1-1.5 0-2.3-.1-1.2-.2-2.4-.2-3.5-.2-.7 0-1.4.1-2.1.1-.6 0-1.3-.2-1.9-.3-.4 0-.8 0-1.1 0-.6-.1-1.2-.1-1.7-.2s-.9-.1-1.3 0h-.1c-.5 0-1.1.1-1.6.1-.1 0-.3-.1-.4-.1-.3 0-.7 0-1 .1-.2 0-.4.1-.7.1s-.6 0-1 0c-.3 0-.6 0-.8 0-.4 0-.7.1-1.1.2-.3.1-.6.1-.8-.2s-.5-.6-.3-1c0-.1.1-.2.1-.2 0-.8.1-1.6.1-2.4 0-.2-.1-.4.1-.7.1-.1-.1-.4-.1-.6 0-.4.1-.9-.2-1.3 0-.1 0-.2 0-.3 0-.2.1-.3.1-.5 0-1.2 0-2.4 0-3.6 0-.6 0-1.2-.1-1.8-.1-.4-.1-.8-.1-1.3 0-.2.1-.4.1-.6s0-.3 0-.5c0 0 0-.1-.1-.1 0-.7-.2-1.5-.1-2.2.1-.9.1-1.8.1-2.7 0-1.1 0-2.2 0-3.3 0-.6.1-1.3.1-1.9 0-.5.1-1-.1-1.5 0 0 0-.1 0-.2.2-.2.1-.4.1-.6 0-2.1 0-4.3.1-6.4.1-2 0-4 .1-6 0-.3.1-.5 0-.8-.1-.2.1-.5.1-.8s0-.6 0-.9c.2-.9.2-1.8.2-2.7 0-.8.2-1.6.3-2.4 0-.4.1-.7.1-1.1.1-1.5 0-3 .1-4.6.1-1.3 0-2.7.1-4 0-.6 0-1.3.1-1.9.1-.7 0-1.3.1-2 .1-.8 0-1.5.1-2.3.1-.5.1-1.1.1-1.6-.7-.3-.7-1.1-.7-1.8 0-.9.1-1.9.2-2.8.1-.5.1-1.1.1-1.6.1-.6.2-1.1.2-1.7.1-.8.1-1.6.1-2.3 0-.4 0-.8.1-1.2.1-.3.1-.6-.1-1-.1-.3 0-.8 0-1.2 0-.2 0-.5 0-.7 0-.1-.1-.2-.1-.3 0-1.1-.1-2.2 0-3.2.1-.8 0-1.6.1-2.3 0-.3-.1-.3-.3-.4-.4-.1-.9-.2-1.3-.2-.7 0-1.3-.1-1.8-.6-.1-.1-.2-.2-.3-.2-.5-.2-.9-.5-1.2-.9 0 0-.1-.1-.1-.1.1-.6-.3-1-.5-1.4-.4-1-.1-1.8.4-2.6.3-.4.8-.5 1.3-.6.9-.1 1.9-.1 2.8-.1.4 0 .6.1.9.3.2.2.2.1.4-.1.2-.4.2-.8.1-1.1-.1-.5-.1-1-.1-1.5 0-1.1 0-2.3.1-3.4.1-.7.2-1.5.2-2.2.1-.8.1-1.6.2-2.4s0-1.6.1-2.4c.1-.7 0-1.3.1-2 .2-1.2.1-2.3.2-3.5.3-1.2.2-2.1.2-3 0-.7.1-1.4.2-2.1v-.1c0-1 .1-2 .1-3 0-.3 0-.5.1-.8.1-.2-.1-.5-.1-.7.1-1.7 0-3.3.1-5 .1-1.1.2-2.2.2-3.3 0-.5 0-.9.1-1.4.2-.9 0-1.9.1-2.8 0-.2-.1-.4 0-.7.1-.2 0-.5 0-.8s0-.5 0-.8c.1-.2.2-.5.2-.8-.1-.5 0-1 0-1.5s0-1 0-1.6c0-.5 0-1 0-1.5s0-1 0-1.6c0-.5 0-1 0-1.6 0-1.2-.2-2.3-.1-3.5 0-.5.1-1 .2-1.4 0-.1 0-.3 0-.4 0-.9 0-1.7 0-2.6 0-.6.1-1.1.2-1.7.1-.2-.1-.5-.1-.8 0-.8 0-1.6 0-2.4 0-.6 0-1.2.1-1.8.1-.7.3-1.4.4-2.1.1-.3 0-.7.1-1 .2-.5.2-1.1.3-1.7.1-.4 0-.8 0-1.1 0-.5.1-.6.6-.8.1 0 .2-.1.4-.1.3-.1.6-.1.6-.5 0-.1.2-.2.3-.2 1-.1 2-.2 2.9-.1 1 .1 2.1 0 3.1.1.4 0 .7-.2 1.1-.1.7.2 1.4.1 2 .1.8-.1 1.5-.1 2.3-.1s1.5 0 2.3.1c.4.1.9.1 1.3.1.3 0 .6-.1.9-.1s.6.1.9-.1h.3c1 0 2.1 0 3.1-.2.3-.1.7-.1 1-.1.8-.1 1.6-.1 2.4-.2 1.1-.2 2.2-.2 3.3-.2h1.7c.3 0 .6-.1.9 0s.7-.1 1-.1.7.1 1 0c1-.2 2-.1 3-.1.6 0 1.3 0 1.9.1.9-.1 1.6 0 2.3.1l2.7.3c.5.1 1.1 0 1.6.1.3 0 .4-.2.4-.4.1-.4.1-.4.5-.5.5-.1 1.1-.2 1.6-.3s1-.1 1.5-.1c.2 0 .3-.1.5-.1 0 0 .1 0 .1-.1h-.1c-.3.1-.7 0-1 0-.6 0-1.1 0-1.7-.1-.7-.1-1.4-.2-2-.5-.1-.1-.4-.1-.5.2 0 .1-.2.1-.4.1-.6 0-1.2.1-1.8.1-.3 0-.7-.2-1-.4-.1-.1-.2-.4-.1-.7.1-.4.2-.7.2-1.1s.1-.9.8-1c.4 0 .7-.3 1.1-.3h.2c.3.3.7.2 1 .1s.7 0 1-.1c.6-.2 1.3-.2 2-.3.5-.1 1.1-.2 1.6-.3.3-.1.7-.1 1-.1 1-.1 2-.3 2.9-.5 1.2-.2 2.3-.6 3.4-.9.5-.1 1-.2 1.5-.2.4-.1.8-.2 1.3-.2.1 0 .2 0 .2-.2s.2-.4.2-.6c0-.4.2-.6.6-.6 0 0 .1 0 .1-.1.4-.5.8-.2 1.2-.1.6.1 1.2.2 1.7.2.3 0 .6.1.9.1.2 0 .4.3.3.5-.3.4-.1.9-.3 1.4.1.3.1.4-.1.4-.3.1-.6.1-.9.2 0 0-.1 0-.1.1-.3.4-.8.3-1.2.5-.3.1-.5.1-.8.1-.7 0-1.3.1-2 .1-1.1.1-2.1.2-3.2.4-1 .3-2.1.5-3.2.8-.4.1-.7 0-1.1.1-.7.2-1.4 0-2 .3-.3.1-.7.1-1.1.1-.1 0-.2 0-.3 0s-.2.1-.2.1h.3c1 0 1.9-.1 2.9-.1.9.1 1.9 0 2.8.1s1.7.2 2.6.2c.4 0 .8.1 1.1.1.5 0 .7-.4.4-.8-.2-.2-.1-.4.1-.5.1-.1.2-.2.3-.3.4-.4.9-.5 1.5-.2.2.1.4.4.5.6s.1.4 0 .7-.1.7.1 1c.1.3 0 .6 0 .9 0 .4 0 .4.4.4.5 0 1 .1 1.5.2h.3c1.7.2 3.5.2 5.3.3.5 0 .9.2 1.2.5.6.4 1 1 1.3 1.6 0 .1.1.1.1.2 0 .8.1 1.7.1 2.5 0 .5-.1 1-.1 1.5 0 .2-.3.4-.5.4s-.4-.1-.6-.1c-.1 0-.3-.1-.3-.1-.1.2.2.1.2.2s.1.2-.1.3c-.2 0-.3.1-.5.2-.6.1-1.2.1-1.7-.1-.1 0-.1-.1-.2-.1-.2-.2-.2-.3.1-.4 0 0 .1 0 .1-.1.5 0 1.1-.1 1.6-.1.3 0 .7-.1 1-.1.2 0 .3-.3.2-.5-.1-.3-.1-.6 0-.9s0-.6 0-.9c0-.1-.1-.3-.1-.4 0-.6 0-1.2-.1-1.7-.1-.3-.3-.7-.5-.9s-.6-.4-1-.2c-.1.1-.2 0-.4 0-.4 0-.9 0-1.3 0s-.9-.1-1.3-.2c-.1 0-.2 0-.4 0-.5 0-1 0-1.5 0s-.9-.1-1.4-.2-1.1-.2-1.6.1c-.2.1-.3 0-.3-.1-.2-.2-.5-.2-.7-.2s-.4.1-.6-.1c-.1-.1-.3-.1-.5 0-.8.2-1.6.2-2.3.1-1-.2-2-.2-3.1-.2-.8.1-1.6 0-2.3.3-.3.1-.5-.1-.8.1-.3.3-.5.5-.5.7v.7c0 .5-.1 1.1-.2 1.6v.2c0 1.1-.1 2.2-.1 3.4 0 .2 0 .3-.1.5 0 0 0 .1.1.2 0 0 .1 0 .1-.1.1-.1.1-.3.2-.5 0-.1.1-.1.1-.2.1.1.1.1.2.2v.2c-.1.3-.2.6-.3.9s-.4.4-.6.2-.3-.4-.3-.6v-.1s-.1.1-.1.1c-.2.3-.5.6-.7.9-.2.2-.1.4.2.4s.6-.1.9.1c.1 0 .2-.1.3-.1.1-.1.1-.2.2-.2s.2 0 .3-.1c0 .1.1.2 0 .3-.1.2-.1.3.1.2h.1c.3 0 .3 0 .2-.3 0-.1-.1-.2-.1-.2 0-.1.2-.2.2-.2.4.2.8-.2 1.1.2 0 .1.2 0 .4 0 1.6 0 3.3.1 4.9 0 1-.1 2 0 3-.1.8-.1 1.6 0 2.5-.1.4 0 .8-.2 1.2-.1s.8.1 1.2.1h2.2c.2 0 .4.1.7.1.2 0 .4-.1.7-.1.6.1 1.1 0 1.6 0 .3 0 .6-.1.9-.1.2 0 .3-.1.3-.3s0-.4 0-.5c0 0 .1-.1.1-.1s0 .1.1.1c0 .1.1.2.1.2h.1c0-.3.2-.6 0-1-.1-.3 0-.8.1-1.2.2-.6.3-1.2.3-1.8 0-.8 0-1.7 0-2.5 0-.3-.3-.7-.6-.8-.4-.1-.9-.2-1.3-.3-.1 0-.2-.1-.2-.1-.1-.1-.1-.2-.2-.3.1-.1.2-.2.3-.2.6 0 1.1 0 1.6.3.4.2.8.3 1.2.5.3.2.6.1.9 0 .7-.3 1.1-.3 1.8-.1.1 0 .3.1.4.1h2c.4 0 .8.1 1.2.4.2.2.5.3.7.4.3.2.4.4.4.7 0 .8-.1 1.5-.2 2.3-.1.4 0 .9-.1 1.3-.1.6 0 1.2-.2 1.8v.2c0 .7 0 1.5-.1 2.2-.2 1.6 0 3.1-.1 4.7.2.6 0 1.3.2 2v.3 2.5c0 .3 0 .7-.1 1s0 .7.1 1v.3c-.2.6.1 1.2 0 1.8-.1.7 0 1.4-.1 2.1s0 1.4-.1 2.1c-.1.9 0 1.7-.1 2.6-.1 1.3-.2 2.5-.2 3.8 0 .9 0 1.8.1 2.7.1.7 0 1.4.1 2.1 0 .3 0 .6.1 1 .1.2.1.5-.1.8v.3c0 2.1-.1 4.1-.1 6.2 0 .8 0 1.7-.1 2.5-.1.7-.1 1.5-.1 2.2 0 1.1 0 2.1-.1 3.2-.1.7 0 1.4-.1 2.1 0 .5-.2 1-.1 1.5.1.9.1 1.7.1 2.6 0 1.3-.1 2.6-.1 4 0 .2-.1.4-.1.7 0 .2.2.4 0 .6.3.7-.1 1.5.2 2.2v.1c0 1 .1 2 .1 3 0 .8-.1 1.5-.1 2.3 0 .4-.2.7 0 1-.2.9 0 1.8-.1 2.7 0 .1-.1.3-.2.4-.2.2-.5 0-.5-.2 0-.4.1-.8-.1-1.1.2-.4-.1-.8 0-1.2.2-.9 0-1.8.1-2.7.1-1.1.1-2.1.1-3.2 0-.8 0-1.6-.1-2.4-.1-.9-.1-1.8-.1-2.6.1-1 0-2 .1-3 .1-.8.1-1.7.1-2.5 0-.3-.1-.7-.1-1 0-1.1 0-2.2.1-3.3s0-2.2.1-3.3c0-1 0-2.1.1-3.1.2-1.6.1-3.2.2-4.7 0-.7 0-1.4.1-2.1.1-.6.1-1.1.1-1.7 0-.3 0-.6-.1-.8-.1-.3 0-.6 0-.8 0-1 0-2-.1-2.9-.2-1.2 0-2.3-.1-3.5.2-.5 0-1 .2-1.5 0-.1 0-.2 0-.3 0-1.2 0-2.5.1-3.7.4-3.3.1-6.5.2-9.8 0-.5.1-1 0-1.5-.2-1.5-.1-3.1-.1-4.6 0-.9 0-1.7.2-2.6 0-.1 0-.2 0-.3 0-.7.1-1.4.2-2 0-.1 0-.1 0-.2 0-.7 0-1.4.1-2.1.1-.4.1-.8.1-1.3 0-.1 0-.2-.1-.3s-.2-.1-.3-.1c0 .1 0 .1.1.2.1.2-.1.4-.1.6-.1.4-.1.8-.1 1.2 0 .3-.2.3-.4.4h-.1c-.2 0-.4-.1-.5 0-.1.2-.2.4-.2.6 0 .5-.1 1 .1 1.5.1.4.1.9.1 1.4v4.8c0 .7 0 1.4-.1 2.1-.1.5-.1.9 0 1.4.1.4 0 .8-.1 1.1-.1.7-.1 1.3 0 2 .2 1.1.1 2.3.1 3.4 0 .6 0 1.2-.1 1.8-.1.5 0 1-.1 1.5-.2 1.8 0 3.5-.1 5.3 0 .3-.1.6-.1.9.1.8 0 1.6.2 2.5v.1c-.2.5.1 1.1 0 1.6 0 .3-.1.7-.1 1 .2 1.2 0 2.4.1 3.6.2 1.6 0 3.1.1 4.7 0 .2 0 .4-.1.6-.1.3-.1.6-.1 1s0 .8-.1 1.3c-.1.2.1.5.1.8 0 1.3.1 2.6 0 4-.1 1.1 0 2.1-.1 3.2 0 .5-.1 1-.1 1.5 0 .3.1.6.1.9s-.1.6.1.9v.3c0 .5-.1 1 .1 1.5v.3c-.2.8-.1 1.6-.1 2.4 0 1.2.1 2.4 0 3.6-.2 2.9 0 5.8-.1 8.7 0 .3.1.6 0 .9s-.2.6-.3 1c0 .1-.1.3-.2.2-.1 0-.2-.2-.2-.2s0-.1 0-.2 0-.2 0-.3c0-.4 0-.8 0-1.1 0-.4 0-.8 0-1.2s0-.8 0-1.1c0-.4 0-.7 0-1 0-.4 0-.8 0-1.2s0-.8 0-1.1c0-2.6 0-5.2.1-7.9.1-1.2.1-2.3.1-3.5-.1-1.2-.1-2.5-.1-3.7 0-1.1 0-2.1.1-3.2.1-1.2 0-2.4.1-3.6 0-.1-.1-.2-.1-.4 0-.1 0-.3 0-.4 0-.4.1-.7 0-1-.1-.7-.1-1.3 0-1.9 0-.1 0-.3 0-.4 0-1.3.1-2.7 0-4-.2-2.3 0-4.6-.1-6.8 0-.8-.1-1.5-.1-2.3.2-2 0-4 .1-5.9.1-1.6.2-3.2.2-4.8 0-.5.1-1.1.1-1.6-.2-1.6 0-3.2-.1-4.7 0-.4 0-.8.1-1.2s-.1-.8.1-1.2c.1-.2-.1-.5-.1-.7 0-1.3 0-2.6 0-3.9 0-1-.1-2-.1-3 0-.1-.1-.3-.2-.4-.2-.3-.2-.3.1-.5.1-.1.2-.2.2-.3s0-.3-.1-.3c-.2 0-.1.2-.1.3s-.1.2-.1.2c-.3.4-.3.5-.3 1 0 .4-.1.8-.2 1.2 0 .1-.1.1-.2.2 0-.1-.1-.1-.1-.2-.1-.3-.3-.6-.4-1 0-.1 0-.2.1-.3s.3-.2.4-.3v-.2c-.2-.1-.4-.1-.6-.1-.5 0-1 0-1.6 0-.2 0-.4 0-.6-.1-.1 0-.1-.2-.2-.3 0 0 .1-.2.2-.2.3-.1.6-.2 1-.2h.9.9c.1 0 .3 0 .3-.1.3-.3.7-.6 1.1-.8.1 0 .1-.2.1-.3 0 0-.1-.1-.1-.1-.1-.5-.1-.5-.6-.4h-.1c-.9 0-1.7.1-2.6.1-.4 0-.8-.1-1.1-.1-.2 0-.2.1-.2.2v3.3c0 .2.1.4.1.6s-.1.3-.2.2-.2-.1-.3.1c-.1.3-.2.5-.3.8 0 .5-.2 1-.3 1.5v.6c0 .1 0 .3-.1.3-.4.1-.3.5-.5.7-.1.2-.2.3-.4.4-.3 0-.5.2-.7.3-.3.1-.6.2-.9.2-1.2.1-2.4.2-3.6.1-1.8-.1-3.6 0-5.4-.1-.5 0-1-.2-1.5-.1-.6 0-1.3-.1-1.9.1-.1 0-.3 0-.4 0-.6 0-1.3 0-1.9.2h-.1c-.4-.4-.9-.1-1.3-.1-.5.1-1 0-1.5.2h-.1c-1 0-2.1.1-3.1.1-.4 0-.8-.3-.8-.6 0-.4-.2-.4-.5-.5s-.6-.2-.8-.4c-.4-.2-.5-.6-.5-1-.1-.9 0-1.8 0-2.7 0-.4.1-.8.1-1.3 0-.2.1-.4-.1-.6v-.2c.2-.4.2-.8.3-1.1s0-.4-.3-.4c-.5 0-1 0-1.6 0-.3 0-.5-.1-.8-.1-.4 0-.7-.1-1.1-.1-.6 0-1.2-.1-1.8-.2-.4-.1-.9-.1-1.3-.1-.6 0-1.1-.1-1.7-.1s-1.1.1-1.7-.1c-.2-.1-.4.1-.6.1-1.6 0-3.2 0-4.8 0-1 0-2 0-3 .1-.7.1-1.4.2-2.1.2-.6.1-1.2.1-1.9.2-1.1.2-2.2.2-3.3.2-.4 0-.8 0-1.2.2-.6-.1-1.2.2-1.8-.1 0 0-.1 0-.2 0-.8 0-1.6-.1-2.3-.1-2.6 0-5.2 0-7.7 0-.2 0-.4 0-.5.1s-.4.1-.6 0c-.2 0-.4-.2-.6-.3-.1 0-.2 0-.3.1 0 0-.1 0-.1.1 0 0 .1.1.1.1.2 0 .3 0 .4.2 0 .1.1.2.1.2-.1.1-.2.2-.3.2-.5-.2-1.1-.1-1.6-.1-.2 0-.5 0-.7.1-.1 0-.2.1-.2.1-.2-.2-.4 0-.5 0-.1.1-.2.3-.2.5 0 .5-.1 1.1 0 1.6v1.2c-.1.4 0 .8-.2 1.2-.2.6-.2 1.3-.3 1.9-.1.3-.1.7-.1 1 0 .9-.1 1.8-.1 2.7 0 .4.1.8.1 1.1 0 .7 0 1.4-.2 2.1-.5-.4-.9 0-.6.3 0 .7-.1 1.3-.1 2v.2c-.2 1.4-.1 2.9-.1 4.3 0 .4.2.9.1 1.3-.1.5-.1 1-.1 1.4.1.8.1 1.6.1 2.5 0 .3-.1.7-.1 1 0 .6.1 1.2.1 1.9 0 1 0 2.1-.1 3.1 0 .5.1 1 0 1.5-.1.9 0 1.8-.1 2.7-.1.7 0 1.4-.1 2s0 1.2-.1 1.8c-.2 1.8 0 3.7-.1 5.5-.1 1.1 0 2.1-.1 3.2 0 .5-.2 1-.2 1.5 0 .4 0 .8-.2 1.1-.3.5-.2.9-.1 1.4 0 .2.1.4 0 .5-.1.3-.1.6-.1.8v1.3c0 .8 0 1.6-.2 2.5v.3c0 1.6-.1 3.1-.1 4.7 0 .9-.1 1.7-.2 2.6-.2 1.3-.2 2.6-.2 4 0 .3-.1.6-.1.9.2 1.5 0 3 .1 4.5 0 .1-.1.3-.1.4 0 .3-.2.3-.4.3s-.3-.2-.3-.4c0-.4 0-.8 0-1.1 0-.2 0-.2-.2-.1-.3.2-.7.3-1 .4-.1 0-.2.1-.2.2v.5c0 .7.2.9.9.9 1.2 0 2.5.1 3.7.1.7 0 1.4.1 2 .2h.3 2.3c2.2 0 4.4 0 6.6-.1 1-.1 2 0 2.9-.1 1.2-.2 2.4 0 3.6-.1s2.4 0 3.5-.1c.3 0 .7-.1 1-.1s.6.2.8 0c.2.2.5.1.7.1 1.2 0 2.5 0 3.7.1s2.4.1 3.6.2c1.1.1 2.3.2 3.4.2.3 0 .5-.2.7 0 .2.1.4-.1.7 0 .3-.2.6 0 .8 0 .3 0 .6-.1.9-.1.7 0 1.5 0 2.2.1.6.1 1.2 0 1.7.1.2 0 .4.1.7.1 1-.1 2.1 0 3.1-.1.9-.1 1.7 0 2.6-.1h.3c.2.1.3 0 .3-.2 0-.8 0-1.7 0-2.5 0-.1 0-.1-.1-.2-.2-.2-.2-.4 0-.6.1-.1.1-.3.1-.4 0-.6.1-1.2.1-1.7 0-.1.1-.3.2-.3.4 0 .3-.3.2-.4s0-.5-.4-.4c-.3.1-.6.2-.8.2-.4 0-.9 0-1.4.1m11.9 91.1c.4-.1.9-.1 1.3-.2 1.2-.1 2.4-.1 3.6-.1 1 0 2-.1 2.9-.2.7-.1 1.5-.2 2.2-.3.3 0 .6-.1.8 0 .3.1.5-.2.8 0 1.2-.2 2.4-.2 3.6-.2h.1c.2 0 .3-.1.4-.2.3-.6.4-1.2.4-1.8.1-1.7 0-3.4.1-5.2 0-.5-.1-1.1.1-1.6.1-.2.1-.5-.2-.6-.1 0-.1-.1-.1-.2 0-.3.1-.7 0-1s-.1-.6-.1-.9-.1-.7-.1-1c0-.5 0-.9 0-1.4 0-.2-.1-.4.2-.5 0 0 .1-.1.1-.2-.2-.2-.2-.4 0-.7-.2-.2-.1-.5-.1-.8 0-1.2 0-2.4.1-3.6.1-1.3-.1-2.7.1-4.1.1-.7-.1-1.5.1-2.2 0-.2.1-.5 0-.7 0-.2 0-.5 0-.8s.1-.5.1-.8c0-1 .1-2.1.1-3.1 0-1.1 0-2.2 0-3.3 0-.1 0-.2 0-.3.2-.8.2-1.6.2-2.3 0-2 0-4-.1-6-.1-2.2-.1-4.5.1-6.7 0-.1 0-.1 0-.2 0-2.3.1-4.5.1-6.8 0-.4.1-.8.2-1.2s.2-.9.1-1.3c-.1-.3-.1-.7-.1-.9.1-.3.1-.6.1-.9s.1-.6 0-.9c-.1-.2 0-.5-.1-.7-.1-.5 0-1.1.1-1.6.1-1.6 0-3.2.1-4.8.1-.8 0-1.7-.1-2.5-.1-1-.1-2-.1-2.9 0-1.3 0-2.6 0-4 0-.2.1-.4 0-.6 0-.5-.1-.9 0-1.4.2-.8-.1-1.2-.9-1-.5.1-1 .2-1.5.2-1.4 0-2.8 0-4.1.1-.7.1-1.5 0-2.2.1-.1 0-.2 0-.3.1-.9.4-1.8.5-2.8.4-.6-.1-1.2.3-1.8 0h-.1c-.4.2-.8.1-1.1.1-.5 0-1.1.1-1.6-.1-.2-.1-.4.1-.4.2v2.1c.3.4-.1.9.1 1.3-.2.4-.1.9-.1 1.4 0 .3 0 .7.4.8.2.1.2.4-.1.5-.1 0-.3 0-.4.1-1.1 0-2.2.1-3.3.1-.1 0-.1 0-.2 0-.4.2-.9.2-1.4.2s-.9.1-1.4.1h-.1c-.4.1-.8.2-1.2.2-.5 0-1 0-1.5 0-.6 0-1-.4-1-1 0-.8 0-1.5 0-2.3 0-.1 0-.2 0-.3-.2-.5-.1-.9-.1-1.4 0-.1.1-.3.1-.4-.1-.3-.1-.6 0-.9.1-.2-.1-.4-.4-.4-.5 0-.9 0-1.4.1-.8 0-1.6.1-2.4-.1-.3-.1-.6 0-.9.1-.1 0-.3.1-.4 0-.3-.2-.6-.1-.9-.1-1-.1-2 .1-3-.1-.8-.1-1.6-.1-2.4-.1-.7 0-1.3-.1-2-.1 0 0 0 0-.1 0-.3-.2-.7-.1-1.1-.1s-.7-.1-1.1 0c-1 .1-2.1.1-3.1.1-.8 0-1.6 0-2.4-.1-1.1-.1-2.3-.1-3.4-.1-.5 0-1 .1-1.5 0-.3 0-.7.1-1 .1-.6 0-1.2-.1-1.9.1-.1 0-.2 0-.3 0-.2-.2-.5-.1-.7-.1-.6 0-1.2.1-1.9.1-2.6.1-5.2 0-7.9.1-.7 0-1.5.1-2.2-.1-.1 0-.2 0-.2 0-.2.2-.4.1-.6.1-.9.1-1.8-.1-2.7.1-.2 0-.4.1-.6.1-.3-.1-.6 0-.9 0s-.7 0-1 0-.4.1-.3.4c0 .6.1 1.3.1 1.9v3.4c0 1.1-.1 2.2-.1 3.4 0 .7 0 1.5-.1 2.2-.2 1.3-.2 2.6-.2 4 0 1.1.1 2.1-.1 3.2-.1 1-.1 2.1-.1 3.1 0 .5-.1 1-.1 1.5 0 1-.1 2-.2 3 0 .8.1 1.6-.1 2.4-.1.5-.1 1-.1 1.5-.1 1.1-.1 2.1-.1 3.2 0 .7-.1 1.3-.1 2v.1c-.2.3-.1.7-.1 1.1s-.1.7-.1 1.1v.9c0 .3.1.6 0 .9s0 .6 0 .8v2.1c0 .5 0 1.1-.3 1.5-.1.2-.1.3 0 .5.1.4 0 .8 0 1.2 0 .2-.1.3 0 .5s.1.5.1.7c0 .5-.1 1.1-.1 1.6 0 1.3-.2 2.6.1 3.9v.2c-.2.2-.1.4-.1.6 0 .8-.1 1.6.1 2.3.1.7 0 1.5.1 2.3.1 1.1.1 2.2.1 3.3v4 .7c.1.3-.1.7 0 1 .1.4.1.7 0 1.1-.1.5-.1 1 0 1.5.1.4 0 .8-.2 1.2 0 .1-.1.2-.1.2-.4.1-.4.4-.2.7.1.1 0 .3 0 .4 0 .6-.1 1.2 0 1.7.1.7.2 1.4.2 2.1 0 .4-.1.8.1 1.2 0 .1 0 .2-.1.3-.2.3-.1.6 0 1 .2.4.4.8.2 1.3 0 .1 0 .2.1.2.1.2.2.5 0 .7s0 .2.1.2c.8 0 1.7.1 2.5.1h.3c.4.1.7.2 1.1.2.3 0 .5-.1.8-.1 1.2 0 2.4 0 3.6-.1.9-.1 1.8-.1 2.8-.1h.1c.7-.2 1.4-.2 2.1-.2 1.3 0 2.7 0 4 .2.7.1 1.4 0 2.1.1 1.1.1 2.2 0 3.4.1 1.3.1 2.7-.1 4 .1.7.1 1.4.1 2.1.1h.2c.5.2 1 .1 1.4.2s.8 0 1.1.1c.6.2 1.2.2 1.8.2h.7c.8.1 1.6.1 2.4.1.5 0 .9 0 1.4.1.7.1 1.5.2 2.2.2h9.3c.5 0 1 0 1.5-.1.7-.1 1.4-.1 2.1-.1 1.4-.1 2.8.1 4.2-.1 1.1.3 1.9.3 2.8.2m-61-21.7c0-.2.1-.3.1-.5 0-.8-.2-1.7-.2-2.5 0-3-.1-5.9.1-8.9 0-.6 0-1.3 0-1.9 0-.7 0-1.3 0-1.9-.1-.6.1-1.2 0-1.9 0-.1 0-.3 0-.4-.1-.1.1-.2.1-.4 0-.6 0-1.1 0-1.7.1-.9.1-1.9.1-2.8 0-.1 0-.2 0-.3.2-.6 0-1.2.2-1.9.1-.6 0-1.2.1-1.8s0-1.2.1-1.8 0-1.1.1-1.7c.1-1 .1-2 .1-3 0-.6 0-1.2.1-1.7.1-.7.1-1.4.1-2.2s0-1.6 0-2.4c0-.1 0-.2 0-.3.2-.7.1-1.5.2-2.2.1-.8-.1-1.7.1-2.6 0-.1 0-.1 0-.2 0-.2-.1-.3-.1-.5 0-.9.1-1.8.1-2.7 0-.1 0-.1 0-.2.2-.5.1-1.1.2-1.6.1-.9 0-1.9.1-2.9.1-1.1 0-2.1.1-3.2s0-2.3-.1-3.4c0-.3-.1-.4-.4-.5s-.6-.1-.9-.2c-.5-.1-.5-.1-.5.3 0 1.9-.1 3.9.1 5.8v.9c0 .3.1.6 0 .8-.2.3.1.5 0 .8-.1.7.1 1.5-.2 2.1.2.5 0 1.1 0 1.6-.1.6-.1 1.2-.1 1.7v.1c-.2.7-.3 1.5-.3 2.3v1c0 .3-.2.7 0 1v.2c-.2.2-.1.4-.1.6 0 .6.1 1.2.1 1.8 0 1.5-.1 3-.1 4.6 0 .7-.1 1.4-.1 2.1v.1c-.2.6-.2 1.2-.2 1.8-.1 1.7 0 3.4-.1 5.1-.1.9-.1 1.9-.1 2.8 0 .5 0 1-.1 1.4-.1.7-.2 1.4-.2 2.1 0 .4 0 .9-.1 1.3-.1.6-.1 1.3-.1 1.9-.1 1.8 0 3.7-.1 5.5-.1 1.4 0 2.8-.1 4.2s0 2.7-.1 4.1c-.1 2.4-.1 4.8-.1 7.3v1.1.8c0 .3-.1.5 0 .7.1.3-.1.5 0 .7.1.3.1.6.1.9 0 .6.1 1.2.1 1.7 0 .3.2.6.2.9 0 .4.2.8-.2 1.1-.1 0-.1.2-.1.3.2.6.2 1.3.3 1.9.1.8.1 1.5.1 2.3.1 1.9 0 3.9 0 5.8 0 .2 0 .3-.1.5s0 .3.2.3h.4c1.1 0 2.2-.1 3.3-.1 1 0 2 0 3-.2h.7c.6.2 1.2.3 1.8.3.3 0 .6-.1.9 0 .8.2 1.7.3 2.5.3 1.2 0 2.4-.1 3.6-.1h.4c.5.2 1.1 0 1.7.2.4.1.9 0 1.3 0h1.4c.4 0 .8.1 1.3 0 .3-.1.6 0 .9 0h.8c3.1-.1 6.1.1 9.2-.1.8-.1 1.7 0 2.6-.1 1.9-.1 3.9 0 5.8-.1.5 0 1.1.1 1.6.1 3.2-.1 6.4.1 9.5-.1 1.3-.1 2.6.1 3.9-.1.6-.1 1.2 0 1.7 0s1 .1 1.6 0c.4 0 .8.1 1.2.1 1.4 0 2.8.1 4.2.1h2.8.3c.7-.2 1.5-.1 2.2-.2h1.2c1.4-.1 2.8 0 4.2-.1 1.2-.1 2.3.1 3.5-.1.2 0 .4 0 .5-.1s.1-.4.1-.5c0-.2 0-.4 0-.6 0-.5-.3-.8-.5-1.1 0-.1-.2-.1-.2-.1-.3-.1-.6.1-.8-.1s-.5.3-.8 0c-.6.1-1.2.2-1.8.2-.7.1-1.4 0-2.2.1-.6.1-1.2.1-1.8.1-.1 0-.1 0-.2 0-.5.1-1 .2-1.5.3-1 .1-2 .1-2.9.1-.8 0-1.6 0-2.3.1-.9.1-1.8.1-2.7.2-1 .1-2.1.1-3.1.1s-2 0-3 0c-.1 0-.2 0-.3 0-.8.1-1.6.2-2.4.2-3.1 0-6.2 0-9.3 0-.6 0-1.2 0-1.8-.1-.4-.1-.7 0-1-.1-.6-.1-1.3-.2-1.9-.2-.8 0-1.5 0-2.3 0-.1 0-.2 0-.3 0-.7-.1-1.4-.2-2.1-.3-.4-.1-.8-.1-1.1-.1-.8-.1-1.6-.2-2.4-.3-.7-.1-1.5-.1-2.2-.1-1-.1-2 0-2.9-.1-1-.1-2.1 0-3.1-.1-.7-.1-1.4 0-2.1-.1-.8-.1-1.5-.1-2.3-.1-.1 0-.3 0-.4 0-.3-.2-.5-.1-.8-.1-.5.1-1 .1-1.5.1-.1 0-.2 0-.3 0-1.1.2-2.1.2-3.2.2-.1 0-.3 0-.4 0-.5.2-1 .1-1.5.2s-1.1 0-1.7 0c-.5 0-1.1 0-1.6 0-.7 0-1.3-.2-1.9-.3-.4-.1-.8-.1-1.2-.1-.3 0-.5.1-.8.1-.2 0-.4.1-.5.2s-.1.2-.2.3c-.5.5-.9 1.1-1.4 1.6-.1.1-.2.1-.3.2-.2.1-.3.1-.4-.1-.1-.1-.1-.3.1-.4.1-.1.2-.2.3-.3.3-.4.7-.8.6-1.4 0-.2.1-.4.2-.6.2-.3.3-.5.2-.9-.1-.3-.1-.7 0-1 .1-.7.2-1.4-.1-2 0-.1-.1-.2-.1-.3.1-1.4-.1-2.9.1-4.3 0-.1.1-.3 0-.4-.2-.3-.1-.5-.1-.8s.1-.7.1-1 .1-.5.1-.8c0-.2.1-.4.1-.6-.1-2.6.1-5.2-.1-7.8-.5.1-.5-.4-.5-.9m51.3-83.2c0-2 0-3.9 0-5.9 0-.5.1-.9 0-1.4 0-.2.2-.3.1-.6s0-.6-.3-.9c0 0 .1-.2.1-.3 0-.3.2-.5.1-.8-.1-.4-.1-.8-.1-1.2 0-.3 0-.5-.2-.8-.1-.1-.1-.3 0-.4.2-.1.1-.3.1-.5 0-1.3-.1-2.5-.1-3.8 0-.1 0-.3 0-.4.2-.5.1-1.1.2-1.7.1-.5 0-1.1.1-1.7.1-.8.1-1.6.1-2.4 0-.2-.1-.4.1-.6v-.1c-.1 0-.1 0-.2.1-.1.2-.2.4-.3.5-.7.8-1.2 1.8-1.9 2.6-.4.5-.8 1.1-1.2 1.6s-.9 1-1.2 1.6c-.6.9-1.2 1.9-2 2.7-.3.3-.6.6-.8.9-.4.7-.9 1.3-1.4 1.8-.2.2-.4.3-.5.5-.5.5-.9 1.1-1.4 1.7-.2.2 0 .1.1.2.2.1.2.3 0 .4-.1.1-.3.1-.4.1-.2.1-.4.2-.5.4-.6.9-1.3 1.7-2 2.5-.2.2-.3.3 0 .5.1.1.2.2.2.3.1.3 0 .4-.2.4-.1 0-.1 0-.2 0-.5 0-.9.1-1.3.5s-.8.8-1.1 1.3c-.2.2-.3.4-.4.6 0 0-.2.1 0 .2.4.1.7.1 1.1.1.3 0 .5.1.8.1.1 0 .1.1.1.1 0 .1-.1.1-.1.1-.3.1-.5.1-.8.1-.5 0-1 0-1.5.1-.2 0-.5.1-.6.4-.1.2-.3.4-.5.7s-.5.6-.7.9c-.3.4-.7.8-1 1.3-.5.7-1.1 1.4-1.6 2.2-.1.1-.1.2-.1.4h.4c.2 0 .5.1.7.1 1 0 2 .1 2.9.1s1.8 0 2.7-.1c.5-.1 1-.1 1.5-.1.7-.1 1.5-.3 2.2-.3 1-.1 2-.1 2.9-.1 1.4-.1 2.9.1 4.3-.1.8-.1 1.6-.1 2.4-.1.5 0 .9-.1 1.4-.1.2 0 .3-.2.3-.4-.2-.6-.1-1.1-.1-1.7 0-.3.1-.6.1-.8-.3-.1-.3-.4-.3-.8m18.3 8.3c-1.2.1-2.4-.1-3.5.1-.7.1-1.4.1-2.1.2s-1.4.1-2.2.1c-.3 0-.7 0-1 0s-.7 0-1 0c-.4 0-.7 0-1.1 0-.3 0-.7 0-1 0s-.6 0-.9 0c-.8 0-1.6 0-2.4.1-1.7.1-3.4.1-5 .1-.8 0-1.7 0-2.5-.1-.5-.1-1 0-1.6 0-.5 0-1 .1-1.5 0s-1 0-1.4-.1c-.7-.1-1.4 0-2.1-.1-1.1-.1-2.3-.1-3.5-.1-.8 0-1.6-.1-2.4.1-.2 0-.4-.1-.7-.1-.2 0-.5.1-.7.1-1.7 0-3.3 0-5 .1-1 0-2 0-3 0-.1 0-.2 0-.3 0-.7.2-1.5.1-2.2.2-.4.1-.8 0-1.2 0s-.9.1-1.2-.2c-.2-.1-.1 0-.1.1 0 .6 0 1.2.1 1.9.1 1.1.1 2.2.1 3.3 0 .2-.1.4.3.2.1-.1.4-.1.6-.1h.4c.7-.3 1.5-.3 2.3-.3.2 0 .5.1.6 0 .4-.2.8-.1 1.1-.1.6.1 1.2 0 1.7.1h.4c.7.1 1.3.2 2 .2h.4c.7.3 1.5 0 2.2 0 .5 0 1.1-.2 1.6-.2s1 .1 1.5 0c.7-.1 1.3-.2 2-.2 1.3 0 2.6-.1 3.9-.1.1 0 .2-.1.3-.1s.1-.1.2-.1c-.1 0-.1 0-.2 0-1.3 0-2.6 0-3.8 0-.4 0-.8-.2-1.2 0-.6-.3-1.2-.1-1.8-.2-1.1-.1-2.1-.1-3.2-.1-.5 0-1 0-1.5 0-.2 0-.4-.1-.6-.1-.4 0-.7.2-1.1.2-.6.1-1.2.1-1.8.1s-1.1 0-1.7.1c-.4 0-.8 0-1.3 0-.6 0-1.2-.1-1.8-.2-.4-.1-.8-.3-.9-.7-.1-.2 0-.3.2-.4h.7c.4 0 .7.2 1.1.2 1.4 0 2.8-.1 4.2-.1h.2c.4-.2.8-.1 1.3-.2.4-.1.8 0 1.2 0 1.5 0 2.9 0 4.4.2 1 .1 2 .1 3 .1h.4c.7.2 1.4 0 2 .2 1.8-.1 3.5.1 5.3-.1.9-.1 1.8-.1 2.7-.2 1-.1 2-.1 3.1-.2 1-.1 2.1-.1 3.1-.1.7 0 1.3-.1 2-.1h.1c.5-.2 1-.1 1.5-.2.7-.1 1.4 0 2.1-.1 1-.1 2-.1 2.9-.1 1 0 2.1.1 3.2-.1h.3c.2.2.5.1.7.1 1.4 0 2.7.1 4.1-.1.3 0 .4-.1.4-.4 0-.5-.1-1 .1-1.5.1-.2 0-.7-.1-.8-.7-.4-1-.3-1.4-.2m-42.8-2.5c-.6.2-1.2 0-1.8.1-1 .1-2 .1-3 .1-.2 0-.4-.1-.5-.1-.3.1-.7.1-1 .1-.2 0-.4.1-.4.4 0 .2-.1.3-.1.5h-.1c-.1-.1-.1-.2-.2-.3h-.1v.1c0 .3.1.5.1.8 0 .2.1.3.2.2.2 0 .4-.1.7-.1.9 0 1.7 0 2.6-.1 1.5-.1 3.1 0 4.6-.1 1.4-.1 2.8 0 4.2-.1s2.8.1 4.2-.1c.3 0 .5.1.8.1 1.3.1 2.6 0 3.9.1 1.5.1 2.9 0 4.4.1 2.1.1 4.1.1 6.2-.1 1.5-.1 2.9 0 4.4-.1.9-.1 1.8 0 2.7.1.8.1 1.6.1 2.4-.1.9-.2 1.9-.2 2.8-.2.6 0 1.2 0 1.7-.1.9-.1 1.8 0 2.7-.1.6-.1 1.3 0 1.9 0 .3 0 .4-.1.4-.4 0-.5 0-.9 0-1.4 0-.2-.1-.3-.3-.3-.4 0-.8-.1-1.2-.1-1.3 0-2.7 0-4-.1-.6-.1-1.2 0-1.7 0-.1 0-.3 0-.4 0-.6-.2-1.2-.1-1.8 0-.2 0-.4.1-.6.1-.7 0-1.4-.1-2.1-.1-.1 0-.3 0-.4 0-.2.3-.6.3-1 .3-.2 0-.3 0-.5 0-.6.2-1.2.1-1.8.2-.9.1-1.7 0-2.6 0-.8.1-1.6-.2-2.5-.1-.4.1-.8 0-1.2.1-.7.1-1.4.1-2.1.1-.6 0-1.2.1-1.8-.1-.3-.1-.7.1-1 .1s-.7 0-1 0-.6 0-.9 0c-.5 0-1.1.1-1.6.2-.7.1-1.4.1-2 .2-.7.1-1.4.2-2.1.2-1.9 0-3.9-.1-5.8-.1-.1 0-.3-.1-.4-.1-.3 0-.6-.2-.9-.1-.7.3-1.3.3-2 .3m-9.1 14.8c-1.2 0-2.5.1-3.7.1-.9 0-1.8-.1-2.8.1-.5.1-1 0-1.5 0s-1 0-1.5 0-1 .1-1.5 0-.9 0-1.4-.1c-.6-.1-1.1-.1-1.7-.1-1.2-.1-2.5 0-3.7-.1-.3 0-.7 0-1-.1-.6-.2-1.2-.2-1.5-.9 0-.1-.1-.1-.2-.2-.8-.6-1-1-.6-2 .1-.2 0-.2-.1-.2-.3 0-.6.1-.9 0s-.4 0-.5.2c-.2.3-.3.6-.6.8-.6.5-.4 1-.2 1.5.1.2.3.5.4.7.4 0 .7.4 1.2.3.1 0 .2 0 .3.1 0 .1-.1.2-.1.3s-.1.1-.2.1c.1 0 .1.1.2.1.5.1 1 .1 1.4.2.5.1 1 .2 1.4.3.5.2.9.2 1.4.2.1 0 .3.1.4.1.6.1 1.2.5 1.9.3.1 0 .2.1.2.1h.5c.1 0 .3-.1.4-.1.9 0 1.7-.1 2.6.1.5.1 1 0 1.5-.1.6-.1 1.2.1 1.8.1 1.2 0 2.4-.1 3.6-.1.3 0 .6-.2.8 0 0 0 .1 0 .2-.1.1 0 .3-.1.4 0 .3.2.6.1.9.1 2.2 0 4.4-.1 6.7-.1.3 0 .7-.3 1 0 .7-.1 1.4-.2 2-.2.3 0 .6-.1.9 0 .3 0 .6.1.9.1 1 0 2.1 0 3.1.1.8.1 1.6.1 2.4-.1.7-.1 1.4 0 2.1-.1.8-.1 1.7 0 2.5.1.5.1 1 .1 1.5.2.7.1 1.4 0 2.1.1 1.1.1 2.2.1 3.3.1h2.9.4c.3 0 .6.1.8.1s.6 0 .8.1.4.1.5.1c.4 0 .8 0 1.1-.1.1 0 .3-.1.3-.4 0-.2 0-.4 0-.6 0-.4 0-.4-.4-.6h-.1c-.2-.1-.5-.1-.7-.2.2 0-.1-.1-.4 0-.5.1-.9.2-1.4.2-.6.1-1.3.1-1.9.1-.5 0-1 0-1.5-.1-.9-.1-1.9 0-2.8-.1-.5-.1-1.1 0-1.6 0-.6 0-1.1 0-1.7 0-.5 0-1 0-1.5 0-.9 0-1.9-.1-2.8-.2s-1.8 0-2.7-.1c-.7-.1-1.3 0-2 0-.1 0-.2 0-.3 0-.5-.2-1 0-1.5-.2-1.8.1-3.7-.1-5.5.1-1.5 0-2.9 0-4.3 0m61.3 9.3c0 .5 0 1 .1 1.5.1.8.1 1.7.1 2.5.1.8.1 1.6-.1 2.4-.1.5 0 1 0 1.6v1.5c0 .5-.1 1 0 1.5.1.3.1.6-.1.9-.1.1.1.4.1.6 0 1.2.1 2.5-.1 3.7 0 .1 0 .2-.1.3-.2.3-.3.7-.2 1.1 0 .3-.1.6-.1.9v6c0 2-.1 3.9.1 5.9.1 1.9.1 3.8.1 5.6v.9c0 .3-.2.6 0 .8-.3.5-.1 1.1-.2 1.6-.1 1.1-.1 2.2-.1 3.3-.1 1.2.1 2.5-.1 3.7-.1.5 0 1-.1 1.5s-.1 1.1-.1 1.7c-.1 1.7-.1 3.4-.1 5.1 0 .2-.1.3-.1.5v.2c.2.3.1.6.1.9 0 .4 0 .8-.1 1.3s.1 1 .1 1.5c.1 2.7-.1 5.5.1 8.2.1.9 0 1.8 0 2.8v.4c.1.5.1 1.1.1 1.7 0 .1-.1.3-.2.3-.4.1-.2.4-.2.6 0 .1.1.2.1.3 0 .3.1.6.1.9 0 .1.1.2.2.2 0-.1.1-.2.1-.3-.1-.3.1-.5.4-.6.2-.1.3-.2.3-.4.1-.7.2-1.3.2-2 0-.3-.1-.6 0-.8.2-.7.2-1.4.2-2.1.1-1.9 0-3.8 0-5.7s0-3.8.1-5.8c.1-1.5.1-3-.1-4.6-.1-1.1 0-2.2-.1-3.3-.1-.6 0-1.3 0-2 0-.4.1-.9.1-1.3.1-2.2-.1-4.4.1-6.6.1-1.1 0-2.2.1-3.3.1-.7.1-1.5-.1-2.3-.1-.6-.1-1.2-.1-1.8 0-1.9-.1-3.8.1-5.8 0-.1 0-.1 0-.2.2-.7 0-1.5.2-2.2.1-.2-.1-.5-.1-.8 0-1.3-.1-2.7.1-4 .1-1 0-2 .1-3 .1-.8-.1-1.7-.1-2.6 0-1.4.1-2.9.1-4.3s-.1-2.7.1-4.1c.1-1.2.1-2.4.1-3.6 0-.3-.1-.7-.1-1 0-2.2-.1-4.3-.1-6.5 0-.3.1-.6.1-.9 0-.2 0-.3 0-.5-.1 0-.3.1-.4.1h-.1c-.2 0-.4 0-.5 0 0 .2.1.4.1.5-.2 2.7-.3 5-.1 7.4m-48.4-38.4c-.2-.5-.1-.7.4-.7h.5c1.6 0 3.2-.1 4.8-.1h.2c.8-.3 1.6 0 2.4 0 .3 0 .4 0 .6-.2.5-.6.9-1.2 1.4-1.7 0 0 .1-.1.1-.1-.1 0-.1-.1-.2-.1-.9 0-1.7.1-2.6 0-.1 0-.2 0-.2 0-.5.2-1 .1-1.5.1-.7-.1-1.3-.2-2-.2s-1.4.1-2-.1c-.1 0-.2 0-.2.1-.4.4-.8.9-1.2 1.4-.5.6-.9 1.3-1.4 2-.7.9-1.4 1.8-2 2.7 0 .1-.1.2-.1.2s.1.1.2.1h1.1 1c.5 0 .9-.1 1.4-.1.3 0 .5.1.8.1s.6-.1.8-.1h2.4c.4 0 .7 0 1-.4.4-.5.8-1.1 1.3-1.6.2-.3.5-.6.7-.8 0 0 0-.1.1-.2h-.1c-.1 0-.2 0-.3 0-.8 0-1.7 0-2.5.1s-1.7.1-2.5 0c-.6 0-1.3 0-1.9 0-.2-.1-.4-.1-.5-.4m26.7-28.7h.6c.1 0 .1.1.2.1.3 0 .7-.1 1-.1.5.1 1 .1 1.5 0 .2 0 .2-.1.2-.2 0-.3 0-.5 0-.8 0-.2-.1-.5 0-.7 0 0-.1-.1-.1-.1-.1 0-.1 0-.2 0-1.6.1-3.2-.1-4.8.1-.5.1-.9-.1-1.4-.1-.3 0-.6-.1-.8-.2s-.4-.4-.6-.3-.4.3-.6.4c-.1.1-.1.2-.2.2-.1.1-.3.3-.4.3-.2 0-.4.2-.5.3-.5.8-1.2 1.3-1.7 2.2-.4.7-.8 1.4-1.2 2.1-.1.1-.1.3.2.3.4 0 .7-.1 1.1-.1.8 0 1.6-.1 2.4-.2s1.7-.1 2.6-.1c.8 0 1.6.1 2.3.1.4 0 .7.1 1.1 0s.7.3 1 0c.5.2 1.1 0 1.6 0 .1 0 .3-.1.3-.2.1-.6.1-1.1.1-1.7 0-.3-.1-.2-.3-.2s-.4.1-.5.1c-.4-.1-.8-.1-1.2-.1-.2 0-.4.2-.5.1-.4-.3-.8.2-1.2-.1-.4.2-.7.1-1.1.1s-.8 0-1.2 0c-.7 0-1.4 0-2.2 0-.1 0-.3 0-.4 0-.6.2-1.2.2-1.8.2-.1 0-.3 0-.4-.1-.2-.1-.3-.3-.3-.5 0-.3.3-.3.5-.3.5-.1 1-.2 1.5-.2.8-.1 1.5-.1 2.3-.1.6 0 1.2 0 1.7.1.5-.1.9-.2 1.4-.3m-8 10.1c-1.5 0-3-.1-4.4-.1-.2 0-.5 0-.7-.2-.1-.1-.2-.1-.2.1-.3.5-.6.9-.9 1.4-.2.3-.5.7-.7 1 0 .1-.1.2 0 .2s.1.1.2.1c.2 0 .4-.1.6-.1.3 0 .5.1.8.1 1.1 0 2.1.1 3.2-.1.5-.1 1 0 1.6-.1s1.2-.1 1.8 0 1.2-.1 1.8 0c1.1.1 2.2.1 3.3.1.3 0 .5 0 .8-.1.2-.1.5.1.8.1h2.7.4c.3.2.3 0 .3-.2.1-.7.1-1.4.1-2.1 0-.2-.1-.2-.2-.2-1 0-2.1 0-3.1 0-.3 0-.5.1-.8.1-.2 0-.4-.1-.6-.1-1.1 0-2.2.1-3.3.1-.2 0-.3.1-.5.1-.4-.1-.6-.1-.8-.1-.7 0-1.3.1-2-.1 0-.1-.1 0-.2.1m-22.8 32c.5 0 1-.1 1.5-.1.1 0 .2-.1.3-.2.5-.8 1-1.7 1.8-2.4 0 0 0-.1.1-.1-.1 0-.1 0-.2 0-.5.1-1.1.1-1.6.2-.3.1-.6 0-.9.1-.3 0-.6.1-.9.1-.2 0-.4 0-.6 0s-.4 0-.6 0-.4.1-.5.1c-.3-.1-.7-.1-1-.1s-.6-.1-.9-.1c-.1 0-.2-.1-.3-.2-.2-.3.1-.7.5-.7.6 0 1.1 0 1.7.1.5.1 1.1 0 1.6-.1 1.3-.1 2.6 0 3.9-.1.3 0 .4-.1.6-.3.1-.2.3-.4.4-.6.4-.4.7-.8 1.1-1.2 0 0 .1-.1.1-.1-.1 0-.1-.1-.2-.1-.3 0-.6.1-.9.1-.6 0-1.1.1-1.7 0-.3 0-.7.1-1 .1s-.5.1-.8.1c-.4 0-.9.1-1.4-.1-.4-.1-.8-.2-1.2-.2-.2 0-.4 0-.6 0-.3 0-.4.1-.6.3-.4.6-.8 1.1-1.1 1.6-.2.3-.4.5-.5.8-.5.7-1 1.5-1.5 2.2-.2.3-.4.6-.6.9-.1.2-.1.3.2.3s.6-.1.9-.1c.9-.1 1.9.1 2.8-.1.6-.1 1.3 0 2.1-.1m20.8-33.1h2.4.4c.7.2 1.3.1 2 .1.3 0 .6 0 .9-.1.3 0 .6-.1.9-.1.8 0 1.6.1 2.4.1h3c.3 0 .5 0 .8.1.2.1.4 0 .4-.3 0-.6.1-1.2.1-1.8 0-.4 0-.4-.4-.3-.1 0-.1 0-.2 0-.6 0-1.2.1-1.9.1h-.1c-.5.2-1 .2-1.4.2-1.9 0-3.8.1-5.6-.1-1.2-.1-2.4-.1-3.6-.1-.1 0-.3 0-.4 0-.3-.2-.6-.1-.8-.1s-.3 0-.4.2c-.3.5-.6.9-.9 1.4-.1.2-.3.3-.4.5v.2c.3.1.5.1.8.1h1.3c.3-.1.4 0 .7-.1m-12.9 13.9v.1c-.3.5-.7.9-1 1.4-.1.1-.1.2-.2.4.1 0 .2.1.3.1.5 0 1.1-.1 1.6 0 .8.2 1.6.2 2.5.2h1.2 1.3c.2 0 .3.1.5.1.4 0 .8.1 1.2 0 .2 0 .4-.3.6-.6.5-.8 1.1-1.5 1.8-2.2.1-.1.1-.2.2-.2 0 0-.1-.1-.1-.1-.7.1-1.5.1-2.2 0-.1 0-.2 0-.3 0-.4.1-.8.2-1.2.2-1.3 0-2.6.1-3.9-.1-.3 0-.7-.1-.9-.3-.1-.1-.2-.1-.3 0s-.3.3-.4.4c-.4.1-.5.3-.7.6m29.8 36.7h1.6c.3 0 .6.1.8-.3 0 0 .1 0 .1-.1.8-.2 1.6-.4 2.4-.3h1.1s.7 0 1.1 0 .7 0 1.1 0h1c1 0 1.9.1 2.9-.1.8-.1 1.6-.1 2.3-.1h.2s0 0 .1-.1h-.1c-.1 0-.2 0-.2-.1-.1 0-.1-.1-.2-.1.1 0 .1-.1.2-.1h.6c.7-.2 1.4-.3 2.1-.3.2 0 .3.1.5 0 .4-.2.9-.1 1.3-.2.8-.1 1.5-.2 2.3-.4.9-.2 1.8-.5 2.7-.6.1 0 .2-.1.3-.1.5-.2.7-.6.3-1-.2-.2-.5-.4-.8-.7-.1-.1-.3-.1-.4 0-.2.3-.5.7-.5 1.1 0 .3-.1.4-.4.5-.2 0-.4.1-.6.1-.5 0-1-.1-1.4.1-.6.3-1.3.4-1.9.4-1 .1-1.9.2-2.9.3-.8.1-1.6.1-2.5.2s-1.8.1-2.8.1c-.7 0-1.4 0-2.1.1-.8.1-1.6.1-2.4.1-.7 0-1.5 0-2.2 0-.1 0-.3 0-.4 0-.3.3-.8.2-1.1.3-1.1.1-2.2.1-3.3.1-.4 0-.8 0-1.1 0-.8 0-.7.1-.7.7 0 .3.1.4.4.4.9.1 1.7.1 2.6.1m-26-41.5c-.6.7-1.2 1.4-1.8 2.1-.2.3-.4.6-.6.8-.1.1-.1.2.1.2h.3c1.6-.1 3.2.1 4.8-.1.9-.1 1.8 0 2.7 0 .2 0 .4 0 .6.1s.4.1.6 0c.1 0 .2-.3.3-.4.5-.6.8-1.4 1.4-2 0 0 0-.1.1-.2-.1 0-.1 0-.2 0-.2 0-.4.1-.6.1-.4 0-.8 0-1.2 0-1.8 0-3.7.1-5.5-.2-.4 0-.6-.2-1-.4m14.2 6.8c.6 0 1.3-.1 1.9-.1.8 0 1.6 0 2.3.1 1 .1 2 .1 2.9-.1.2 0 .3-.1.3-.3 0-.7.1-1.5.1-2.2 0-.1 0-.2.1-.2.1-.1 0-.2-.1-.2-.6 0-1.2-.1-1.7-.1-.8 0-1.7.1-2.5.2s-1.5.1-2.3.1c-.1 0-.3 0-.4 0-.2.1-.4.1-.6 0-.3-.1-.5 0-.5.4 0 .7.1 1.4.1 2.2 0 0 .2.1.4.2m1.6-19.1c.8 0 1.6 0 2.4-.1 1.1-.1 2.2 0 3.2 0 .3 0 .5.1.8.1.1 0 .4-.3.3-.4-.2-.4-.1-.7-.1-1.1 0-.2-.1-.3-.3-.3-.8 0-1.7.1-2.5-.1-.6-.1-1.2-.1-1.9-.1-.8-.1-1.6 0-2.4.1-1 .1-2 .1-3 .2-.8.1-1.5.1-2.3.1-.2 0-.4.2-.7 0 0 0-.1 0-.1.1-.2.3-.5.6-.7.9-.1.1-.1.2.1.2.4 0 .7.1 1.1.1.6 0 1.3 0 1.9.1.8.1 1.6.1 2.4.1.7.1 1.2.1 1.8.1m-1.6 57.2c-.1.2 0 .5.1.7 0 .1.1.2.3.1.4-.1.8-.1 1.2-.2.5 0 1.1-.1 1.6-.1h.1c.6-.1 1.1-.3 1.7-.3.8-.1 1.7-.1 2.5-.1.3 0 .4 0 .4-.4 0-.6 0-1.3 0-1.9 0-.4 0-.4-.4-.4-.7 0-1.3 0-2 .1s-1.5.1-2.2.2c-.5.1-1.1.1-1.6.1h-.1c-.4 0-.8.1-1.2.1-.3 0-.4 0-.4.3-.1.6-.1 1.2 0 1.8m4.7-12.4c.5 0 .9-.1 1.4-.1.4 0 .8-.1 1.3-.1.1 0 .2-.1.3-.2.3-.4.3-.4.7-.2.1 0 .2.1.2.1.1.2.3.2.5.2.4 0 .8-.1 1.1-.1h2.9c.8 0 1.7 0 2.5-.1.2 0 .7.1.8-.4 0 0 .1-.1.2 0 .2 0 .5 0 .7.1.5.2.8-.1.8-.6 0-.3 0-.3-.3-.2-.2.1-.5.1-.8.1-.9 0-1.8 0-2.7 0-.1 0-.2 0-.3 0-.7-.1-1.5-.2-2.2-.2-.5 0-.9 0-1.4.1-.8.1-1.7 0-2.6.1-.2 0-.4.2-.7.1-.2-.1-.5 0-.8.1-.8.1-1.7.1-2.5.2-.6.1-1.3.1-1.9.1-1.6.1-3.1.1-4.7.1-.1 0-.3 0-.4 0-.4.1-.8.2-1.3.2-.4 0-.8-.1-1.3.1-.1 0-.2 0-.2.1 0 0 .1.1.2.1.7-.1 1.4-.1 2.1-.1h.1c.3-.2.6-.1 1 0 .2.1.4 0 .6 0 .5-.1 1-.2 1.5-.2.3 0 .7.1.8.5 0 .1.1.1.2.2.3.1.7.1 1 .1h2.5c.2 0 .4-.1.7-.1m-3.6-29.3c.6 0 1.1 0 1.7-.1s1.1-.2 1.7-.2c.9 0 1.8-.1 2.8.1.5.1.6-.1.4-.6 0-.1 0-.1 0-.2.2-.5 0-1 .1-1.5 0-.1 0-.2-.2-.2-.6 0-1.3-.1-1.9-.1-.5 0-1 0-1.6 0-1.3 0-2.7.1-4 .1-.3 0-.4.1-.4.4 0 .7-.1 1.3-.1 2 0 .1 0 .2-.1.2 0 .2.1.3.2.3.5 0 .9-.1 1.4-.2m-23.1 14.2c.3 0 .6 0 1-.1h1.5c.3 0 .4-.1.5-.3.4-.6.9-1.2 1.4-1.7l.3-.3s0-.1.1-.2c-.1 0-.2-.1-.2 0-.2.1-.4.1-.6 0-.1-.1-.4-.1-.5 0-.3.2-.6.1-.9.1-.3-.1-.6-.1-.9-.1-1.4 0-2.9.1-4.3.1-.3 0-.5 0-.8 0s-.4.1-.6.3c-.1.1-.1.2-.2.3-.4.6-.9 1.2-1.3 1.7v.2h.1c.2-.1.5-.1.7 0 .3.1.6.1 1 .1s.8 0 1.2-.1c.9-.1 1.6-.1 2.5 0m21.7-2c0 .1.1.2.1.3v1.5c0 .2 0 .2.2.2.3-.1.7-.1 1.1-.2.8-.1 1.5-.1 2.3-.1h.1c.2-.2.5-.1.8-.1s.5-.1.8-.1c.7 0 1.3-.1 2-.1.1 0 .2 0 .2-.2 0-.6 0-1.3 0-1.9 0-.2-.1-.3-.3-.3-1.2 0-2.4.1-3.5-.1-.4 0-.7 0-1.1 0-.7 0-1.5.1-2.2.1-.2 0-.3.1-.3.3-.2.2-.2.4-.2.7m3.4 22.9h2.9c.4 0 .9-.1 1.3-.2.3-.1.3-.2.3-.6 0-.3-.1-.5 0-.8.2-.5 0-.9.1-1.4 0-.1 0-.2-.1-.1s-.2.2-.4.2c-.5.1-.9.2-1.4.2-1.4.1-2.8.1-4.2.1-.5 0-1 0-1.5 0-.3 0-.4.1-.4.4 0 .5.1 1.1 0 1.6 0 .2 0 .4.2.4h1.4c.2 0 .4-.1.5-.1.5.4.9.3 1.3.3m-2.5-27.3c-.2 0-.3 0-.5-.1-.2 0-.3 0-.3.3v2.1c0 .2 0 .2.2.2.3 0 .6-.1.9-.1h1.2 4.5c.4 0 .5 0 .5-.5s0-1 0-1.5 0-.5-.5-.5c-1.3 0-2.6-.1-3.9.1-.6.1-1.3 0-2.1 0m5.8-1.1h.6c.1 0 .2 0 .2-.2.1-.6.1-1.2.1-1.8 0-.2.1-.4.1-.6s-.1-.2-.2-.2c-.2.1-.3.2-.5.2-.5.1-.9.2-1.4.2-.7 0-1.4 0-2.1-.1-1.1 0-2.2.1-3.3.1-.1 0-.2 0-.2 0-.1 0-.2.2-.2.2.2.2-.1.3 0 .5.2.3.1.7.1 1 0 .5 0 .6.6.6 2.1.1 4.1.1 6.2.1m-6.1 38.8c.5 0 1.1 0 1.6-.1.4-.1.8 0 1.2-.1.7-.1 1.4-.2 2.1-.3.6-.1 1.3-.1 2-.1.4 0 .5-.2.5-.5 0-.5-.1-1 .1-1.5.1-.2 0-.2-.3-.2s-.6 0-.9 0c-.1 0-.3 0-.4 0-.5.1-1.1.2-1.6.3-.6.1-1.2.1-1.9.2s-1.4.1-2.1.1-.7 0-.6.7v.3c.3.3.3.7.3 1.2m4.1-25.6c.3 0 .6-.1.9-.1h1.1c.4 0 .7-.2 1.1 0h.4c-.1-.1-.2-.1-.2-.2-.1-.1-.2-.2-.2-.3-.1-.4-.2-.8-.2-1.2-.1-.5-.2-.7-.7-.6-.6.1-1.2.2-1.8.3-.7 0-1.4 0-2.1 0-.6 0-1.2 0-1.8 0-.3 0-.6.1-.9.1 0 0-.1.1-.1.1 0 .3-.2.5-.1.8s.1.6.1.9c0 .5 0 .5.5.5.6 0 1.2-.1 1.8-.1h.1c.7-.2 1.4-.2 2.1-.2m3.2-23.5c.2 0 .3-.1.3-.3 0-.4 0-.9 0-1.3 0-.3-.1-.3-.3-.3-.5 0-1-.1-1.5-.1-1.4 0-2.9 0-4.3.1-.1 0-.1 0-.2.1-.4 0-.9.2-1.3-.1-.1-.1-.2-.1-.2.1 0 .5-.1 1-.1 1.5v.3c-.1.2.1.3.2.2.3-.1.6-.1.8-.1.9-.1 1.9-.1 2.8-.1 1.1-.1 2.4 0 3.8 0m-17.9-.1c.4.2.9.1 1.4.1.7 0 1.3-.1 2-.1.6 0 1.2.1 1.7.1.3 0 .4-.1.6-.3.3-.4.5-.8.8-1.2.1-.1.1-.2.1-.3-.1 0-.2-.1-.3-.1s-.2 0-.3 0c-.4-.1-.9-.1-1.3 0-.8.1-1.5.2-2.3.2s-1.7.1-2.5-.1c-.7-.1-1.4.1-2.1-.1-.1 0-.3.1-.3.2-.3.4-.6.8-.8 1.2-.1.1-.1.2-.1.3.1 0 .2 0 .3-.1h.1c.6.2 1.3.1 2 .1h.4c0 .3.3.3.6.1m16 20.3c.1 0 .2-.1.3-.1.3 0 .6-.1.9-.1.1 0 .1-.1.1-.1 0-.5.1-1 .1-1.5 0-.1-.1-.2-.1-.2-.4 0-.8-.1-1.2 0-.6.2-1.3.2-1.9.2-1.3.1-2.6.1-3.8.1h-.1s-.1.1-.1.1v2c0 .1.2.2.3.2.3 0 .7-.2 1-.2.8-.1 1.6-.1 2.4-.2.3 0 .6-.1 1-.1.3 0 .6 0 1.1-.1m-8.4-23.3c.3-.3.5-.7.8-1 0-.1.1-.1.1-.2-.1 0-.1 0-.2 0-.4 0-.8.1-1.1.1-.4 0-.8-.1-1.2 0-.7.1-1.3.2-2 .2-.4 0-.9-.1-1.3-.1-.8 0-1.7-.1-2.5-.1-.1 0-.3 0-.3-.1-.2-.2-.3-.1-.4 0-.3.4-.6.8-.9 1.3-.1.1-.2.3-.3.4v.2c.1 0 .1-.1.2-.1h.2c2.4 0 4.7-.1 7.1-.1h1c.2 0 .4.2.5 0 .1-.1.2-.3.3-.5m10 36.4c-.8.3-1.7.5-2.5.5-.9.1-1.8 0-2.7 0-.1 0-.2-.1-.4-.1-.4-.1-.8-.1-1.2-.1 0 0-.1.1-.1.1 0 .5-.1.9-.1 1.4 0 .3.1.3.4.3h2.7c1.5 0 2.9 0 4.4-.4.2-.1.3-.1.3-.3 0-.4-.1-.8-.1-1.3-.3-.2-.3-.2-.7-.1m-3.5-36.2c1.2 0 2.5.1 3.7.1.4 0 .4 0 .4-.4s-.1-.9.1-1.3c0 0-.1-.2-.1-.1-.1 0-.2.1-.3.1s-.3.1-.4.1c-1.1 0-2.2-.1-3.3.1-.4.1-.9 0-1.3-.1-.8-.1-1.7 0-2.5 0-.1 0-.1.1-.2.1v1.6c0 .2.1.2.3.1.6-.1 1.3-.2 1.9-.2s1.1.1 1.7-.1m3.8-38.1c-.1-.2-.3-.2-.5-.2-.5 0-1 .1-1.5 0-.7-.1-1.4-.2-2.1-.2-1 0-2 .1-3-.1-.2 0-.4-.1-.6 0-.2 0-.4.1-.6.1-1 .1-2 0-3-.2-.7-.2-1.1 0-1.6.3-.1.1-.1.1 0 .2.1 0 .2.1.3.1.3 0 .6-.1.9-.1h1.6c.4 0 .6.1.8.5.1.1.2.2.3.2.6 0 1.1 0 1.7.1s1.1 0 1.7.1c1.1.1 2.2.1 3.4.1.4 0 .8-.3 1.3 0 0 0 .1-.1.1-.1.4-.1.6-.4.8-.8m-2.7-3.6c-.9.2-1.8.4-2.6.7-1.1.3-2.1.3-3.2.5-.5.1-.9.1-1.4.2s-1 .3-1.6.4c-.5 0-1 .4-1.6.2-.1 0-.2.1-.3.1v.1s.1.1.1.1c.3 0 .7 0 1-.1.4-.1.9-.3 1.4-.3.4 0 .8-.1 1.3-.1.3 0 .5-.1.7-.2.5-.1 1-.2 1.5-.3.6 0 1.2-.1 1.8-.2 1.1 0 2.1-.4 3.2-.6.7-.2 1.5-.4 2.3-.4.5 0 1 .1 1.5 0 .4-.1.9-.1 1.3-.2s.9-.1 1.4-.1c.1 0 .2.1.3 0 0 0-.1-.1-.2-.2-.1 0-.1 0-.2 0-.5 0-.9-.2-1.4-.3-.2 0-.4-.1-.7-.1-.2 0-.4.1-.6.1-.4 0-.8.1-1.2.1-.3 0-.5.1-.8.2-.7.1-1.3.3-2 .4m-4.9 86.8c.4 0 .8 0 1.3-.1s1 0 1.5-.1c1-.1 1.9-.1 2.9-.1.6 0 1.2-.1 1.8-.1h.1c.2 0 .4-.3.3-.6 0-.3-.2-.3-.4-.3-.3 0-.7.1-1 .1-.6 0-1.2-.1-1.9-.1-.5 0-1.1 0-1.6-.1s-1 .1-1.5.1c-.4-.1-.9 0-1.3-.1-.1 0-.4.3-.3.4.2.3 0 .6.1 1m12.7-72.6c-.7 0-1.4 0-2.1.1-1 .1-2 .1-2.9.1-.4 0-.8 0-1.2 0-.1 0-.2 0-.3 0s-.1.1-.2.1c.1 0 .1.1.2.1 1.1 0 2.2-.1 3.3.1.4.1.9 0 1.3 0h1.2 1.3 1.2c.4 0 .8.1 1.2 0 .6-.1 1.2-.1 1.8-.1.1 0 .2-.1.2-.2s-.1-.1-.2-.1c-.6 0-1.3-.1-1.9-.1-.9 0-1.9 0-2.9 0m-8.7 69.9c-.2 0-.4.1-.6.1-.3 0-.7-.1-1-.1-.8 0-1.5.1-2.3.1 0 0 0 0-.1 0 0 .1-.1.1-.1.2 0 .2 0 .3.2.3.7-.1 1.5 0 2.2-.1.4-.1.9 0 1.4.1 1.3.1 2.5.1 3.8-.1.1 0 .2-.2.3-.3 0-.2.1-.4-.1-.6h-.1c-.5.4-1.2.4-1.8.4-.5 0-.9-.1-1.4.1-.1 0-.2 0-.4-.1m-6-73.2c0-.4 0-.9 0-1.3v-.1c-.1 0-.1.1-.1.1 0 .1-.1.2-.1.2-.6.7-1.1 1.4-1.7 2-.2.2-.4.5-.5.7-.1.3 0 .6 0 .9s.5.7.7.6c.2 0 .3-.2.2-.3h-.1c0 .2-.2.1-.3.1 0-.1-.1-.2-.1-.4.1-.4.4-.7.6-1 .3-.5.7-1.1 1.4-1.5m-.3-1.5c.4-.4.4-.8.4-1.3 0-.1 0-.2-.1-.3-.1.1-.1.1-.2.2-.6.7-1.1 1.4-1.7 2.1-.4.4-.8.8-.6 1.4 0 .1-.1.3-.1.4 0 0 0 .1.1.1s.1 0 .2-.1c.5-.9 1.2-1.7 2-2.5m13-10.7c.2 0 .6-.1.7.2s.3.3.5.3.4.1.7.1c0 0 .1 0 .1-.1.1-.2.2-.4.2-.7 0-.2 0-.3-.2-.4-.5-.2-.9-.4-1.4-.4-.6-.1-.9.3-.8.8-.1.3 0 .2.2.2m-12.8 8.1c-.6.6-1.2 1.3-1.8 1.9-.4.4-.4 1-.4 1.5v.1s.1 0 .1-.1c.3-.4.6-.8 1-1.2.4-.5.7-1 1.1-1.4.2-.2.4-.4.4-.8 0-.1 0-.3.1-.4-.2.1-.3.2-.5.4m-1.6.7c-.3.2-.5.5-.4.9v.1s.1 0 .1-.1c.2-.2.3-.4.5-.6.5-.5 1.1-1.1 1.6-1.6.1-.1.2-.3.3-.5 0 0-.1-.2-.1-.2-.3 0-.5.1-.8.1v.1c-.1.1-.1.3-.2.4-.4.6-.7 1-1 1.4m-4.3-4.5v.4c0 .2.1.3.2.2.1 0 .3-.1.4-.1.1-.1.3-.2.4-.3.1 0 .2-.1.2-.1.1.1.1.2.2.3v.3.2c.1-.1.1-.1.2-.2.2-.3.1-.6 0-.9s-.2-.4-.5-.3c-.2 0-.4.1-.6.1-.3-.1-.4 0-.5.4m12.1 11.7c.1-.1.2-.1.4 0 .1.1.3.1.5-.1v-.2c-.5 0-.9 0-1.4 0-.5.1-1.1.1-1.6 0-.3-.1-.7 0-.9.3v.1h.2c.1 0 .2-.1.2-.1.8.2 1.7.1 2.6 0m4.3-12.1c0 .1.1.3.1.4.1-.1.2-.1.3-.2s.2-.1.3-.2c.4-.1.4-.4.4-.7s-.2-.5-.5-.3c-.4.1-.6.4-.6 1m28.6 80.3c.1 0 0 .4.2.1.2-.2.1-.4.2-.6.2-.5-.1-1.2-.5-1.5h-.1v.1c.1.2.2.3.3.5.2.4.2.7 0 1.1-.1 0-.2.1-.1.3m-40.6-76.2c.2-.2.4-.5.6-.7v-.1s0 0-.1 0c-.4 0-.8.4-.9.8 0 .1-.1.2-.1.4 0 0 0 .1.1.2 0 0 .1 0 .1-.1.1-.3.2-.4.3-.5m1.4 5.7c.1 0 .2-.1.2-.1 0-.2 0-.4-.1-.7 0 0 0-.1-.1-.1 0 0-.1 0-.1.1-.3.4-.5.7-.8 1.1v.1h.1c.4-.2.6-.3.8-.4m15.5-14.3c-.1.4-.1.8-.2 1.2v.1s.1 0 .1-.1c.4-.3.3-.8.2-1.2.1-.1.1 0-.1 0m14.1 9.9c0 .1-.1.3-.1.4v.2c.1 0 .1-.1.2-.1.2-.3.1-.7.1-1 0-.2 0-.3-.1-.5 0 .2-.1.3-.1.5-.1.1 0 .2 0 .5m-42.8 64.1h.3c.1 0 .1-.1.2-.1-.1 0-.1-.1-.2-.1-.4 0-.8 0-1.1 0-.1 0-.1 0-.2 0 .1 0 .1.1.2.1.2 0 .5 0 .8.1m15.4-57.1c.3-.1.5-.3.6-.6-.4 0-.5.2-.6.6m-.9-.2s.1 0 0 0c.1 0 .1 0 0 0-.2-.1-.4-.1-.5-.1s-.1.2-.2.2c.1 0 .2.1.2.1.2 0 .3 0 .5-.2m-17.1 57.1c-.3 0-.5 0-.8 0 0 0-.1.1-.2.1.1 0 .1.1.2.1.2-.1.5-.1.8-.2m37.5-58c-.1.1-.2.3-.2.4v.1h.1c.1-.2.2-.4.2-.6 0 .1 0 .1-.1.1m-11.3-10.3c.1.1-.2.4.1.4 0 0 .1-.2.1-.4v-.1c0-.1 0-.1-.1-.2 0 .1-.1.2-.1.3m-62.1 77.6c-.2 0-.4 0-.6 0 0 0-.1.1-.1.1s0 .1.1.1c.2 0 .4.1.6-.2m51.7-66.2c.1-.1.1-.2.2-.3-.1 0-.2 0-.3.1-.2.2-.2.3.1.2m20.7-.7c-.1.2-.2.2-.2.3 0 0 .1.1.1 0 .1-.1.2-.1.2-.2 0 0 0-.1-.1-.1m-33.6 44.5c-.1.1-.3.2-.1.3 0 0 .1.1.1.1 0-.1 0-.2 0-.3.1 0 .1 0 0-.1m24.6-54.8s.1-.1 0-.1c0 0-.1-.1-.1-.1-.1 0-.1.1-.2.2zm15.9 5.6c0-.1 0-.1 0-.2 0 0 0-.1-.1-.1.1.2-.1.3.1.3m-47.3 66.5c.1 0 .2 0 .3.1h.1s-.1-.1-.1-.1c-.1 0-.2 0-.3 0m-30.5-2c0-.1-.1-.1 0 0-.1.1-.1.2-.1.3 0 0 0 .1.1.1v-.1c0-.2 0-.2 0-.3m34.7-2.2c.1 0 .2 0 .2.1h.1s-.1-.1-.1-.1c-.1-.1-.1-.1-.2 0m.3 4.6h.2s0 0 0-.1c0 0-.1 0-.2.1m26.8-46v-.1h-.1s0 .1.1.1m-41.8 48.1h.2s0 0 0-.1c-.1.1-.1.1-.2.1m11.7-2.3h.1v-.1s-.1 0-.1.1m30.1-73.1v.1h.1s-.1-.1-.1-.1m-29.8 68.8h-.1v.1c.1-.1.1-.1.1-.1m5.7 4.6c-.1 0-.1 0-.2 0v.1c.1-.1.1-.1.2-.1m-37.6-3s.1.1 0 0c.1 0 .1 0 0 0m51.7-18.7c-.1 0-.1 0 0 0m-16.1 16.9c0 .1 0 .1 0 0"/><path d="m20.8 12.5c-.2 0-.3.1-.5.1-.6 0-1.2 0-1.8.1-1 .1-2 .1-3 .1-.5 0-.9.1-1.4.2s-1 .3-1.4.4c-.1 0-.3.1-.3.2-.1.5-.4.9-.5 1.4 0 .8-.2 1.5-.3 2.3 0 .1.1.3.1.4-.1.6.1 1.3-.1 1.9 0 .1-.1.3 0 .4.2.3.1.6.1.9s.1.6-.1.9c-.1.3 0 .6 0 1 0 .3.1.7.1 1-.1.4-.1.8-.1 1.1.1.5 0 .9-.1 1.3 0 0 0 .1.1.2 0 0 .1 0 .1-.1.2-.5.3-1 .2-1.5 0-.1-.1-.3 0-.4.1-.3.1-.6.1-.8.1-.9.1-1.9.4-2.7.2-.4.2-.9.1-1.3-.1-.5.5-1.3 1.1-1.5.2-.1.4-.1.7-.1.6-.1 1.2 0 1.7-.1.3-.1.7 0 1.1.1.3.1.6.1.8 0 .1-.1.2 0 .4 0 .4 0 .8.2 1.1.1.4-.1.8-.1 1.2-.1.7 0 1.3 0 2 .1.6.1 1.1.2 1.7.3h.3c.4-.3.6 0 .9.2.7.6.8 1.4.9 2.2 0 .3.1.6.1.9 0 .9 0 1.9-.1 2.8-.1.6 0 1.1-.1 1.7-.2 1.5 0 3-.1 4.6 0 .6-.1 1.1-.1 1.7 0 .7.1 1.5.1 2.2v1.4c0 .5.1 1.1-.2 1.5.2.3 0 .7 0 1 0 .4-.1.8-.3 1.2-.1.2-.3.3-.4.4-1.1.7-2.3.7-3.5.6-.3 0-.6-.2-.9-.3-.4-.3-.7-.3-1.1-.1-.2.1-.5.1-.7 0-.6-.1-1.1-.1-1.6 0-.4.1-.7 0-1.1-.1-.1 0-.1 0-.2 0-.8.3-1.5 0-2.3-.2-.5-.1-.9-.3-1.3-.6-.3-.3-.5-.7-.5-1.1 0-.7 0-1.5-.1-2.2-.1-.5 0-1-.1-1.5s.1-1 0-1.5c0-.3 0-.6-.2-.9-.1-.2 0-.5-.1-.7 0-.1-.1-.1-.1-.2 0 .1-.1.2-.1.2v2.4 2.2c0 .7 0 1.5-.1 2.2-.2 1.3-.1 2.5-.2 3.8-.1 1-.1 2-.1 3 0 .6.1 1.3.1 1.9 0 .8 0 1.6-.1 2.4-.1.7-.2 1.5-.3 2.2s-.1 1.4-.1 2.1c0 1.7-.1 3.4-.1 5 0 .3-.1.6-.3.8-.2.3-.3.7-.3 1v1.2c0 .3-.1.7-.1 1 0 .6 0 1.2.1 1.8.1.5 0 .9.1 1.4.1.6.1 1.2.1 1.7-.1 1.3 0 2.6-.1 3.9-.1 1 0 2-.1 2.9 0 .2-.1.4-.1.6s.1.3 0 .5c-.1.1 0 .3 0 .4-.1.7-.1 1.4-.1 2.1 0 1 0 2-.2 3v.4 2.1c0 .6-.1 1.3-.2 1.9-.1.4-.4.6-.8.5-.2-.1-.4-.2-.3-.5.1-.4.2-.9.2-1.3 0-.1 0-.1 0-.2 0-1.1 0-2.3.1-3.4.1-.7 0-1.3.1-2 .1-1.1.1-2.2.2-3.3.1-.8.1-1.7.1-2.5 0-1.5 0-2.9.1-4.4.1-.8.1-1.6.1-2.4 0-.7 0-1.4-.1-2-.2-.9-.1-1.8-.1-2.7.1-.8 0-1.7.1-2.5 0-.5.2-1 .3-1.5 0-.2.1-.3.1-.5 0-1.6 0-3.2.1-4.8 0-.7.2-1.4.3-2.1.1-.5.1-.9.1-1.4 0-.9.2-1.7.1-2.6 0-1-.1-2 0-2.9.1-1.1 0-2.3.1-3.4.1-1 .2-1.9.2-2.9 0-.5 0-1.1.1-1.6 0-.3-.1-.6.1-.9-.2-.3-.1-.5 0-.8 0-.2-.1-.4-.1-.6 0-.9 0-1.8.1-2.7.2-1.3.2-2.5.2-3.8 0-.2.1-.4.1-.7s0-.6 0-.9c0-.2-.1-.4-.1-.7 0-2 0-4 0-6.1 0-.7 0-1.4.2-2.1.1-.4.1-.8.1-1.2.1-.3.2-.6.3-1 0-.1.1-.1.1-.2.1-.7.7-.8 1.2-.9.2-.1.5-.1.7-.2s.4-.1.7 0c.2.1.4.2.7 0h.3c.9 0 1.9-.1 2.8-.3.2-.1.5 0 .8 0 1 0 2.1-.1 3.1-.2h.3 4.9c.6 0 1.1-.2 1.7-.1s1.2.1 1.7.1c.9 0 1.7 0 2.6-.1.6-.1 1.3 0 1.9-.1 2.1-.2 4.2 0 6.3-.1.6-.2 1.2 0 1.8-.2h.4 2.4c1 0 2 0 3 .1.7.1 1.3 0 2 .1.2 0 .4.1.6.1.3 0 .7 0 1-.1.4-.1.8 0 1.2.1 0 0 .1.1.1.1 0 .1 0 .2-.1.2-.3.1-.6.3-1 .3-.5 0-1 .1-1.4.1-1-.1-2 0-3-.1-.8-.1-1.6-.1-2.4-.1-1.1.1-2.2 0-3.3.1-.9.1-1.8.2-2.8.2-.4 0-.9-.2-1.3-.1s-.7.1-1.1.1c-.7-.1-1.4-.1-2.1-.1-3.8.2-7.7 0-11.5.1-1 .1-1.8.1-2.8.1m-8.4 15.3c0 1.8-.1 3.5.2 5.3.1.7 0 1.4.1 2.1.1.5 0 1 .1 1.5.1.7.1 1.4.1 2.2 0 .4.2.6.6.7.2 0 .4.1.6.2.5.2.9.3 1.4.1h.4c.2 0 .4.1.7.1.5 0 .9-.1 1.4-.1.4 0 .8.1 1.2.1s.8-.1 1.1-.1c.5 0 1 0 1.5-.2.4-.2 1-.2 1.3-.6h.2c.1 0 .1.2.1.2-.1.2-.1.4-.4.5s-.6.2-.9.3c-.1-.1-.1-.1-.2-.1h.1c.8.1 1.4-.4 2-.7.3-.1.3-.2.3.1v.1s.1 0 .1-.1c.1-.3.3-.5.4-.8.1-.4 0-.8.2-1.2 0-1.1 0-2.3.1-3.4.1-.5 0-1.1-.1-1.6-.1-.4.1-.8.1-1.3 0-1.1.1-2.3.1-3.4 0-.8 0-1.5.1-2.3.1-1.1.1-2.3.2-3.4.1-.7 0-1.4-.1-2.1 0-.2-.1-.4-.2-.7-.1-.2-.3-.3-.5-.3-.4 0-.8 0-1.2-.1-.7-.2-1.3-.2-2-.2-.1 0-.3 0-.4 0-.4-.2-.8-.1-1.2 0-.2.1-.5.1-.7 0-.3-.1-.7-.1-1 0s-.7 0-1-.1c-.4-.1-.8-.2-1.2-.1-.5.1-1.1.1-1.6 0-.3-.1-.4 0-.5.3 0 .1-.1.2-.2.2-.4.2-.6.6-.7 1-.1.3 0 .7-.2 1-.2.6-.3 1.2-.4 1.8-.1.8-.1 1.7-.1 2.6 0 .2.1.4.1.5 0 .7 0 1.3 0 2m-.9 2.9c0-.1.1-.2.1-.3h-.1c0 .1-.1.2-.1.3 0-.1 0 0 .1 0"/><path d="m74.1 40s-.1-.1-.1-.1h.1z"/><path d="m46.8 174.1c.1-.1.1-.1 0 0 .1 0 .1 0 0 0z"/><path d="m25.7 174.7c-.1 0-.1 0 0 0z"/><path d="m35.5 63.8c-.1-.1-.2-.1-.3-.1h.1c.1-.1.3-.2.2.1z"/><path d="m13.9 27.8c0-1 .3-1.8 1-2.5.2-.2.5-.3.2-.6-.1-.1.2-.3.4-.2.3.2.5.1.7-.1.6-.4 1.3-.5 2.1-.6.5-.1.9-.1 1.4-.1.9.1 1.8.4 2.6.8s1.5.9 1.9 1.8c.1.3.3.6.3 1s.1.8.2 1.2c0 .2.1.4 0 .7-.1.7-.3 1.5-.6 2.1-.1.4-.4.7-.6 1 0 .1-.1.1-.1.2.1.4-.1.4-.4.4-.1 0-.2 0-.3.1-.4.4-1 .6-1.5.8-1 .4-2 .4-3.1.3-.6 0-1.2-.3-1.7-.6-.6-.2-1.1-.7-1.6-1.1-.3-.3-.5-.7-.6-1.2-.2-.9-.4-1.8-.3-2.8-.1-.1-.1-.3 0-.6m1.8 3.1c.2.3.5.7.7 1 .4.6 1 1 1.7 1 .7.1 1.4.1 2.1-.1.2 0 .3-.1.5-.1.5 0 .9-.3 1.2-.5.1-.1.1-.1 0-.2-.5-.5-1-1-1.4-1.5-.1-.1-.3-.3-.4-.3-.4 0-.9-.1-1.3 0-.8.2-1.6.1-2.5.2-.5 0-1.1-.5-1-1 0-.2.1-.2.2-.2.5-.1 1-.1 1.5-.2.2-.1.3.1.3.2-.2.3 0 .2.1.2.4-.1.8-.2 1.3-.2.1 0 .1-.1.2-.1 0-.1-.1-.1-.1-.2-.1-.1-.3-.3-.4-.4-.7-.7-1.3-1.5-2-2.2-.3-.3-.5-.3-.7.1-.1.2-.2.5-.4.8-.4.6-.3 1.2-.4 1.9 0 .1.1.3.1.4 0 .3.3.8.7 1.4m7.7-1.6c0-.1.1-.2.1-.2-.1-.6.2-1.2 0-1.9-.3-1.2-.9-2-2.1-2.2-.4-.1-.8-.2-1.2-.3-.3-.1-.7-.1-1-.1-.4 0-.7.2-1 .2-.6 0-1.1.3-1.6.5-.2.1-.2.1-.1.3l.3.3c.5.5 1 .9 1.4 1.4.5.6.9 1.2 1.7 1.5.3.1.7.2 1 .1.7-.1 1 .1 1.1.7.1.4-.1.6-.6.5-.2 0-.3 0-.5.1l.3.3c.1 0 .1.1.2.2.3.4.6.7 1 1.1.1.1.3.2.3.2l.4-.4c0-1 .3-1.6.3-2.3m-8.3 2.3c.1.2.3.3.4.5.2.5.7.8 1.2 1 .2.1.5.1.7.2.1 0 .2.3.3 0 .1-.2-.2-.1-.3-.2-.6-.2-1.1-.4-1.5-.9-.3-.5-.7-.9-1-1.4-.1-.1-.1-.2-.2-.3 0 .1-.1.3 0 .4.1.3.3.5.4.7m1.9-2.1c0 .1-.2.2 0 .2.6 0 1.2-.1 1.8-.1h.1s.1-.1.1-.1v-.1c-.1 0-.2 0-.3 0-.6 0-1.1 0-1.7.1m4.1-.1h.2c.1 0 .1 0 .2-.1-.1 0-.1-.1-.2-.1s-.2.1-.2.2m-5.1.3c0 .2.1.2.2.1.1 0 .1-.1.2-.1-.1 0-.2 0-.3-.1.1.1 0 .1-.1.1z"/><path d="m23.1 27c-.3.4-.6.8-.9 1.1-.2.2-.4.2-.7.3 0 0-.1-.2-.1-.3 0 0 .1-.1.2-.1.1-.1.3-.3.2-.5s-.2-.4-.4-.3c-.1 0-.2 0-.3 0-.4.1-.4.1-.6-.3-.1-.2-.3-.4-.5-.5 0 0-.1 0-.2-.1 0 .1-.1.2 0 .2.3.3.6.6.8.9 0 0 .1 0 .1.1.1.1.3.3.2.4-.2.2-.3 0-.4-.1-.2-.2-.4-.3-.6-.5-.4-.4-.7-.8-.7-1.4 0-.1-.1-.2-.1-.3s0-.1 0-.2c.1 0 .2-.1.3 0 .2.2.5.4.7.6 0 0 .1.1.2.1 0-.1 0-.1 0-.2 0-.2 0-.3 0-.5s.1-.3.4-.3c.2 0 .3.1.2.4-.1.5 0 1.1.5 1.3.1 0 .2.1.2.1.3 0 .6.1.7.4s.2.2.4.1c.5-.4.4-1.1-.2-1.4-.2-.1-.4-.3-.6-.5v-.1h.1.1c.3.2.5.4.8.6.2.1.2.5.2 1z"/></g></svg>