<?xml version="1.0" encoding="utf-8"?>
<!-- Generator: Adobe Illustrator 26.2.1, SVG Export Plug-In . SVG Version: 6.00 Build 0)  -->
<svg version="1.1" id="Layer_1" xmlns="http://www.w3.org/2000/svg" xmlns:xlink="http://www.w3.org/1999/xlink" x="0px" y="0px"
	 viewBox="0 0 184.8 233.5" style="enable-background:new 0 0 184.8 233.5;" xml:space="preserve">
<style type="text/css">
	.st0{fill:#0053E7;}
</style>
<g>
	<path class="st0" d="M176.8,27.7c0,0.1-0.1,0.2-0.1,0.2c0-0.1-0.1-0.2-0.1-0.2c0.1-0.1,0.2-0.2,0.2-0.3c0,0,0.1,0.1,0.1,0.1
		C176.9,27.5,176.8,27.6,176.8,27.7z"/>
	<path class="st0" d="M150.4,1.3c-0.2-0.2,0-0.3,0.2-0.4c0,0,0.1,0,0.1,0.1c0,0,0,0.1-0.1,0.1C150.6,1.1,150.5,1.2,150.4,1.3z"/>
	<path class="st0" d="M172.9,0c0.1,0,0.2,0.1,0.2,0.1c0,0-0.1,0.1-0.1,0.1C173,0.2,172.9,0.1,172.9,0z"/>
	<g>
		<path class="st0" d="M102.7,165.7c0,0.4-0.1,0.6-0.6,0.7c-0.8,0.2-1.5,0.4-2.2,0.6c-0.6,0.2-1.2,0.3-1.8,0.5
			c-0.2,0.1-0.5,0.1-0.5,0.4c0.1,0.3,0.2,0.5,0.5,0.5c0.4,0,0.7,0.2,1.2,0.1c0.3-0.1,0.8,0.1,1.1,0.2c0.7,0.2,1.3,0.4,2,0.6
			c0.6,0.2,1.1,0.4,1.5,0.9c0.2,0.2,0.2,0.6,0,0.8c-0.1,0.2-0.1,0.2-0.1,0.4c0.1,0.4,0.1,0.9,0.1,1.3c0,1.8-0.2,3.7-0.1,5.5
			c0,0.3-0.1,0.5-0.2,0.8c0,0.1,0,0.2,0,0.3c0.2,0.6,0.1,1.1,0.1,1.7c0,1.2,0,2.5,0,3.7c0,0.9,0.1,1.8,0.2,2.7
			c0,0.2,0.1,0.3,0.2,0.4c0.3,0.1,0.4,0.4,0.4,0.6c0.1,0.7,0.1,1.5,0.2,2.2c0,0.1,0,0.1,0,0.2c0-0.1,0.1-0.1,0.1-0.2
			c0.4-0.6,0-1.2,0-1.8c0-0.7-0.2-1.4-0.3-2.1c-0.1-0.5-0.1-0.9-0.2-1.4c0-0.1,0-0.1,0-0.2c0-0.9,0-1.8,0-2.7c0-0.8,0.1-1.7-0.1-2.5
			c-0.1-0.8,0-1.5,0-2.3c0-0.4,0.1-0.8-0.1-1.2c-0.1-0.1,0-0.3,0-0.4c0.2-0.3,0.2-0.7,0.2-1c0-1.3,0.2-2.7,0-4
			c0.3-2.1,0.2-4.3,0.4-6.5c0.1-1.1,0.2-2.1,0.2-3.2c0-0.9,0.1-1.8-0.1-2.7c-0.1-0.6,0-1.1-0.1-1.6c-0.2-1.3,0.1-2.5,0-3.8
			c0-0.6-0.1-1.2-0.1-1.8c0-0.1,0-0.3-0.1-0.4c-0.3-0.4-0.3-0.8-0.4-1.3c-0.1-0.5-0.1-0.9-0.7-1.1c-0.8-0.3-1.6-0.7-2.4-1.1
			c-1-0.6-2-1.3-2.9-1.9c-0.2-0.1-0.5-0.2-0.7-0.4c-0.1-0.1-0.2-0.2-0.2-0.3c0,0,0.1-0.2,0.2-0.2c0.8-0.4,1.5-0.7,2.4-0.9
			c0.1,0,0.3-0.1,0.4,0c0.4,0,0.3,0.1,0.3-0.3c-0.1-0.6-0.3-1.3-0.2-1.9c0-0.2,0.1-0.4,0.3-0.5c0.2-0.1,0.5,0.1,0.5,0.5
			c0.1,0.8,0.1,1.6,0.2,2.4c0,0.1,0.1,0.2,0.1,0.3c0.5,0.6,1.1,0.7,1.8,0.6c0.1,0,0.2-0.1,0.2-0.2c0-0.7,0-1.4-0.1-2.2
			c0-0.1-0.1-0.2-0.1-0.2c-0.5-0.1-0.7-0.7-1.3-0.8c-0.3,0-0.4-0.2-0.6-0.4c0,0-0.1-0.2-0.1-0.2c0-0.1,0.1-0.1,0.2-0.1
			c0.2,0,0.5,0,0.7,0.1c0.3,0.1,0.4,0.1,0.4-0.3c-0.1-0.8-0.2-1.5-0.3-2.3c0,0,0-0.1,0-0.1c0-1.2,0-2.5,0-3.7
			c0-7.9,0.5-15.8,0.7-23.7c0-1.3,0.1-2.6,0-3.8c-0.1-1.1,0.1-2.2,0-3.2c-0.1-1,0-2,0-3c-0.1-1.1-0.1-2.1-0.2-3.2c0-0.7,0-1.4,0-2.2
			c0-1.1-0.1-2.2-0.1-3.3c0-0.9,0-1.8-0.2-2.6c-0.1-0.5,0-1-0.1-1.5c-0.1-0.7,0.1-1.4-0.2-2.1c0,0,0-0.1,0-0.1c0-0.9,0-1.9,0-2.8
			c0-1,0-2,0-3c-0.1-1.1-0.1-2.1-0.2-3.2c-0.1-1,0.1-1.9,0-2.8c-0.1-1.2-0.1-2.4-0.2-3.7c-0.1-1.3,0.1-2.6,0-3.9
			c0-0.3,0.1-0.6-0.1-0.9c0,0,0,0,0-0.1c0.3-0.6,0-1.2,0.1-1.7c0.1-0.5,0-1,0.1-1.6c0.1-0.9,0.1-1.8,0.2-2.6
			c0.2-0.9,0.2-1.8,0.4-2.6c0.3-1.6,0.3-3.1,0.2-4.7c0-1.2,0.1-2.4,0-3.6c-0.1-1.3,0.1-2.7,0-4c0-0.3-0.1-0.7-0.1-1
			c0-0.3,0-0.6-0.1-1c0-0.5-0.1-1.1,0.1-1.6c0.1-0.2,0.1-0.4,0-0.6c-0.2-0.6,0-1.2-0.1-1.8c0-0.1,0.1-0.2,0.1-0.3
			c0.3-0.5,0.2-1.1,0.2-1.7c0-0.2-0.1-0.4,0-0.6c0,0,0-0.1,0-0.2c0,0-0.1,0-0.2,0c-0.3,0.1-0.4,0.4-0.5,0.7c-0.1,0.4,0,0.9-0.2,1.3
			c-0.1,0.1,0.1,0.3,0.1,0.5c0.2,0.6,0.2,1.1-0.2,1.6c-0.1,0.1-0.1,0.2-0.1,0.4c-0.1,0.4-0.1,0.4-0.6,0.5c-0.2,0-0.5,0.2-0.6,0.4
			c-0.8,0.8-1.3,1.2-2.7,0.8c-1-0.3-2-0.7-2.9-1.2c-0.2-0.1-0.5-0.2-0.7-0.4c-1-0.7-0.9-1.8-0.4-2.8c0.1-0.2,0.1-0.5,0.2-0.8
			c0.1-0.7-0.1-1.4,0.3-2c0.1-0.1,0.1-0.2,0.2-0.2c0.3-0.1,0.3-0.6,0.1-0.8c-0.4-0.4-0.6-0.8-0.8-1.3c0-0.1-0.1-0.3-0.2-0.4
			c-0.5-0.5-0.3-1-0.2-1.5c0-0.1,0-0.2,0-0.3c-0.1,0-0.1,0.1-0.2,0.1c-0.1,0.1-0.1,0.2-0.2,0.2c0,0-0.1,0-0.2,0c0,0,0-0.1,0-0.2
			c0.5-0.9,0.5-0.9,0.6-1.9c0-0.3,0.1-0.7,0.3-0.9c0.2-0.3,0.3-0.5,0.3-0.8c0-0.7,0.3-0.9,1-1c0.8-0.1,1.6-0.1,2.4-0.3
			c0.4-0.1,1-0.1,1.5,0.1c0.3,0.1,0.5,0.2,0.8,0.3c0.5,0.1,0.7,0.4,0.7,0.8c0,0.2,0,0.3,0.3,0.2c0.3-0.2,0.5,0,0.6,0.3
			c0.2,0.6,0.3,1.3,0.3,2c0,0.6-0.1,1.2,0.1,1.8c0.1,0.2,0.1,0.3,0.3,0.4c0.5,0.1,0.9,0.3,1.4,0.4c0.1,0,0.3,0.3,0.4,0.1
			c0.1-0.2,0.4-0.4,0.2-0.7c-0.3-0.8-0.3-1.6-0.2-2.4c0.1-0.6,0.2-1.2,0-1.8c-0.3-0.9,0.4-1.8,1.4-1.9c0.6-0.1,1.1-0.1,1.7-0.1
			c0.8,0.1,1.6,0.2,2.4,0.3c0.1,0,0.3,0.1,0.3,0.2c0.2,0.3,0.5,0.4,0.8,0.4c0.3,0,0.4,0.4,0.4,0.6c-0.1,0.7,0.1,1.4,0.3,2.1
			c0.1,0.3,0.2,0.5,0.3,0.8c0.1,0.3,0.3,0.7,0.3,1c0.1,0.3-0.1,0.6-0.4,0.8c-0.1,0.1-0.2,0.2-0.3,0.3c-0.1,0.5-0.4,0.7-0.9,0.8
			c-0.1,0-0.1,0.1-0.1,0.2c0,0,0.1,0.1,0.1,0.1c0.3,0,0.5,0,0.8,0c0.5,0,0.7,0.2,0.8,0.7c0.1,0.7,0.2,1.4,0.2,2.1
			c0,0.6,0.2,1.1,0.4,1.6c0.1,0.4,0.3,0.9,0.4,1.3c0.1,0.2,0,0.3-0.2,0.2c-0.4-0.1-0.5,0.1-0.6,0.4c-0.2,1.1-1.1,1.3-1.9,1.5
			c-1.1,0.3-2.1-0.1-3.1-0.5c-0.2-0.1-0.5-0.2-0.7-0.3c-0.7-0.3-1.1-0.7-1.3-1.5c0-0.1-0.1-0.3-0.2-0.4c-0.4-0.8-0.5-1.6-0.5-2.5
			c0-0.3,0-0.7-0.1-1c0-0.1-0.1-0.2-0.2-0.2c0,0.1-0.2,0.3-0.1,0.3c0.2,0.3,0.2,0.6,0.1,0.9c0,0.1-0.1,0.4,0,0.5
			c0.4,0.5,0.2,1,0.2,1.5c0,0.5,0.1,1.1,0.2,1.6c0,0.2,0,0.3,0,0.5c0,0.3-0.2,0.6-0.1,0.9c0.1,0.3,0.1,0.6,0.1,0.9
			c0,0.8,0,1.7,0.3,2.5c0.1,0.3,0.1,0.7,0.1,1c0,0.9,0,1.7,0.1,2.6c0.1,1.2-0.1,2.5,0,3.7c0.1,1.1,0,2.3,0,3.4
			c0,0.2,0.1,0.5,0.1,0.7c-0.1,0.6-0.2,1.2-0.3,1.8c0,0.1-0.1,0.3-0.1,0.4c0.1,1,0.2,2.1,0.1,3.1c0,0.3,0.1,0.4,0.4,0.5
			c0.8,0.2,0.9,0.3,0.9,1.2c0,1,0,2,0.1,3c0,0.2-0.1,0.5-0.2,0.6c-0.4,0.3-0.5,0.5-0.5,0.9c0.1,0.5,0.2,1.1,0.2,1.6
			c0,0.9,0,1.8,0.1,2.7c0.1,0.6,0,1.3,0,1.9c0,0.9-0.1,1.8,0.1,2.6c0.2,1.1-0.1,2.3,0,3.4c0.1,0.7,0,1.5,0.2,2.3c0,0.2,0,0.4,0,0.5
			c0,0.9,0,1.7,0.2,2.6c0,0.1,0,0.2,0,0.3c0,0.8,0,1.7,0.2,2.5c0.1,0.6,0.1,1.1,0.1,1.7c0.1,1,0.1,2,0.2,3c0.1,0.4,0.1,0.8,0.1,1.2
			c0,0.9,0,1.7,0.1,2.6c0.1,0.6,0,1.1,0.1,1.6c0,0.4,0.1,0.8,0.1,1.2c0,0.4-0.1,0.8,0.1,1.2c0.1,0.1,0,0.3,0,0.5
			c0,1.3-0.1,2.6,0,3.8c0,0.6,0,1.1,0.1,1.7c0.1,1,0,1.9,0,2.9c0,0.6,0,1.1,0.1,1.7c0.1,1.1,0.1,2.2,0.2,3.3c0,0.6,0,1.2,0,1.8
			c0.1,0.9,0,1.8,0,2.6c0.1,0.9,0.2,1.9,0.2,2.8c0,1.2,0,2.4,0.1,3.5c0.1,0.8,0.1,1.7,0.2,2.5c0,0.8,0.1,1.7,0.2,2.5
			c0.1,0.9,0.1,1.7,0.2,2.6c0.1,0.8-0.1,1.7,0.1,2.5c0,0.1,0,0.3,0,0.5c-0.1,1,0,1.9,0.2,2.9c0,0.3,0.1,0.1,0.2,0
			c0.6-0.1,1.1,0.2,1.7,0.3c0.3,0.1,0.6,0.2,1,0.2c0.7-0.1,1.3,0,2-0.1c0.9-0.1,1.8-0.1,2.7-0.5c0.5-0.2,1-0.2,1.6-0.3
			c0.4-0.1,0.8-0.2,1.2-0.2c0,0,0.1,0,0.1,0c0.7-0.6,1.7-0.4,2.5-0.7c0.8-0.2,1.6-0.3,2.3-0.5c0.1,0,0.3-0.2,0.3-0.3
			c0.1-0.6,0.4-1,0.8-1.4c0.2-0.1,0.3-0.4,0.4-0.5c0,0,0-0.1,0-0.2c0,0-0.1,0-0.1,0.1c-0.2,0.1-0.3,0.3-0.5,0.5
			c-0.1,0.1-0.2,0.2-0.3,0.2c-0.1,0-0.2,0-0.3-0.1c0-0.1,0-0.2,0.1-0.2c0.5-0.4,0.9-0.8,1.4-1.2c0.3-0.2,0.6-0.5,0.8-0.8
			c1.1-1,2.4-1.6,3.7-2.1c1.1-0.4,2.2-0.9,3.4-1.1c0.6-0.1,1.2-0.2,1.7-0.3c0.9-0.1,1.8,0,2.7-0.2c1-0.2,2-0.2,3.1-0.1
			c1.1,0.1,2.1,0.4,3.1,0.7c0.1,0,0.1,0.1,0.2,0.2c-0.1,0-0.1,0.1-0.2,0c-0.5-0.1-1-0.1-1.5-0.2c-0.5-0.2-1.1-0.2-1.6-0.3
			c-1-0.1-1.9,0-2.9,0c-0.8,0-1.6,0.1-2.5,0.2c-1.6,0.1-3.1,0.6-4.6,1.2c-0.5,0.2-0.9,0.5-1.4,0.7c0,0,0,0.1,0,0.1c0,0,0.1,0,0.1,0
			c0.3-0.1,0.6-0.3,0.9-0.4c1.3-0.6,2.6-1,4-1.2c0.8-0.1,1.6-0.2,2.4-0.2c1,0,1.9,0,2.9,0c0.9,0,1.8,0.1,2.7,0.2
			c0.6,0.1,1.2,0.2,1.8,0.2c0.4,0,0.8,0.2,1.1,0.4c0.2,0.1,0.4,0.2,0.5,0.4c0.2,0.2,0.4,0.2,0.6,0.2c0.1,0,0.2-0.1,0.2,0
			c0.2,0.2,0.3,0.2,0.7,0.1c0.6-0.2,1.3-0.3,1.9-0.4c0.7,0,1.4-0.2,2-0.5c0.3-0.1,0.5-0.1,0.8-0.3c0.2-0.1,0.5-0.3,0.7-0.5
			c0,0,0-0.2-0.1-0.2c-0.1,0-0.2-0.1-0.4,0c-1.1,0.3-2.1,0.6-3.2,0.9c-0.6,0.2-1.3,0.3-1.9,0.4c-0.1,0-0.3-0.1-0.3-0.2
			c-0.1-0.2,0.1-0.2,0.2-0.3c0.4-0.5,1.1-0.4,1.6-0.7c1,0.2,1.8-0.3,2.8-0.4c0.4-0.1,0.9-0.1,1.3-0.1c0.3,0,0.4-0.1,0.6-0.3
			c0.9-1,1.8-1.9,2.9-2.6c0.6-0.4,1.3-0.5,2-0.8c0,0,0.1,0,0.1,0c0.6,0.4,1.1,0,1.7,0.1c0.4,0.1,0.9,0.1,1.3,0.2
			c0.1,0,0.3,0.1,0.4,0.2c0,0,0,0.2,0,0.3c0,0-0.2,0.1-0.2,0c-0.3-0.3-0.8-0.3-1.2-0.3c-0.9,0-1.8-0.1-2.7,0.3
			c-1.1,0.4-2,0.9-2.7,1.8c-0.5,0.6-1.1,1.2-1.6,1.7c-0.1,0.2-0.3,0.3-0.4,0.5c-0.1,0.2-0.3,0.5,0.2,0.6c0.4,0.1,0.4,0.5,0.5,0.8
			c0.1,0.7,0.2,1.3,0.6,1.8c0.1,0.1,0.1,0.3,0.1,0.4c0,0.1,0,0.1-0.1,0.2c0,0-0.1,0-0.2,0c-0.4-0.4-0.8-1-0.9-1.6
			c-0.1-0.3-0.1-0.6-0.1-0.9c0-0.3-0.2-0.6-0.5-0.7c-0.1,0-0.3,0-0.4,0c-0.1,0.1-0.1,0.3,0,0.4c0.3,0.3,0.3,0.7,0.3,1.1
			c-0.1,0.7,0.2,1.3,0.4,1.9c0.2,0.5,0.2,0.5,0.7,0.3c1-0.3,2.1-0.7,3.1-0.9c0.9-0.2,1.8-0.4,2.7-0.5c0.5-0.1,1-0.2,1.4-0.2
			c0.2,0,0.3,0.1,0.5,0.1c0.2,0.1,0.2,0.2,0,0.3c-0.3,0.1-0.7,0.2-1,0.2c-1.4,0.1-2.8,0.4-4.2,0.8c-0.8,0.2-1.6,0.5-2.4,0.8
			c-0.1,0-0.2,0.1-0.3,0.1c-0.2,0.5-0.7,0.5-1.1,0.7c-0.3,0.1-0.5,0.3-0.8,0.4c-0.4,0.1-0.7,0.3-1.1,0.1c-0.9-0.3-1.7-0.2-2.6,0
			c-0.7,0.2-1.5,0.3-2.2,0.4c-0.7,0.1-1.3,0.3-2,0.4c-1.6,0.3-3.2,0.8-4.7,1.2c-0.6,0.2-1.2,0.1-1.8,0.2c-0.7,0.1-1.5,0.3-2.2,0.5
			c-1.6,0.4-3.2,1-4.9,1.4c-0.8,0.2-1.5,0.3-2.3,0.5c-0.3,0.1-0.6,0.2-0.8,0.2c-0.1,0-0.1,0.1-0.1,0.1c-0.2,0.7-0.9,0.6-1.4,0.9
			c-0.3,0.2-0.8,0.1-1.2,0.1c-0.1,0-0.1-0.1-0.2-0.1c0.1,0,0.1-0.1,0.2-0.1c0.6,0,1.1-0.2,1.6-0.3c0.4-0.1,0.3-0.2,0.1-0.4
			c-0.4-0.5-0.5-1.1-0.6-1.8c0-0.5-0.1-1.1-0.2-1.6c0-0.2-0.2-0.4-0.5-0.5c-0.3-0.1-0.4-0.4-0.9-0.2c-0.9,0.3-1.9,0.4-2.9,0.6
			c-0.6,0.1-0.7,0.4-0.6,0.9c0,0.2,0,0.3,0.1,0.5c0.1,0.7,0.2,1.4,0.3,2.1c0,0.1,0,0.2,0,0.3c0,0.6,0.2,0.8,0.8,0.6
			c0.2-0.1,0.6-0.2,0.6,0c0.1,0.3-0.4,0.2-0.5,0.3c-0.3,0.1-0.4,0.2-0.6,0.5c-0.4,0.6-1.1,0.8-1.8,0.9c-0.5,0.1-1,0.1-1.6,0.3
			c-0.4,0.1-0.8,0.2-1.2-0.2c-0.1-0.1-0.3-0.1-0.4-0.1c-0.7,0.2-1.4,0.4-2.1,0.5c0,0-0.1,0-0.1,0c-0.2,0-0.3-0.1-0.5-0.1
			c0.1-0.2,0.3-0.4,0.4-0.4c0.4-0.2,0.8-0.2,1.3-0.4c0.1,0,0.3-0.2,0.4-0.3c0-0.2,0-0.4,0.4-0.4c0,0,0.1-0.1,0.1-0.2
			c0-0.8,0.1-1.6-0.1-2.4c-0.1-0.3-0.2-0.6,0-1c0.1-0.2-0.1-0.2-0.2-0.2c-0.5,0.1-1.1,0.2-1.6,0.2c-0.5,0-0.9,0.4-1.5,0.3
			c-0.1,0-0.3,0.2-0.3,0.3c-0.1,0.6-0.2,1.1-0.2,1.7c-0.1,0.7,0.1,1.3,0.3,1.9c0,0.1,0.1,0.2,0.1,0.3c0,0.1,0,0.1-0.1,0.2
			c0,0-0.1,0-0.1-0.1c-0.2-0.2-0.3-0.5-0.5-0.7c-0.1-0.2-0.2-0.5-0.4-0.7c-0.4-0.7-0.8-1.5-0.7-2.4c0-0.1-0.1-0.2-0.1-0.4
			c0-0.1,0.1-0.2,0.1-0.3c0.1,0.1,0.4,0.1,0.4,0.2c0.1,0.3,0.1,0.5,0.1,0.8c0,0.4,0.1,0.8,0.1,1.2c0,0.1,0.1,0.2,0.2,0.2
			c0-0.1,0.1-0.2,0.1-0.2c0-0.4,0-0.9,0.2-1.3c0.2-0.6-0.1-1-0.7-1.2c-0.6-0.2-1.2-0.3-1.8-0.5c-0.3-0.1-0.2,0-0.1,0.2
			c0.2,0.8,0.3,1.6,0.5,2.3c0.1,0.5,0.2,0.7,0.7,0.7c0.3,0,0.4,0.1,0.5,0.4c0.1,0.3,0.2,0.6,0.2,1c0,0.6-0.2,1.2,0.2,1.8
			c0,0,0,0.2,0,0.2c-0.2,0.1-0.5,0.4-0.7,0.4c-0.9,0-1.7,0.3-2.5,0.4c-0.6,0.1-1.2,0.1-1.8,0.3c-0.8,0.2-1.5,0.1-2.3,0.4
			c-0.4,0.1-0.9,0.1-1.4,0c-0.5-0.1-1-0.4-1.4-0.6c-0.1,0-0.3-0.1-0.3-0.2c-0.1-0.5-0.4-0.4-0.7-0.3c-0.2,0.1-0.5,0.1-0.8,0.1
			c-0.1,0-0.2,0.1-0.2,0.2c0,0,0.1,0.1,0.1,0.2c1,0.6,2,1.3,3,1.9c1,0.5,2,0.9,3.1,1.3c0.2,0.1,0.4,0,0.6-0.1
			c1.1-0.3,2.2-0.7,3.2-1.1c1.1-0.3,2.3-0.6,3.4-0.8c0.5-0.1,1,0,1.5-0.1c0.4,0,0.9-0.1,1.3-0.2c0,0,0.1,0,0.1-0.1
			c-0.1,0-0.1-0.1-0.2-0.1c-0.3-0.2-0.6-0.4-0.9-0.5c-0.8-0.5-1.7-0.9-2.5-1.3c-0.1-0.1-0.2-0.2-0.3-0.3c-0.1-0.1,0-0.3,0.2-0.3
			c0.5,0,1,0,1.4,0.3c1,0.6,2.1,1.2,3.1,1.9c0,0,0.1,0,0.1,0c0.1,0.2,0.3,0.4,0.3,0.7c0,0.1-0.3,0.2-0.5,0.3c-0.1,0-0.1,0-0.2,0.1
			c0.1,0,0.1,0,0.2,0.1c0.1,0.1,0.3,0.1,0.4,0.2c0.2,0.2,0.4,0.4,0.1,0.7c-0.2,0.3-0.2,0.6-0.1,0.9c0.3,0.6,0.2,1.2,0.3,1.8
			c0.1,0.6,0.2,1.2,0.3,1.9c0.1,0.4,0.1,0.8,0.1,1.2c0,0.2,0.1,0.2,0.2,0.1c1.2-0.4,2.5-0.8,3.7-1.2c2.9-0.9,5.7-1.7,8.6-2.5
			c1.8-0.5,3.6-1,5.4-1.5c1.2-0.3,2.3-0.7,3.5-1c1.8-0.5,3.5-1.1,5.3-1.5c2.3-0.6,4.7-1,7-1.5c2-0.5,4-0.8,6-1.5
			c1-0.3,2.1-0.5,3.2-0.7c0.1,0,0.3,0,0.5,0c0.1,0.1,0.2,0.2,0.3,0.3c-0.1,0.1-0.2,0.2-0.3,0.2c-1,0.2-2,0.5-3,0.7
			c-0.8,0.2-1.6,0.5-2.4,0.7c-1.2,0.3-2.4,0.6-3.5,0.8c-1.6,0.3-3.1,0.6-4.7,1c-1,0.3-2.1,0.4-3.1,0.7c-1.4,0.4-2.8,0.8-4.1,1.1
			c-2.2,0.6-4.4,1.2-6.5,1.8c-2.4,0.7-4.8,1.3-7.2,2c-2,0.6-4.1,1.1-6,1.9c-0.7,0.3-1.5,0.4-2.2,0.6c-0.4,0.1-0.5,0.2-0.4,0.5
			c0.1,0.6,0,1.1,0.2,1.7c0.1,0.4,0.1,0.8,0.1,1.2c0,0.9,0.2,1.8,0.4,2.8c0.2,0.8,0.2,1.6,0.3,2.3c0.1,0.5,0.2,1,0.3,1.5
			c0,0.1,0.1,0.2,0.2,0.2c0.3-0.1,0.6-0.2,1-0.2c0.5-0.1,0.9,0.1,1.4,0.2c0.1,0,0.3,0.1,0.4,0c1.4-0.4,2.9-0.7,4.3-1.1
			c1.2-0.4,2.5-0.5,3.7-0.8c0.6-0.2,1.3-0.3,1.9-0.5c0.3-0.1,0.7-0.2,1-0.2c0.9,0,1.7-0.3,2.5-0.5c0.8-0.2,1.5-0.4,2.3-0.6
			c0.5-0.1,1-0.2,1.5-0.4c0.9-0.2,1.8-0.3,2.6-0.6c2.1-0.6,4.2-1.1,6.2-1.8c1.1-0.4,2.2-0.6,3.2-0.9c0.8-0.2,1.6-0.4,2.4-0.6
			c1.2-0.3,2.3-0.5,3.5-0.8c0.2,0,0.6,0.2,0.6,0.4c0,0.1,0.1,0.3-0.2,0.3c-1.2,0-2.4,0.3-3.5,0.7c-2.2,0.6-4.4,1.1-6.5,1.8
			c-2.1,0.7-4.2,1.2-6.3,1.8c-0.8,0.2-1.7,0.5-2.6,0.6c-0.6,0.1-1.3,0.3-1.9,0.5c-0.8,0.2-1.6,0.6-2.5,0.7c-1.9,0.2-3.6,0.9-5.4,1.2
			c-1.7,0.3-3.2,0.8-4.9,1.2c-1,0.2-1.9,0.8-2.8,1.1c-0.2,0.1-0.3,0.1-0.5,0.2c-0.2,0-0.4,0.3-0.6,0c-0.2-0.4-0.1-0.7,0.2-0.9
			c0.1-0.1,0.2-0.1,0.3-0.1c0,0,0-0.1,0.1-0.1c0,0-0.1-0.1-0.1-0.1c-0.4,0.1-0.9,0.1-1.3,0.2c0,0-0.1,0.1-0.1,0.2
			c-0.1,0.6,0.3,1.1,0.9,1.2c0.1,0,0.3,0,0.4,0c0.1,0,0.2,0.2,0.3,0.2c-0.1,0-0.2,0.1-0.3,0.1c-0.1,0.1-0.3,0.1-0.4,0.2
			c0.1,0.1,0.2,0.3,0.3,0.4c0.1,0.1,0.3,0.2,0.5,0.3c0.2,0.2,0.3,0.3,0.3,0.6c0.1,1.1,0.2,2.2,0.2,3.3c0,0.6,0.2,1.3,0.3,1.9
			c0,0.1,0,0.3,0,0.4c0,0.9,0.2,1.8,0.3,2.7c0.2,1.1,0.6,2.3,0.8,3.4c0.1,0.7,0.1,1.4,0.2,2c0.1,0.6,0.2,1.2,0.3,1.8
			c0.1,0.4,0.1,0.7,0.1,1.1c0,0.8,0.1,1.5,0.3,2.2c0,0.2,0,0.4,0,0.5c0,0.3-0.1,0.6,0.1,0.8c0,0,0,0.2,0,0.3c-0.4,0.5,0.1,1,0,1.6
			c-0.1,0.3,0.1,0.4,0.4,0.2c0.5-0.2,0.9-0.4,1.4-0.6c0.5-0.2,1.1-0.4,1.6-0.6c0.6-0.2,1.2-0.5,1.8-0.8c0.9-0.4,2-0.8,2.8-1.3
			c1.5-0.8,3.1-1.5,4.6-2.3c1-0.6,2.1-1,3.2-1.5c1-0.5,2-1.1,3-1.6c1.1-0.5,2.2-1.2,3.4-1.4c0.7-0.2,1.3-0.6,2-0.9
			c0.4-0.2,0.9-0.5,1.3-0.7c1.4-0.7,2.8-1.5,4.2-2.2c0.6-0.3,1.2-0.6,1.9-0.9c0.8-0.4,1.6-0.8,2.4-1.1c1.1-0.4,2.2-0.8,3.3-1.2
			c0.3-0.1,0.7-0.1,1-0.1c0.1,0,0.1,0,0.2,0.1c0,0.1-0.1,0.2-0.1,0.2c-0.5,0.2-0.9,0.6-1.3,0.9c-0.4,0.3-0.8,0.5-1.3,0.6
			c-1.2,0.3-2.2,0.9-3.3,1.4c-0.7,0.4-1.5,0.7-2.2,1.1c-0.8,0.4-1.6,0.9-2.5,1.4c-0.8,0.4-1.6,0.8-2.4,1.3c-0.7,0.5-1.5,0.8-2.4,1
			c-0.6,0.1-1.2,0.5-1.7,0.7c-0.7,0.3-1.4,0.7-2.1,1c-1.1,0.6-2.2,1.2-3.3,1.7c-0.7,0.4-1.5,0.7-2.2,1c-1,0.5-2,1.1-3.1,1.5
			c-1.5,0.7-3.1,1.3-4.5,2.1c-1.3,0.7-2.8,1-4.1,1.7c-0.3,0.2-0.6,0.3-1,0.4c-0.7,0.3-0.9,0.7-0.7,1.5c0.1,0.3,0,0.3-0.2,0.3
			c-0.4,0-0.9,0.2-1.2-0.2c0,0-0.1,0.1-0.1,0.1c0,0.1,0,0.3,0,0.4c0.1,0.3,0.2,0.7,0.2,1.1c0,0.2,0.2,0.4,0.2,0.6
			c0,0.2,0.3,0.5-0.2,0.5c-0.4,0-0.9,0.1-1.3,0.2c-0.7,0.1-1.4,0.2-2.1,0.4c-0.7,0.2-1.3,0.6-2,0.8c-0.8,0.3-1.7,0.6-2.5,0.9
			c-0.3,0.1-0.5,0.3-0.7,0.4c-0.7,0.3-1.5,0.6-2.2,0.9c-0.1,0-0.1,0-0.2,0c-0.5,0.1-0.9,0.6-1.5,0.6c-0.5,0-1,0.3-1.5,0.5
			c-0.5,0.2-1,0.4-1.6,0.4c-0.5,0.1-1.1,0.1-1.6,0c-0.3-0.1-0.6-0.4-0.8-0.7c-0.3-0.2-0.5-0.5-0.7-0.8c-0.1-0.1-0.2-0.1-0.3,0.1
			c0,0.3,0,0.5,0.3,0.5c0.1,0,0.2,0.2,0.3,0.3c-0.2,0.1-0.3,0.2-0.5,0.2c-0.4,0-0.8,0-1.2,0c-0.1,0-0.1,0-0.2-0.1
			c-0.3-0.5-0.7-0.2-1.1-0.1c-1.5,0.5-3,1.2-4.6,1.7c-0.9,0.3-1.8,0.8-2.6,1.3c-0.8,0.4-1.7,0.8-2.5,1.2c-1.3,0.6-2.7,1.1-4,1.6
			c-0.8,0.3-1.5,0.7-2.3,1c-1,0.4-2.1,0.8-3.1,1.2c-0.4,0.1-0.8,0.3-1.1,0.5c-1.7,0.6-3.4,1.1-4.9,2.1c-0.3,0.2-0.6,0.2-0.9,0.4
			c-1.6,0.8-3.1,1.6-4.7,2.4c-1.2,0.7-2.4,1.3-3.7,1.9c-0.8,0.4-1.6,0.9-2.4,1.2c-1.6,0.7-3.1,1.5-4.7,2.2c-2,0.9-3.9,1.8-5.9,2.7
			c-0.6,0.3-1.2,0.4-1.8,0.7c-0.8,0.4-1.6,0.6-2.4,1c-0.6,0.3-1.2,0.5-1.8,0.8c-0.3,0.1-0.6,0.2-0.9,0.2c-0.7-0.1-1.3,0.2-2,0.4
			c-0.6,0.2-1.2,0.4-1.8,0.7c-1.2,0.6-2.5,1-3.7,1.4c-0.6,0.2-1.2,0.4-1.9,0.3c-0.1,0-0.1-0.1-0.2-0.1c0.1-0.1,0.1-0.1,0.2-0.2
			c1-0.5,2-1.1,3.1-1.5c1.4-0.6,2.8-1.1,4.2-1.6c0.6-0.2,1.2-0.5,1.8-0.8c0.2-0.1,0.4-0.1,0.5-0.2c0.3-0.1,0.4-0.1,0.6,0.1
			c0.1,0.1,0.2,0.3,0.4,0.1c0.6-0.4,1.3-0.6,2-0.8c0.9-0.4,1.7-0.8,2.6-1.1c0.5-0.2,1-0.4,1.4-0.6c0.4-0.2,0.7-0.4,1.1-0.5
			c1.7-0.8,3.3-1.5,5-2.4c0.6-0.3,1.2-0.5,1.8-0.8c1.4-0.7,2.7-1.4,4.1-2.1c0.7-0.3,1.4-0.7,2.1-1c1.2-0.6,2.4-1.1,3.5-1.8
			c0.9-0.5,1.9-0.9,2.8-1.3c1.2-0.6,2.5-1.2,3.7-1.8c1-0.4,2.1-0.8,3.1-1.2c0.9-0.3,1.8-0.7,2.7-1c1.4-0.6,2.8-1.3,4.3-1.9
			c1.4-0.6,2.9-1.1,4.3-1.8c1.2-0.6,2.4-1.3,3.7-1.9c0.6-0.3,1.2-0.5,1.9-0.7c0.6-0.2,1.3-0.5,1.9-0.7c0.6-0.2,1.2-0.5,1.9-0.6
			c0.3-0.1,0.4-0.2,0.4-0.5c0-0.8,0-1.6,0.1-2.4c0-0.3-0.1-0.7,0.2-1c0,0,0-0.1,0-0.2c-0.3-0.9,0.1-1.8,0.1-2.8c0-1,0.1-1.9,0.1-2.9
			c-0.1-1.2,0.1-2.4,0-3.5c-0.2-1.7,0-3.4-0.1-5.1c-0.1-1.3,0.1-2.6,0-3.8c-0.1-1.3,0.1-2.6,0-3.8c0-0.8-0.1-1.5-0.2-2.3
			c0-0.1-0.2-0.2-0.3-0.3c0,0.1-0.1,0.2-0.1,0.3c0,0-0.1,0.1-0.1,0.1c0,0-0.1-0.1-0.1-0.1c0.2-0.7-0.3-0.8-0.8-0.9
			c-0.5-0.1-1-0.3-1.5-0.4c-0.1,0-0.2,0.1-0.2,0.1c0,0,0,0.1,0.1,0.2c0,0,0.1,0,0.2,0.1c0.2,0.1,0.1,0.3-0.1,0.4
			c-1.5,0.4-3,0.9-4.5,1.3c-0.4,0.1-0.8,0.2-1.2,0.2c-0.5,0.1-1,0.3-1.5,0.4c-1.1,0.3-2.3,0.7-3.4,1c0,0-0.1,0-0.1,0
			c-0.9,0.5-1.9,0.7-2.8,1.1c-1.4,0.6-2.8,0.9-4.2,1.3c-1.1,0.3-2.1,0.6-3.2,0.9c-1.8,0.5-3.6,1.1-5.4,1.6c-1.5,0.4-3,0.7-4.6,1.1
			c-0.8,0.2-1.5,0.5-2.3,0.7c-0.9,0.3-1.9,0.5-2.8,0.7c-1,0.2-2,0.5-3,0.7c-1,0.2-1.9,0.5-2.9,0.8c-0.9,0.3-1.9,0.6-2.8,0.8
			c-0.7,0.2-1.5,0.5-2.2,0.7c-1.1,0.3-2.2,0.6-3.3,0.9c-0.6,0.2-1.2,0.3-1.8,0.5c-0.5,0.1-1.1,0.2-1.6,0.4c-1.7,0.4-3.4,1-5,1.6
			c-0.2,0.1-0.5,0.1-0.8,0.2c-0.2,0-0.3-0.1-0.4-0.3c0-0.2,0-0.4,0.2-0.5c0.1,0,0.2-0.1,0.3-0.1c1-0.3,1.9-0.7,2.9-0.8
			c1.2-0.2,2.3-0.6,3.5-1c1.1-0.4,2.2-0.7,3.3-1c1.2-0.4,2.4-0.6,3.5-1c1.5-0.5,3-0.8,4.5-1.3c0.9-0.3,1.8-0.4,2.7-0.8
			c0.7-0.3,1.5-0.3,2.2-0.5c0.4-0.1,0.9-0.2,1.3-0.4c0.9-0.2,1.8-0.5,2.7-0.7c1.3-0.4,2.6-0.7,4-1.1c1-0.3,1.9-0.5,2.9-0.7
			c0.7-0.2,1.4-0.4,2.1-0.6c1.2-0.4,2.4-0.8,3.6-1.1c1.4-0.3,2.8-0.6,4.2-1.1c1.2-0.4,2.4-0.8,3.5-1.2c0.7-0.2,1.4-0.5,2.1-0.7
			c0.1,0,0.2-0.1,0.3-0.2c-0.1,0-0.2-0.1-0.3,0c-0.5,0.1-1,0.2-1.5,0.4c-0.9,0.4-2,0.4-2.9,0.7c-0.6,0.2-1.2,0.2-1.8,0.5
			c-0.7,0.2-1.4,0.2-2.1,0.5c-0.8,0.3-1.5,0.5-2.3,0.8c-1,0.4-2.1,0.7-3.2,1c-1.1,0.3-2.2,0.7-3.4,0.9c-1.4,0.2-2.6,0.9-3.9,1
			c-1,0.5-2.1,0.7-3.2,1c-0.8,0.2-1.6,0.4-2.5,0.7c-0.7,0.2-1.3,0.5-2,0.7c-0.6,0.2-1.3,0.5-1.9,0.6c-0.8,0.1-1.5,0.5-2.3,0.6
			c-1.4,0.3-2.8,0.7-4.1,1.1c-1,0.3-2.1,0.6-3.1,0.9c-1.9,0.6-3.8,1.3-5.8,1.7c-1.2,0.3-2.3,0.7-3.5,0.6c-0.1,0-0.3-0.1-0.4-0.1
			c0.1-0.1,0.2-0.2,0.3-0.3c0.8-0.5,1.7-0.7,2.5-0.9c0.9-0.2,1.8-0.4,2.7-0.8c0.6-0.2,1.2-0.3,1.8-0.5c1.8-0.5,3.5-1.1,5.3-1.7
			c1.1-0.4,2.2-0.8,3.3-1c1.2-0.2,2.4-0.6,3.7-0.9c0.6-0.1,1.1-0.4,1.6-0.6c0.9-0.3,1.8-0.7,2.7-0.8c1.5-0.2,2.9-0.8,4.4-1.1
			c0.9-0.2,1.8-0.5,2.7-0.8c1.2-0.3,2.4-0.6,3.6-0.9c0.8-0.2,1.6-0.4,2.4-0.7c1.1-0.3,2.2-0.7,3.2-1.1c1.9-0.6,3.8-1.1,5.7-1.6
			c1.3-0.3,2.6-0.6,3.9-1c1.3-0.4,2.5-0.8,3.7-1.2c0.7-0.2,1.3-0.6,2-0.8c0.4-0.1,0.3-0.2,0.2-0.4c-0.1-0.2-0.1-0.6-0.5-0.3
			c-1.9,0.1-3.7,0.7-5.6,1.1c-1.4,0.3-2.8,0.7-4.1,1.1c-0.9,0.3-1.8,0.5-2.7,0.7c-1.1,0.3-2.1,0.5-3.2,0.8c-0.9,0.2-1.8,0.4-2.8,0.6
			c-1.9,0.5-3.8,1.1-5.7,1.5c-1.7,0.4-3.4,0.9-5.1,1.4c-0.8,0.2-1.7,0.4-2.5,0.7c-2.3,0.8-4.6,1.3-6.8,2.1c-1.2,0.4-2.5,0.6-3.7,1
			c-0.7,0.2-1.5,0.5-2.2,0.7c-1.8,0.5-3.5,1-5.3,1.5c-1.2,0.4-2.4,0.8-3.5,1.2c-0.8,0.2-1.5,0.5-2.3,0.8c-1.5,0.5-3,1-4.5,1.5
			c-0.9,0.3-1.7,0.5-2.6,0.8c-0.9,0.3-1.8,0.5-2.7,0.8c-1.7,0.6-3.4,1.2-5.1,1.8c-1.7,0.6-3.4,1.1-5.1,1.6c-1.5,0.4-2.9,0.8-4.4,1.1
			c-0.4,0.1-0.9,0.2-1.3,0.4c-0.2,0.1-0.3,0-0.4-0.1c0,0,0-0.2,0.1-0.2c1.4-0.5,2.9-1,4.3-1.5c1.3-0.5,2.5-1,3.8-1.4
			c1-0.3,2-0.6,3-0.9c1.1-0.4,2.2-0.7,3.2-1.1c2-0.6,3.9-1.2,5.9-1.8c1.3-0.4,2.5-0.8,3.8-1.3c1.6-0.5,3.2-1.2,4.8-1.7
			c1.4-0.4,2.8-0.9,4.3-1.3c1.5-0.4,3-0.7,4.4-1.2c1-0.3,2-0.5,2.9-0.8c1.3-0.4,2.5-0.8,3.7-1.1c0.8-0.2,1.7-0.4,2.5-0.6
			c0.7-0.2,1.3-0.4,2-0.6c0.5-0.1,1-0.3,1.4-0.4c0.9-0.3,1.9-0.5,2.8-0.7c1.6-0.5,3.3-1,4.9-1.4c1-0.3,2.1-0.4,3.2-0.7
			c1.2-0.4,2.4-0.5,3.6-0.9c0.9-0.3,1.8-0.4,2.7-0.6c1.5-0.4,3-0.8,4.4-1.2c2-0.5,3.9-1.1,5.9-1.6c1.1-0.3,2.2-0.4,3.2-0.6
			c0.6-0.1,1.2-0.2,1.8-0.4c0.6-0.1,0.7-0.3,0.6-0.8c-0.1-0.4-0.1-0.8-0.1-1.2c0-0.5-0.2-0.7-0.8-0.6c-1.3,0.3-2.6,0.6-3.9,0.9
			c-1.2,0.3-2.4,0.5-3.6,0.8c-1.2,0.3-2.5,0.6-3.7,1c-1.1,0.3-2.2,0.5-3.3,0.7c-0.9,0.2-1.7,0.4-2.6,0.6c-1.2,0.3-2.4,0.6-3.7,0.8
			c-1.1,0.2-2.2,0.5-3.3,0.7c-0.6,0.1-1.2,0.2-1.8,0.4c-1.1,0.3-2.2,0.6-3.2,1c-1,0.4-2.1,0.6-3.1,0.9c-1.4,0.4-2.8,0.8-4.1,1.1
			c-1.1,0.3-2.2,0.6-3.3,0.8c-0.7,0.1-1.3,0.3-1.9,0.5c-1.3,0.4-2.6,0.7-3.9,1c-1.2,0.3-2.4,0.6-3.6,0.9c-0.8,0.2-1.6,0.4-2.4,0.6
			c-1.1,0.3-2.3,0.5-3.4,0.8c-1.2,0.4-2.5,0.7-3.7,1.1c-0.7,0.2-1.4,0.4-2.1,0.6c-1.8,0.5-3.6,0.9-5.3,1.3c-1.5,0.4-3,0.6-4.4,1.3
			c-1.1,0.1-2.1,0.6-3.2,0.9c-1,0.2-1.9,0.6-2.9,1c-0.9,0.3-1.9,0.5-2.8,0.8c-0.8,0.2-1.6,0.4-2.4,0.6c-0.7,0.2-1.3,0.3-2,0.4
			c0,0-0.1,0-0.1,0c0-0.1,0-0.2,0-0.2c0.2-0.1,0.4-0.2,0.6-0.3c0.7-0.1,1.3-0.3,1.9-0.5c1.7-0.5,3.2-1.3,4.9-1.8
			c1.2-0.4,2.4-1,3.6-1.3c1.6-0.4,3.1-1,4.7-1.3c1-0.2,2-0.6,3.1-0.7c0.6-0.1,1.1-0.3,1.7-0.5c1.1-0.3,2.2-0.5,3.3-0.8
			c1.6-0.4,3.1-0.9,4.7-1.3c0.9-0.3,1.9-0.7,2.8-0.8c1.2-0.2,2.4-0.5,3.6-0.7c1.3-0.2,2.5-0.6,3.7-0.9c1.5-0.3,3-0.6,4.4-1
			c0.7-0.2,1.3-0.4,2-0.5c1.2-0.3,2.4-0.7,3.6-0.9c0.7-0.1,1.3-0.4,2-0.6c1.1-0.3,2.1-0.5,3.2-0.8c1.2-0.4,2.5-0.8,3.7-1.1
			c0.7-0.2,1.4-0.4,2.1-0.4c0.6,0,1.2-0.2,1.9-0.3c0.8-0.2,1.6-0.4,2.4-0.6c1-0.2,2-0.5,3-0.7c1.1-0.3,2.2-0.5,3.3-0.8
			c2.2-0.6,4.3-1.1,6.5-1.5c0.8-0.2,1.6-0.4,2.4-0.6c1-0.2,2-0.5,3-0.7c0.7-0.1,1.3-0.3,2-0.5c0.2,0,0.4-0.2,0.3-0.4
			c0-0.3-0.1-0.5-0.1-0.8c-0.1-0.8-0.1-1.6-0.2-2.5c0-0.2,0-0.4-0.4-0.3c-0.6,0.2-1.3,0.2-1.9,0.3c-0.4,0.1-0.9,0.1-1.3,0.2
			c-1.2,0.2-2.3,0.6-3.5,0.7c-0.9,0.1-1.8,0.4-2.7,0.6c-1.2,0.3-2.3,0.6-3.5,0.8c-1.3,0.2-2.5,0.7-3.8,1c-1,0.3-2,0.7-3.1,1
			c-1.3,0.4-2.7,0.7-4,1c-0.6,0.2-1.2,0.4-1.9,0.5c-1.2,0.3-2.4,0.7-3.6,1c-0.9,0.3-1.9,0.5-2.8,0.8c-1,0.3-1.9,0.6-2.9,0.8
			c-1.8,0.4-3.4,1.1-5.1,1.6c-1.3,0.3-2.6,0.9-3.9,1.2c-0.9,0.2-1.8,0.4-2.7,0.6c-1.1,0.2-2.2,0.6-3.3,0.8c-0.9,0.2-1.8,0.5-2.7,0.6
			c-0.8,0.1-1.5,0.4-2.2,0.6c-1.6,0.4-3.3,0.9-4.9,1.3c-1.4,0.4-2.8,0.6-4.2,0.9c-1.1,0.2-2.2,0.5-3.3,0.7c-0.8,0.2-1.5,0.4-2.3,0.5
			c-1.1,0.2-2.3,0.5-3.4,0.9c-0.9,0.3-1.7,0.4-2.6,0.7c-0.8,0.2-1.5,0.5-2.3,0.7c-0.3,0.1-0.7,0.1-1.1,0.1c-0.1,0-0.2-0.1-0.2-0.1
			c0.1-0.1,0.1-0.1,0.2-0.2c0.2-0.1,0.4-0.2,0.6-0.2c1-0.2,1.9-0.6,2.9-1c1-0.4,2.1-0.8,3.2-1.1c0.9-0.3,1.8-0.5,2.6-0.7
			c1-0.2,1.9-0.5,2.9-0.7c1-0.2,1.9-0.4,2.9-0.6c0.9-0.2,1.7-0.3,2.6-0.5c0.5-0.1,1.1-0.2,1.6-0.4c1.8-0.5,3.6-0.9,5.4-1.5
			c1.6-0.5,3.3-0.7,5-1.1c0.8-0.2,1.7-0.5,2.5-0.7c0.8-0.2,1.7-0.4,2.6-0.6c1.2-0.2,2.3-0.6,3.4-0.9c1-0.3,2-0.6,3-0.9
			c1-0.3,2.1-0.6,3.1-0.9c1.1-0.3,2.2-0.6,3.4-0.9c1.5-0.4,3.1-0.8,4.6-1.1c0.9-0.2,1.9-0.5,2.8-0.7c1.1-0.3,2.3-0.5,3.4-0.8
			c1.2-0.3,2.3-0.6,3.5-0.9c0.9-0.3,1.9-0.6,2.8-0.8c1.2-0.3,2.5-0.6,3.8-0.9c1-0.2,2.1-0.5,3.1-0.7c1-0.2,2.1-0.5,3.1-0.7
			c0.5-0.1,1.1-0.2,1.6-0.3c0.7-0.1,1.4-0.2,2.1-0.4c0,0,0,0,0,0c0.3-0.1,0.7,0.1,0.9-0.2c0.1-0.3,0-0.7,0.1-1
			c0.1-0.7,0.1-1.4,0.2-2.1c0-0.3-0.1-0.4-0.4-0.4c-0.1,0-0.2,0-0.3,0c-0.8,0.4-1.6,0.4-2.4,0.5c-1.3,0.3-2.5,0.5-3.8,0.7
			c-0.3,0.1-0.6,0.1-0.8,0.2c-0.7,0.3-1.5,0.3-2.2,0.6c-0.7,0.2-1.4,0.3-2.1,0.5c-1.1,0.2-2.2,0.4-3.3,0.7c-1.1,0.3-2.3,0.5-3.4,0.8
			c-0.9,0.2-1.8,0.5-2.6,0.8c-1.1,0.3-2.1,0.7-3.1,1c-1.5,0.4-3.1,0.7-4.6,1.3c-1.6,0.5-3.2,1-4.8,1.5c-0.8,0.2-1.7,0.5-2.5,0.8
			c-0.6,0.2-1.3,0.3-1.9,0.4c-0.8,0.2-1.5,0.4-2.3,0.5c-1.7,0.3-3.3,0.9-5,1.1c-1,0.2-1.9,0.5-2.9,0.7c-1.1,0.3-2.3,0.6-3.4,0.8
			c-0.7,0.2-1.4,0.3-2.1,0.5c-0.3,0.1-0.7,0.2-1,0.2c-0.7,0.1-1.5,0.2-2.2,0.4c-0.3,0.1-0.6,0.2-0.9,0.2c-1.5,0-2.8,0.5-4.3,0.7
			c-0.8,0.1-1.6,0.4-2.4,0.6c-1.2,0.3-2.3,0.7-3.5,0.8c-0.5,0-1,0.2-1.4,0.4c-0.8,0.3-1.6,0.4-2.4,0.6c-0.9,0.2-1.7,0.3-2.6,0.5
			c-0.9,0.2-1.8,0.4-2.6,0.6c-1.1,0.2-2.2,0.4-3.3,0.6c-0.8,0.2-1.6,0.4-2.4,0.6c-0.3,0.1-0.7,0.2-1,0.2c-0.5,0.1-1.1,0-1.6,0.1
			c-0.6,0.2-1.2-0.1-1.8,0.2c-1.4-0.1-2.5,0.8-3.8,1.1c-0.4,0.4-0.9,0.2-1.2-0.1c-0.1,0-0.1-0.1-0.1-0.2c0.1-0.1,0.2-0.2,0.3-0.2
			c0.6,0.4,1-0.1,1.5-0.2c0.6-0.2,1.1-0.4,1.7-0.6c0.2-0.1,0.4-0.1,0.6-0.2c1.2-0.4,2.4-0.8,3.6-1.2c1.5-0.5,3.1-1,4.6-1.5
			c0.7-0.2,1.4-0.4,2.1-0.6c1.7-0.5,3.4-1,5.1-1.5c2.1-0.6,4.1-1.2,6.2-1.8c1.2-0.3,2.5-0.6,3.8-0.9c1.4-0.3,2.7-0.7,4-1.1
			c1.5-0.4,3-0.8,4.5-1.2c1.2-0.3,2.4-0.7,3.6-1.1c1.2-0.4,2.3-0.8,3.5-1.2c0.4-0.1,0.9-0.2,1.3-0.4c0.2-0.1,0.4-0.3,0.4-0.4
			c0.1-0.2-0.1-0.3-0.3-0.4c-0.1,0-0.1-0.1-0.1-0.2c0-0.1,0-0.2,0-0.3c0-0.9,0-1.9-0.2-2.8c-0.1-0.5-0.1-1-0.1-1.6
			c0-0.5,0-1-0.1-1.5c0-0.2-0.1-0.5-0.5-0.6c-0.1-0.1-0.2-0.3-0.3-0.3c-0.5,0.3-0.9-0.3-1.4-0.2c-0.4,0.1-0.8-0.2-1.2-0.3
			c-1.2-0.1-2.3-0.5-3.5-0.7c-0.5-0.1-1-0.3-1.6-0.3c-0.5,0-1-0.1-1.5,0.1c-1,0.3-2.1,0.3-3.1,0.5c-0.5,0.1-1.1,0.1-1.6,0.2
			c-0.1,0-0.1,0.1-0.1,0.1c0,0.1,0.1,0.1,0.1,0.2c0.1,0,0.3,0,0.4,0c0.9-0.2,1.8,0,2.8,0c0.8,0,1.7-0.1,2.5,0c0.9,0,1.8,0.1,2.7,0.2
			c0.6,0.1,1.2,0.1,1.8,0.2c0.5,0.1,1,0.1,1.4,0.4c0.1,0.1,0.1,0.2,0.2,0.4c-0.1,0.1-0.3,0.2-0.4,0.2c-0.5-0.1-1.1,0.1-1.6-0.2
			c-0.1,0-0.1,0-0.2,0c-1.8-0.1-3.5-0.3-5.3-0.3c-1.8,0-3.5-0.1-5.3-0.1c-0.5,0-1.1,0.2-1.6,0.2c-1,0.1-1.9,0.4-2.8,0.6
			c-1,0.2-2,0.3-2.9,0.7c-0.6,0.2-1.2,0.4-1.8,0.5c-0.5,0.2-1,0.3-1.5,0.5c-1.1,0.5-2.2,1-3.2,1.4c-1.3,0.5-2.6,1.1-3.9,1.5
			c-0.6,0.2-1.1,0.5-1.6,0.7c-1.5,0.6-2.9,1.5-4.4,2.3c-1.2,0.7-2.5,1.4-3.7,2.1c-1,0.6-2.1,1.1-3.1,1.7c-0.7,0.4-1.3,0.8-1.8,1.5
			c-0.2,0.3-0.5,0.6-0.9,0.3c-0.1-0.1-0.3,0-0.5,0.1c-0.1,0-0.1,0-0.2-0.1c0,0,0.1-0.1,0.1-0.1c0.2-0.2,0.5-0.3,0.7-0.5
			c0.4-0.4,0.7-0.8,1.1-1.2c0.7-0.6,1.4-1.2,2.1-1.7c1.2-0.8,2.4-1.5,3.6-2.2c2.1-1.3,4.3-2.5,6.6-3.5c1.5-0.6,3-1.1,4.5-1.6
			c0.8-0.3,1.6-0.6,2.4-0.9c1.5-0.6,2.9-1,4.4-1.4c1.1-0.3,2.1-0.6,3.2-0.9c0.8-0.2,1.7-0.3,2.5-0.5c0.5-0.1,1-0.3,1.5-0.5
			c1.2-0.5,2.5-0.8,3.8-1c0.7-0.1,1.3-0.3,2-0.4c0.4-0.1,0.7-0.1,1.1-0.2c0.7,0,1.3-0.2,2,0c0.9,0.2,1.7,0.2,2.6,0.4
			c0.7,0.2,1.5,0.2,2.2,0.4c0.7,0.1,1.4,0.3,2.1,0.4c0.3,0,0.7,0,1-0.1c0.6-0.2,1.2-0.4,1.9-0.7c0-0.1,0-0.1,0-0.2
			c0,0-0.1,0.1-0.1,0.1c-0.3,0.1-0.5,0.1-0.8,0.2c-0.4,0.1-0.8,0.3-1.3,0.4c-0.1,0-0.2-0.2-0.2-0.2c0.2-0.3,0.2-0.6,0.6-0.8
			c1-0.4,2-0.8,3-1.1c1-0.3,2-0.6,3.1-0.8c0.7-0.2,1.4-0.4,2-0.6c1.9-0.6,3.8-1.2,5.8-1.7c0.8-0.2,1.6-0.3,2.3-0.5
			c1.2-0.3,2.3-0.6,3.5-0.9c0.6-0.2,1.2-0.4,1.9-0.5c0.2,0,0.4,0,0.6,0.1c-0.1,0.3-0.3,0.2-0.5,0.3c-0.6,0.2-1.3,0.4-1.9,0.6
			c-0.9,0.3-1.8,0.5-2.8,0.8c-0.3,0.1-0.7,0.1-1,0.1c-1.1,0.1-2.2,0.4-3.2,0.8c-0.7,0.3-1.5,0.5-2.2,0.6c-0.8,0.2-1.6,0.5-2.5,0.7
			c-1.1,0.4-2.3,0.7-3.4,1.1c-1.4,0.4-2.8,0.8-4.1,1.2c0,0-0.1,0-0.1,0.1c-0.1,0.1-0.3,0.2-0.4,0.3c0.2,0.1,0.3,0,0.5-0.1
			c1.3-0.4,2.6-0.6,3.9-1c1.4-0.4,2.7-1,4.1-1.3c1-0.3,2-0.6,3-0.7c1.1-0.1,2.1-0.5,3.1-0.8c1.2-0.4,2.5-0.8,3.7-1.1
			c1.3-0.3,2.5-0.8,3.8-1.1c0.3-0.1,0.7-0.1,1.1-0.1c0.1,0,0.2,0.2,0.3,0.4c-0.1,0-0.2,0.2-0.3,0.1c-0.6-0.1-1.2,0.1-1.8,0.4
			c-0.7,0.4-1.4,0.6-2.2,0.9c-0.4,0.2-0.6,0.5-0.3,0.8c0.3,0.5,0.4,1,0.4,1.6c0,0.9-0.1,1.8,0.1,2.6c0.1,0.7,0,1.4,0.4,2
			c0,0.1-0.1,0.3-0.2,0.4c-0.1,0.1-0.1,0.2-0.2,0.3c0.1,0,0.3,0.1,0.4,0.1c0.8-0.3,1.6-0.6,2.4-0.9c1.9-0.7,3.8-1.4,5.8-1.7
			c0.8-0.2,1.6-0.5,2.4-0.7c1.3-0.3,2.6-0.6,3.9-0.9c1.6-0.4,3.2-0.9,4.8-1.3c1-0.2,2-0.4,3-0.6c0.1,0,0.1,0,0.2,0
			c0.2-0.1,0.7-0.2,0.7-0.4c0.1-0.2-0.2,0.2-0.3,0c-0.1-0.1-0.3,0.1-0.4,0.1c-1,0.1-1.9,0.4-2.9,0.5c-1,0.1-2,0.4-3,0.6
			c-1.2,0.2-2.3,0.5-3.5,0.7c-0.8,0.2-1.5,0.5-2.3,0.7c-1,0.3-1.9,0.5-2.9,0.7c-0.4,0.1-0.8,0.3-1.2,0.4c-0.1,0-0.2,0-0.2,0
			c0-0.1,0-0.2,0.1-0.3c0.4-0.2,0.8-0.5,1.3-0.6c1.2-0.2,2.4-0.5,3.6-0.9c1.8-0.5,3.7-1,5.6-1.4c1.4-0.3,2.8-0.4,4.1-0.8
			c0.9-0.3,1.8-0.3,2.7-0.6c0.1,0,0.3,0,0.3,0.1c0.1,0.2,0.2,0.5,0.3,0.7c0,0-0.1,0.1-0.2,0.2c-0.7,0.2-1.3,0.3-2,0.5
			c-1.1,0.3-2.2,0.5-3.4,0.8c-1.9,0.4-3.7,0.9-5.6,1.3c-1,0.3-2,0.6-3,0.8c-1.1,0.3-2.3,0.5-3.4,0.8c-1.3,0.4-2.6,0.8-3.9,1.3
			c-0.9,0.3-1.7,0.7-2.6,1c-0.3,0.1-0.5,0.2-0.2,0.6c0.2,0.3,0,0.7-0.4,0.8c-0.8,0.2-1.7,0.5-2.5,0.8c-0.2,0.1-0.4,0.1-0.6,0.1
			c-0.9,0.1-1.7,0.6-2.5,0.8c-0.6,0.2-1.3,0.4-1.9,0.7c-0.2,0.1-0.4-0.1-0.6-0.1c-0.3,0-0.6-0.1-0.8,0c-1.1,0.5-2.3,0.7-3.4,1
			c-0.9,0.2-1.8,0.4-2.8,0.6c-0.8,0.1-1.6,0.2-2.5,0.3c-0.5,0.1-0.5,0.1-0.6,0.6c0,0.1,0,0.2,0,0.3c0,0.1-0.1,0.2-0.2,0.1
			c-0.1,0-0.1-0.1-0.2-0.2c0,0,0-0.1,0-0.1c0-0.2,0-0.3,0-0.5c-0.2,0-0.3,0.1-0.5,0.1c-2,0.6-3.9,1.3-5.8,2
			c-1.4,0.5-2.9,0.9-4.4,1.2c-0.9,0.2-1.7,0.4-2.6,0.6c-1.5,0.4-3,0.8-4.5,1.2c-0.9,0.2-1.8,0.5-2.7,0.7c-1,0.3-2.1,0.5-3.1,0.8
			c-0.7,0.2-1.5,0.5-2.2,0.7c-1.9,0.4-3.6,1.1-5.5,1.5c-1.1,0.2-2.2,0.7-3.3,1c-1.5,0.5-3,0.9-4.5,1.3c-0.1,0-0.2,0.1-0.3,0.1
			c0,0,0,0.1-0.1,0.2c0.1,0,0.1,0.1,0.2,0c1.2-0.3,2.3-0.6,3.5-0.9c0.9-0.2,1.9-0.4,2.9-0.5c0.8-0.1,1.6-0.3,2.4-0.5
			c0.5-0.1,1.1-0.2,1.6-0.3c0.3-0.1,0.5-0.1,0.8-0.2c1-0.4,2-0.3,3-0.5c0.8-0.2,1.5-0.4,2.3-0.6c1.3-0.3,2.6-0.6,3.8-0.9
			c1-0.3,2-0.6,3-0.8c0.9-0.2,1.8-0.5,2.8-0.6c0.9-0.1,1.8-0.3,2.7-0.4c0.8-0.1,1.7-0.3,2.5-0.5c0.8-0.2,1.7-0.3,2.5-0.5
			c0.3-0.1,0.6-0.2,0.8-0.2c1.4-0.2,2.8-0.7,4.2-0.9c1.1-0.2,2.3-0.4,3.4-0.7c0.8-0.2,1.7-0.3,2.5-0.5c0.5-0.1,1-0.2,1.5-0.3
			c0.7-0.2,1.4-0.3,2.1-0.5c2.3-0.6,4.5-1.2,6.8-1.9c2.1-0.6,4.2-1.2,6.3-1.8c1.1-0.3,2.2-0.7,3.3-1c1.5-0.4,3-0.7,4.5-1.1
			c1.2-0.3,2.4-0.4,3.6-0.7c0.9-0.2,1.8-0.5,2.8-0.7c1.3-0.3,2.7-0.7,4-0.9c0.7-0.1,1.4-0.4,2.1-0.4c0.9,0,1.8-0.4,2.7-0.5
			c0.2,0,0.4-0.1,0.4-0.4c0.1-0.5,0.1-1.1,0.2-1.6c0-0.2-0.1-0.5-0.1-0.8c0-0.1,0-0.3,0-0.4c0.2-0.5,0.2-1,0.2-1.5
			c-0.1-0.9,0.1-1.8,0.2-2.7c0-0.4,0.3-0.5,0.7-0.5c0.2,0,0.4,0.1,0.4-0.3c0-0.2,0.1-0.4,0.3-0.4c0.2,0,0.4,0.1,0.5,0.3
			c0.1,0.1,0,0.4,0,0.5c-0.1,0.2-0.3,0.4-0.5,0.6c0,0-0.1,0.1-0.2,0c-0.4-0.4-0.3,0-0.4,0.2c-0.1,1,0,2,0.3,2.9c0.1,0.4,0,0.8,0,1.3
			c0,0.2-0.3,0.3-0.5,0.1c-0.2-0.2-0.3-0.3-0.4-0.5c-0.1-0.1,0-0.3-0.1-0.4c0,0.2-0.1,0.4-0.1,0.5c0.2,0.8,0.2,1.5,0.2,2.3
			c0,0.2,0.1,0.3,0.4,0.3c0.9-0.1,1.9-0.4,2.8-0.6c0.5-0.2,1-0.2,1.4-0.2c0.1,0,0.1,0,0.2,0c0.2,0,0.4,0.2,0.4,0.3
			c0,0.1,0.1,0.1,0.1,0.1c0,0,0.1,0,0.1,0c0.2-0.2,0.3-0.9,0-1.1c-0.1,0-0.2-0.1-0.2-0.1c-0.3,0.2-0.5,0.1-0.6-0.3
			c0-0.4,0.2-0.7,0.6-0.7c0.5,0,0.9,0.3,1.1,0.8c0.2,0.4,0.2,0.8,0.3,1.2c0,0.3-0.4,0.9-0.6,1c-0.2,0.1-0.9-0.2-1-0.4
			c-0.4-0.5-0.6-0.5-1.2-0.4c-1.1,0.3-2.3,0.7-3.5,0.9c-0.3,0-0.5,0.4-0.4,0.5c0.2,0.9,0,1.9,0,2.8c0,0.1,0,0.1,0,0.2
			c0.1,0.2,0.1,0.2,0.4,0.1c0.9-0.4,1.8-0.6,2.7-0.7c0.3,0,0.6-0.2,0.9-0.3c0.3-0.2,0.7-0.3,1-0.3c0.2,0,0.4,0,0.6,0
			c0.1,0,0.2-0.1,0.2-0.2c-0.1-0.1-0.2-0.2-0.3-0.2c-0.3,0.3-0.3-0.2-0.5-0.2c0.1-0.1,0.1-0.2,0.2-0.3c0.4-0.4,1.2-0.2,1.4,0.4
			c0.1,0.4,0.2,0.7,0.1,1.2c0,0.1-0.1,0.3-0.1,0.3c-0.5,0.6-0.7,0.6-1.3,0c-0.3-0.2-0.5-0.3-0.8-0.1c-0.7,0.4-1.4,0.5-2.1,0.6
			c-0.7,0.1-1.4,0.3-2.1,0.5c-0.1,0-0.5,0.1-0.3,0.6c0.2,0.4,0.1,0.9,0.1,1.4c0.1,0.6,0.1,1.2,0.2,1.8c0,0.2,0.1,0.2,0.3,0.1
			c0.7-0.2,1.5-0.5,2.2-0.7c1-0.3,1.9-0.7,3-0.7c0.1,0,0.1-0.1,0.2-0.1c-0.1,0-0.1-0.1-0.2-0.1c-0.1-0.1-0.3-0.1-0.4-0.1
			c-0.2,0-0.2-0.2-0.2-0.3c0-0.1,0.1-0.4,0.2-0.4c0.3,0,0.7,0,1,0.1c0.5,0.2,0.8,0.9,0.6,1.5c-0.3,0.9-1,1.1-1.7,0.5
			c-0.2-0.1-0.3-0.1-0.5-0.1c-1.4,0.4-2.6,1-4,1.3c-0.1,0-0.3,0.2-0.3,0.3c0,0.7,0.1,1.5,0.2,2.2c0,0.1,0.1,0.3,0.4,0.1
			c0.8-0.3,1.7-0.6,2.5-0.8c0.3-0.1,0.6-0.1,0.9-0.2c0.1,0,0.2-0.1,0.3-0.3c0.1-0.1,0.1-0.4,0.2-0.4c0.2-0.1,0.4-0.1,0.6,0
			c0.6,0.1,1.1,0.9,1.2,1.5c0,0.5-0.2,0.8-0.6,1c-0.4,0.2-0.7-0.1-1.1-0.2c0,0,0-0.2,0-0.2c0-0.1,0.1-0.1,0.2-0.1
			C102.9,166.3,102.9,166.3,102.7,165.7c-0.1-0.2-0.1-0.3-0.2-0.4c0,0-0.2,0-0.3,0.1c0.1,0.1,0.1,0.1,0.2,0.2
			C102.5,165.6,102.6,165.6,102.7,165.7 M99.2,30.7c0,0,0-0.1,0-0.1c0,0-0.1,0.1-0.1,0.1c0,0,0,0.1,0,0.1
			C99.1,30.8,99.1,30.8,99.2,30.7 M55.4,151.6c0.1,0,0.3,0,0.4,0c1-0.3,1.9-0.6,2.9-0.9c0.6-0.2,1.2-0.5,2-0.4
			c0.4,0,0.7-0.1,1.1-0.2c0,0,0.1-0.1,0.1-0.2c0,0-0.1-0.1-0.1-0.1c-0.6,0.1-1.1,0.2-1.7,0.3c-1,0.2-1.9,0.4-2.9,0.8
			c-0.6,0.2-1.3,0.2-1.9,0.7c0,0,0,0.1,0,0.1C55.3,151.7,55.3,151.6,55.4,151.6 M106,154.1c0,0.6,0,1.2,0.1,1.8c0,0.7-0.1,1.3,0,2
			c0.1,0.9,0.1,1.9,0.1,2.8c0,0.8,0,1.6-0.1,2.4c-0.2,2.5,0,4.9-0.4,7.4c-0.1,0.5,0.1,1.1,0.1,1.6c0,2.4-0.3,4.8-0.1,7.2
			c0.1,0.9-0.1,1.9,0,2.8c0.1,0.6,0,1.3,0,1.9c0,1.3,0.3,2.5,0.3,3.7c0,0.4,0.1,0.7,0.2,1.1c0.1,0.8,0.2,1.7,0.4,2.5
			c0.1,0.6,0.2,1.2,0.3,1.8c0.1,0.5,0.1,1.1,0.3,1.6c0.1,0.6,0.3,1.2,0.2,1.8c0,0.2,0.1,0.4,0.1,0.6c0,0.1,0.1,0.2,0.2,0.2
			c0.3,0,0.3,0.1,0.1,0.3c-0.1,0.1-0.2,0.1-0.2,0.2c0,0.1,0,0.1,0,0.2c0,0,0.1-0.1,0.1-0.1c0.6-0.2,1.2-0.4,1.8-0.6
			c0.6-0.2,1.2-0.4,1.9-0.6c0.7-0.2,1.5-0.4,2.2-0.6c0.5-0.1,1-0.4,1.5-0.5c1.6-0.5,3.2-0.9,4.6-1.6c0.4-0.2,0.9-0.2,1.3-0.2
			c0.3,0,0.4,0.2,0.4,0.4c0,0.2,0,0.4-0.3,0.4c-0.2,0-0.4,0.1-0.6,0.2c0,0-0.1,0.1-0.1,0.1c0,0,0.1,0,0.1,0c0.1,0,0.2,0,0.3,0
			c0.7,0,1-0.3,1-1c0-0.3-0.1-0.6-0.1-1c0-1.1,0-2.1-0.2-3.2c-0.1-0.8-0.1-1.6-0.2-2.4c-0.1-1-0.3-2.1-0.4-3.1c0-0.4,0-0.8-0.1-1.2
			c-0.2-0.9-0.4-1.9-0.6-2.8c-0.1-1.1-0.2-2.1-0.3-3.2c0-0.3,0-0.7-0.1-1c-0.3-1-0.2-2-0.4-3c-0.1-0.7-0.1-1.5-0.2-2.2
			c-0.1-0.8-0.2-1.6-0.3-2.3c-0.1-0.5,0-1-0.1-1.4c-0.1-0.9-0.3-1.9-0.4-2.8c-0.1-0.8-0.2-1.5-0.4-2.3c-0.3-1.1-0.3-2.2-0.5-3.2
			c-0.1-0.6-0.2-1.2-0.2-1.8c0-0.8-0.2-1.6-0.3-2.4c-0.1-1-0.2-2-0.3-3c-0.1-1-0.2-2.1-0.3-3.1c0-0.3,0-0.6-0.1-1
			c-0.1-0.2-0.2-0.5-0.4-0.6c-0.1-0.1-0.3,0-0.5,0c-0.3,0-0.5,0.1-0.8,0.1c-0.4,0-0.7-0.1-1.1,0c-0.9,0.2-1.8,0.4-2.7,0.6
			c-0.9,0.2-1.7,0.6-2.6,0.8c-0.4,0.1-0.9,0.1-1.3,0.3c-0.4,0.1-0.7,0.3-1.1,0.2c-0.2,0-0.2,0.1-0.1,0.2c0.1,0.1,0.1,0.2,0.2,0.3
			c0.3,0.3,0.4,0.7,0.4,1.2C106,152.1,106,153,106,154.1 M106.8,104c0-0.4-0.1-0.7-0.1-1.1c0-0.5,0-1.1-0.1-1.6
			c-0.1-0.8,0-1.7-0.1-2.6c-0.1-0.7,0-1.3,0-2c-0.1-0.9,0-1.8-0.1-2.7c0-0.7,0-1.5-0.1-2.2c0,0,0-0.1,0-0.1
			c-0.2-0.5-0.2-1.1-0.2-1.6c0-0.9-0.1-1.8-0.2-2.7c-0.1-0.9-0.1-1.8-0.2-2.7c0-1-0.1-2.1-0.2-3.1c-0.1-0.6,0-1.3-0.1-1.9
			c-0.1-1,0.1-2.1,0-3.1c-0.1-0.7,0.1-1.5,0-2.2c-0.1-0.9-0.1-1.8-0.1-2.6c0-1,0-1.9,0-2.9c0,0,0-0.1,0-0.1
			c-0.2-0.3-0.1-0.7-0.1-1.1c0-0.4-0.1-0.7-0.1-1.1c0-0.5-0.1-0.8-0.3-1.2c0-0.1-0.2-0.2-0.2-0.3c-0.1-0.9-0.1-1.8-0.2-2.7
			c0-0.6,0.3-1.2,0.1-1.8c-0.1-0.5,0-1-0.1-1.5c-0.1-0.4,0-0.9-0.1-1.3c0-0.5-0.1-0.9-0.1-1.4c0-1.4,0.2-2.7,0-4.1
			c-0.1-1,0-2.1,0-3.1c0-1.3,0-2.6-0.1-3.9c-0.1-0.8-0.1-1.6-0.2-2.4c-0.1-0.8-0.1-1.7-0.1-2.6c0-1.1,0.1-2.1,0.1-3.2
			c0-0.1,0-0.3,0-0.4c0,0-0.1-0.1-0.1-0.1c0,0-0.1,0-0.1,0c0,0.2-0.2,0.5-0.1,0.7c0.1,0.6,0.1,1.3-0.2,1.8c-0.2,0.4-0.2,0.7-0.1,1
			c0.1,0.3,0,0.6,0.1,0.9c0.1,0.8-0.3,1.5-0.1,2.3c0.2,0.9,0.2,1.9,0.2,2.8c0,1.3,0,2.6,0,3.9c0,1.6-0.1,3.1,0,4.6
			c0,0.7,0.1,1.4-0.1,2c-0.2,0.7-0.2,1.5-0.2,2.2c0,0.1,0,0.2,0,0.3c-0.2,0.5-0.3,1.1-0.3,1.6c-0.1,2.1-0.3,4.2-0.1,6.3
			c0,0.3-0.1,0.5-0.1,0.8c0,0.2,0,0.5,0,0.7c0,0.2,0.1,0.4,0.1,0.7c0,1.3,0.1,2.5,0.1,3.8c0,0.9,0,1.8,0.1,2.7c0,0.5,0,1,0.1,1.5
			c0.2,0.8,0,1.5,0.1,2.3c0.1,0.9-0.1,1.8,0,2.7c0.1,0.7,0,1.4,0,2.2c0,1.2,0,2.3,0.2,3.5c0.1,0.7,0.1,1.4,0.1,2.1
			c0,0.1,0,0.1,0,0.2c0.2,0.7,0.2,1.5,0.2,2.2c0,0.1,0,0.3,0,0.4c0.1,0.7,0.1,1.4,0.2,2c0,0.5,0,1,0,1.6c0,1.2,0.1,2.5,0.2,3.7
			c0,0.6,0,1.1,0.1,1.7c0.1,0.9,0,1.8,0,2.6c0.1,1.1-0.1,2.2,0,3.4c0.1,1.5,0,3,0,4.5c-0.1,5.8-0.4,11.7-0.6,17.5
			c0,1.1-0.1,2.2,0,3.3c0.1,1.1,0,2.2,0,3.3c0,0.5,0,1,0,1.5c0,0.3,0,0.7-0.2,1c-0.1,0.1-0.1,0.3,0,0.5c0.1,0.4,0.2,0.9,0.3,1.3
			c0,0.2,0.2,0.3,0.4,0.3c0.6,0,1.1,0,1.7-0.1c0.6-0.1,1.2-0.2,1.8-0.2c0.3,0,0.6,0.1,0.9,0.2c0.4,0.1,0.7,0,0.6-0.5
			c0-0.2-0.1-0.5-0.1-0.7c0.1-0.4-0.1-0.7-0.4-0.9c-0.1-0.1-0.2-0.3-0.2-0.4c-0.1-0.9-0.2-1.8-0.3-2.7c-0.1-1-0.1-2.1-0.2-3.1
			c0-0.5,0-1.1,0-1.6c0-1.2-0.1-2.3-0.2-3.5c-0.1-0.9-0.1-1.7-0.2-2.6c-0.1-1.1-0.2-2.1-0.2-3.2c0-1.3,0-2.5-0.1-3.8
			c-0.1-0.7,0-1.3,0-2c-0.1-1.2-0.1-2.5-0.2-3.7c0-0.5,0-1.1-0.1-1.6c-0.1-0.8-0.1-1.7-0.1-2.6c0-0.5,0-1-0.1-1.6
			C106.8,105.9,106.8,105,106.8,104 M133.5,138.2c0.5-0.1,1-0.3,1.4-0.4c0.7-0.2,1.4-0.3,2.1-0.5c0.8-0.2,1.6-0.3,2.4-0.5
			c1.3-0.4,2.6-0.9,4-1.1c1-0.2,1.9-0.3,2.9-0.5c0.6-0.1,1.2-0.2,1.8-0.3c0.3,0,0.2-0.2,0.2-0.4c-0.1-0.2-0.3-0.5-0.5-0.7
			c0,0-0.1-0.1-0.2,0c0,0-0.1,0.1-0.1,0.2c0,0.3,0.1,0.5,0.1,0.8c0,0-0.1,0.1-0.1,0.1c0,0-0.1,0-0.2-0.1c-0.2-0.3-0.4-0.6-0.4-1.1
			c0.1-0.7,0.1-1.4,0.2-2.1c0.1-0.5-0.1-0.7-0.5-1c-0.3-0.2-0.6-0.5-0.9-0.7c-0.1-0.1-0.2-0.2-0.3-0.2c-0.6,0-1.1,0.1-1.7-0.3
			c-0.3-0.2-0.9-0.2-1.3-0.2c-1.5-0.1-3-0.1-4.5,0.1c-0.6,0.1-1.3,0-1.9,0.1c-1.3,0.1-2.6,0.4-3.8,1c-1,0.4-2,0.9-3,1.4
			c-1.1,0.7-2.2,1.5-3.1,2.4c-0.3,0.3-0.6,0.7-0.7,1.2c-0.1,0.2-0.2,0.4,0,0.6c0.2,0.2,0.3-0.1,0.4-0.1c0.1,0,0.2-0.1,0.2,0
			c0.1,0,0.1,0.1,0.1,0.2c-0.3,0.3-0.1,0.6,0,1c0,1,0.5,2,0.5,3.1c0,0.1,0.1,0.3,0.3,0.1c0.6-0.4,1.3-0.5,2-0.8
			c1.3-0.5,2.7-0.6,4.1-1.2C133.1,138.2,133.2,138.2,133.5,138.2 M50.6,157.9c0,0.1,0,0.1,0,0.2c0.1,1,0.3,2.1,0.3,3.1
			c0,0.2,0.1,0.4,0.2,0.6c0.2-0.1,0.4-0.1,0.6-0.2c0.1,0,0.1,0,0.2,0c0.9-0.1,1.7-0.3,2.6-0.4c1.7-0.3,3.3-0.7,4.9-1.2
			c0.2-0.1,0.3-0.2,0.5-0.3c0,0,0-0.2,0-0.3c0,0-0.2,0-0.2,0c-0.3,0.2-0.6,0-0.6-0.3c0-0.6-0.1-1.1-0.1-1.7c0-0.6,0-1.2,0.1-1.7
			c0-0.2,0.1-0.4,0-0.6c-0.3-0.9-0.3-1.9-0.4-2.9c0-0.1,0-0.3,0.1-0.4c0.1-0.2,0-0.3-0.2-0.3c-0.1,0-0.2,0.1-0.4,0.1
			c-1,0.1-1.8,0.7-2.8,0.7c-0.5,0-1,0.3-1.5,0.4c-1.1,0.4-2.1,0.7-3.2,1.1c-0.1,0-0.2,0.1-0.3,0.1c-0.1,0-0.1,0.1-0.2,0.2
			c0.1,0,0.2,0.1,0.3,0.1c0.1,0,0.2,0,0.2,0c0,0.1-0.1,0.2-0.1,0.2c-0.4,0.1-0.3,0.4-0.3,0.6c0,0.6,0,1.2,0.1,1.8
			C50.4,157.1,50.5,157.4,50.6,157.9 M63.1,158.9c0.3-0.1,0.6-0.2,0.9-0.3c0.5-0.1,1-0.4,1.6-0.4c0.5,0,1-0.2,1.5-0.3
			c0.5-0.1,0.9-0.6,1.5-0.5c0,0,0.1-0.1,0.1-0.2c-0.1-0.1-0.2-0.2-0.3-0.1c-0.2,0.1-0.5,0.2-0.7,0.2c-0.4,0.1-0.9,0.3-1.3,0.4
			c-0.1,0-0.2,0-0.3-0.1c0.1-0.1,0.1-0.1,0.2-0.2c0.4-0.2,0.9-0.3,1.3-0.5c0.8-0.4,0.8-0.4,0.6-1.1c-0.1-0.2-0.1-0.4,0.1-0.5
			c0.2-0.2,0.3,0.1,0.4,0.2c0,0,0,0,0,0c0,0,0.1,0,0.1,0c0,0,0-0.1,0-0.1c-0.1-0.2-0.4-0.4-0.4-0.6c-0.1-0.6-0.2-1.1-0.5-1.6
			c-0.1-0.2-0.1-0.4-0.1-0.5c0-0.9,0-1.8,0-2.6c0-0.1-0.1-0.2-0.1-0.4c-0.1-0.2-0.1-0.3,0.1-0.4c0.1,0,0.1-0.1,0.2-0.2
			c-0.1,0-0.2-0.1-0.3-0.1c-0.7,0.2-1.4,0.4-2,0.6c-0.7,0.2-1.4,0.5-2.2,0.7c-0.9,0.2-1.8,0.7-2.8,0.8c-0.5,0-0.4,0.5-0.5,0.8
			c-0.1,0.3,0.1,0.4,0.2,0.5c0,0.1,0.3,0.2,0.3,0.3c-0.1,0.3-0.2-0.2-0.3,0c0,0.1-0.1,0.1-0.1,0.2c0,0.7,0,1.4,0.1,2.1
			c0,0,0,0,0,0.1c0.1,0.7,0.3,1.3,0.3,2c0,0.4,0,0.8,0.4,1.1c0.1,0,0.1,0.1,0.1,0.2c-0.1,0-0.2-0.1-0.2,0c-0.1,0-0.2,0.1-0.2,0.2
			c0,0.3,0.2,0.7,0.6,0.9c0.1,0.1,0.2,0.2,0.3,0.1C62,159.2,62.5,159,63.1,158.9 M108.5,141.9c-0.2,0-0.4,0-0.6,0
			c-0.1,0-0.3,0-0.3-0.1c-0.2-0.4-0.6-0.4-0.9-0.3c-0.7,0.2-1.4,0.3-2.1,0.3c-0.4,0-0.4,0.1-0.2,0.4c0.1,0.1,0.2,0.2,0.2,0.3
			c0,0.8,0.2,1.6-0.1,2.3c0,0.1,0,0.2-0.1,0.2c0.1,0,0.2,0.1,0.3,0c0.3-0.2,0.7-0.2,1.1-0.2c0.4,0,0.8-0.1,1.2-0.2
			c0.7-0.1,1.4-0.2,2.1-0.3c0.4-0.1,0.8-0.2,1.2-0.2c0.2,0,0.4-0.2,0.3-0.4c-0.2-0.5,0-1-0.1-1.4c0-0.2-0.1-0.3-0.1-0.5
			c0-0.2-0.1-0.3-0.3-0.1c-0.1,0.1-0.3,0.2-0.4,0.1C109.3,141.5,109,141.9,108.5,141.9 M110.7,29.1c0.2,0.2,0.3,0.3,0.5,0.5
			c0.1,0.1,0.2,0.1,0.3,0.1c0-0.1-0.1-0.3-0.1-0.4c-0.4-0.1-0.3-0.3-0.3-0.6c0-0.5-0.2-1.1-0.2-1.6c0-0.4-0.2-0.7-0.6-0.8
			c-0.7-0.3-1.4-0.5-2.2-0.5c-0.7,0-1.4,0-2,0.1c-0.4,0-0.9,0.4-0.9,0.8c0,0.8-0.1,1.7-0.1,2.5c0,0.1,0.1,0.1,0.1,0.2
			c0.1,0,0.1-0.1,0.2-0.1c0.3-0.3,0.6-0.6,1-0.8c0.2-0.1,0.3-0.2,0.5-0.3c0.6-0.5,1.3-0.5,1.9-0.2C109.4,28.3,110.1,28.7,110.7,29.1
			 M120.4,138.3c0-0.1,0-0.2,0-0.3c0-0.5,0-0.5-0.5-0.4c-0.1,0-0.2,0-0.3,0c0.1,0.1,0.1,0.2,0.2,0.2c0.2,0.3,0.1,0.6-0.2,0.7
			c-0.1,0-0.2,0-0.3,0c-0.6-0.2-1.1,0.3-1.6,0.2c0,0-0.2,0.2-0.2,0.3c0,0.2,0.1,0.4,0.1,0.6c0,0.5,0,0.9-0.1,1.4
			c0,0.4,0.2,0.7,0.3,1c0,0.1,0.2,0.2,0.3,0.2c0.8-0.3,1.6-0.3,2.4-0.6c0.2-0.1,0.4-0.3,0.4-0.4c0-0.3-0.1-0.5-0.2-0.8
			C120.6,139.7,120.5,139,120.4,138.3 M121,178.6c0.1,0.5,0.1,1.1,0.2,1.6c0.1,0.4,0.1,0.8,0.2,1.3c0.1,0.7,0.3,1.4,0.4,2.2
			c0.1,0.6,0.2,1.3,0.2,1.9c0.1,1.2,0.4,2.3,0.5,3.4c0.1,0.8,0,1.6,0.1,2.4c0,0.4,0.1,0.8,0.1,1.1c0,0.1,0.1,0.1,0.2,0.2
			c0-0.1,0.1-0.1,0.1-0.2c0-0.3-0.1-0.6-0.1-0.9c0-1.2,0-2.3,0-3.5c0-0.4,0-0.9-0.1-1.3c-0.2-0.7-0.2-1.5-0.3-2.2
			c-0.1-0.7-0.1-1.3-0.2-2c-0.1-0.7-0.2-1.4-0.3-2.1c-0.1-0.4-0.1-0.8-0.2-1.2c-0.1-0.4-0.2-0.8-0.2-1.2c-0.1-0.5-0.2-1.1-0.3-1.6
			c-0.2-0.8-0.3-1.6-0.4-2.4c0-0.5,0-1-0.1-1.4c-0.2-1.1-0.3-2.1-0.3-3.2c0-0.2,0.1-0.4,0-0.6c-0.1-0.6,0-1.2-0.5-1.6
			c0,0-0.1-0.1-0.1-0.1c0,0.1-0.1,0.2-0.1,0.2c0.2,1.2,0.4,2.3,0.4,3.5c0,0.4,0.2,0.9,0.2,1.3c0.1,0.7,0.1,1.5,0.2,2.2
			c0.1,0.7,0.2,1.3,0.3,2C120.8,177.2,120.9,177.8,121,178.6 M98.6,26.5c-0.6,0-1.2,0.1-1.7,0.1c-0.5,0-0.9,0-1.4,0.1
			c-0.1,0-0.2,0.1-0.3,0.2c-0.2,0.3-0.2,1-0.1,1.4c0.2,0.4,0.7,0.6,1.1,0.5c0.5-0.2,1.1-0.3,1.6-0.4c0.3-0.1,0.6,0,0.8,0.1
			c0.5,0.2,1.1,0.2,1.6,0.5c0.1,0,0.2,0,0.3,0c0-0.1,0-0.2-0.1-0.3c-0.2-0.3-0.4-0.6-0.6-0.9c-0.2-0.3,0-0.2,0.2-0.3
			c0.3-0.1,0.2,0.3,0.4,0.4c0.1,0,0.1,0.1,0.2,0.1c0-0.1,0.1-0.2,0-0.3c0-0.1-0.1-0.1-0.2-0.2C100.2,26.8,99.4,26.6,98.6,26.5
			 M101.6,35.3c0-0.2,0.1-0.5-0.2-0.6c-0.2-0.1-0.4-0.1-0.6,0.1c0,0.1-0.2,0-0.2,0.1c-0.2,0.3-0.4,0.1-0.5-0.1
			c-0.1-0.3,0.2-0.1,0.3-0.2c0.1,0,0.1-0.1,0.2-0.2c-0.1-0.1-0.2-0.1-0.3-0.2c-0.1,0-0.1,0-0.2,0c-0.6,0-1.2-0.1-1.8,0.1
			c-0.8,0.2-1.6,0-2.3-0.4c-0.1-0.1-0.2-0.1-0.3-0.1c0.1,0.1,0.1,0.2,0.1,0.3c0.1,0.3,0.2,0.4,0.6,0.4c0.1,0,0.2,0.2,0.3,0.3
			c-0.1,0-0.2,0.1-0.3,0.1c-0.4,0.1-0.6,0.6-0.3,1c0.1,0.1,0.1,0.1,0.2,0c0.6-0.5,1.3-0.4,2-0.3c0.6,0.2,1.2,0.5,1.8,0.7
			c0.4,0.1,0.8,0.2,1.1,0.4c0.2,0.1,0.3,0.2,0.4,0.3c0-0.2,0-0.4-0.1-0.6C101.5,36.1,101.7,35.8,101.6,35.3 M107.3,35.8
			c-0.2,0.2-0.5,0.4-0.7,0.6c-0.3,0.3-0.4,0.7-0.5,1.2c0,0.4,0.2,0.6,0.4,0.8c0.2,0.2,0.5,0.3,0.6,0.6c0.2,0.2,0.3,0.1,0.4,0
			c0.7-0.7,1.4-1.4,2.1-2.1c0.1-0.1,0.2-0.2,0.3-0.3c0.1-0.1,0.1-0.1,0.1-0.2c-0.1,0-0.2-0.1-0.3-0.1c-0.2,0.2-0.4,0.3-0.6,0.5
			c-0.4,0.4-0.7,0.8-1.1,1.1c0,0.1-0.2,0.1-0.2,0.1c-0.2-0.1,0-0.2,0.1-0.3c0.3-0.3,0.6-0.6,0.9-1c0,0,0-0.1,0-0.2
			c-0.1,0-0.2,0-0.2,0c-0.2,0.2-0.4,0.4-0.7,0.6c-0.2,0.1-0.4,0.2-0.7,0.3c-0.1-0.3,0.1-0.5,0.3-0.7c0.4-0.4,0.7-0.9,1.1-1.3
			c0.4-0.3,0.8-0.6,1.3-0.5c0.1,0,0.2,0.1,0.3,0.2c-0.1,0.1-0.1,0.1-0.2,0.2c-0.1,0.1-0.2,0.1,0,0.2c0.1,0.2,0.2,0,0.2,0
			c0,0,0,0,0,0c0.4-0.3,0.4-0.3,0.7,0.1c0.1,0.1,0.3,0.3,0.4,0.4c0.1,0.1,0.3,0.2,0.4,0.1c0.2-0.2,0-0.3-0.1-0.4
			c-0.1-0.1-0.2-0.2-0.3-0.3c-0.6-0.4-1.1-1.1-2-0.9c-0.5-0.4-1,0.1-1.6,0c-0.1,0-0.1,0.1-0.2,0.2c0,0,0,0.1,0,0.2c0,0,0.1,0,0.1,0
			c0.3,0,0.6,0,0.9,0c0,0,0.1,0.1,0.1,0.1c-0.1,0.1-0.1,0.1-0.2,0.1C108.1,35.1,107.7,35.4,107.3,35.8 M148,131.2
			c-0.4,1.1-0.5,2.1,0.5,3c0.4,0.3,0.7,0.4,1.2,0.3c0.3-0.1,0.6-0.1,0.2-0.5c0,0,0-0.2-0.1-0.2c-0.3-0.7-0.2-1.5,0-2.2
			c0.1-0.3,0.2-0.6,0.3-0.9c0-0.1,0.1-0.2,0-0.2c-0.1-0.1-0.2-0.1-0.3-0.1c-0.4,0.1-0.7,0.1-1,0.2C148.6,130.6,148,130.6,148,131.2
			 M110.6,38.2c-0.3,0.4-0.7,0.7-1,1.1c0,0-0.2,0-0.3,0c0-0.1,0-0.2,0.1-0.3c0.6-0.6,1.3-1.1,1.9-1.7c0.1-0.1,0.3-0.2,0.4-0.4
			c0-0.1,0-0.2-0.1-0.3c-0.1-0.2-0.2,0-0.2,0c-0.7,0.6-1.4,1.2-2.1,1.8c-0.1,0.1-0.2,0.2-0.4,0.2c-0.1,0-0.1,0.1-0.2,0.1
			c0-0.1,0-0.2,0.1-0.2c0.7-0.7,1.5-1.4,2.2-2c0.1-0.1,0.3-0.1,0.1-0.3c-0.1-0.1-0.2-0.2-0.4,0c-0.2,0.2-0.5,0.4-0.7,0.7
			c-0.7,0.7-1.4,1.4-2.2,2.1c-0.2,0.1-0.1,0.2,0,0.3c0.3,0.1,0.5,0.2,0.8,0.3c0.6,0.2,1.3,0,1.9-0.3c0.6-0.3,1-0.8,1.5-1.3
			c0.2-0.2,0.2-0.6,0.1-0.8c-0.3-0.3-0.4,0-0.6,0.1C111.2,37.7,110.9,37.9,110.6,38.2 M110.4,198.2c-0.3,0.1-0.6,0.2-0.8,0.3
			c-0.9,0.2-1.7,0.5-2.6,0.6c-0.1,0-0.2,0.1-0.2,0.1c0,0.2,0,0.4,0,0.6c0.1,0.2,0.3,0.3,0.6,0.2c0.3-0.1,0.6-0.1,1-0.3
			c0.8-0.3,1.6-0.5,2.3-0.8c0.9-0.3,1.8-0.7,2.7-1.1c0.5-0.2,0.9-0.4,1.4-0.6c0.8-0.3,1.6-0.5,2.4-0.8c0.3-0.1,0.5-0.2,0.8-0.3
			c0.1,0,0.1-0.1,0.2-0.2c-0.1,0-0.1,0-0.2,0.1c-0.4,0.1-0.7,0.3-1.1,0.4c-1.8,0.4-3.5,1.2-5.4,1.6
			C111.2,197.9,110.8,198,110.4,198.2 M110.6,30.1c-0.3-0.3-0.5-0.6-0.8-1c0,0-0.1-0.1-0.2-0.1c-0.1,0.5-0.4,0.1-0.5,0
			c-0.5-0.4-1-0.3-1.5,0c-0.5,0.3-1,0.6-1.5,0.9c-0.2,0.1-0.4,0.3-0.5,0.5c-0.1,0.1-0.2,0.2-0.3,0.3c0-0.1-0.1-0.3-0.1-0.4
			c0,0,0,0,0-0.1c0-0.1,0-0.1-0.1-0.2c0,0.1-0.1,0.2-0.1,0.2c-0.1,0.2,0.1,0.9,0.2,1.2c0.4,0.7,1.1,0.9,1.8,1c0.3,0,0.5,0,0.7-0.2
			c0.2-0.2,0.5-0.4,0.8-0.6c0.1-0.1,0.2-0.2,0.3-0.3c-0.2-0.1-0.4-0.2-0.5-0.2c-0.2,0-0.3,0.2-0.5,0.3c-0.1,0.1-0.3,0.2-0.4,0.3
			c-0.1,0-0.2,0-0.2,0c0-0.1,0-0.2,0.1-0.3c0.2-0.2,0.4-0.3,0.7-0.5c0,0,0-0.1,0-0.2c-0.1,0-0.1,0-0.2,0.1c-0.4,0.2-0.8,0.5-1.1,0.7
			c-0.1,0-0.2,0-0.3,0.1c0.1-0.1,0.1-0.3,0.2-0.3c0.3-0.2,0.6-0.4,0.9-0.6c0,0,0.1-0.1,0.1-0.1c-0.1,0-0.1-0.1-0.2,0
			c-0.3,0.1-0.6,0.2-0.8,0.4c-0.2,0.1-0.3,0.1-0.5,0c-0.3-0.1-0.2-0.2-0.1-0.3c0.7-0.7,1.6-1,2.4-1.6c0,0,0.1,0.1,0.2,0.1
			c0,0,0,0.1-0.1,0.1c-0.1,0-0.1,0-0.2,0.1c-0.1,0.1-0.2,0.1,0,0.2c0,0,0.1,0,0.2,0c0.1,0,0.3-0.2,0.4-0.1c0.3,0.1,0.6,0.3,1,0.4
			c0.2,0.1,0.2,0.1,0.1,0.3c-0.1,0.2,0.1,0.4,0.3,0.3c0.2-0.1,0.2-0.1,0.2,0.2c0,0.1,0,0.2,0,0.2c0.1,0,0.2,0,0.2-0.1
			C111.1,30.5,110.9,30.3,110.6,30.1 M152.4,133.8c0.4,0.1,0.4-0.1,0.3-0.4c-0.3-0.9-0.4-1.8-0.5-2.7c0-0.6-0.3-0.9-0.8-0.7
			c-0.2,0.1-0.5,0.1-0.5,0.5c-0.1,1.1,0,2.1,0.6,3c0,0.1,0,0.2,0,0.2c-0.1,0-0.2,0-0.3-0.1c-0.1,0-0.1-0.1-0.2-0.2
			c-0.1-0.1-0.2-0.2-0.3-0.2c0,0.1,0,0.2,0,0.4c0,0.1,0.1,0.1,0.1,0.2c0.1,0.3,0.1,0.5,0.5,0.3C151.6,133.9,152,133.9,152.4,133.8
			 M100.5,33.3c0.1-0.1,0.5-0.1,0.2-0.4c-0.2-0.3-0.4-0.5-0.6-0.8c0-0.1-0.1-0.1-0.2-0.1c0,0.1-0.1,0.2-0.1,0.3
			c0.1,0.2,0.2,0.3-0.1,0.5c-0.3,0.2-0.5,0.4-0.8,0.6c-0.1,0.1-0.2,0-0.3,0c0-0.1,0.1-0.2,0.1-0.2c0.2-0.2,0.4-0.4,0.6-0.5
			c0.1,0,0.3,0,0.1-0.1c0,0-0.2,0-0.2,0c-0.4,0.3-0.7,0.6-1.1,0.9c-0.1,0.1-0.2,0.1-0.3,0.1c0-0.1,0.1-0.2,0.2-0.3
			c0.1-0.1,0.3-0.2,0.5-0.3c0.1-0.1,0.1-0.2,0.1-0.2c-0.1,0-0.2-0.1-0.3-0.1c-0.2,0.1-0.4,0.2-0.5,0.3c-0.1,0-0.2,0-0.3,0
			c0-0.1,0.1-0.1,0.1-0.2c0.2-0.1,0.4-0.2,0.5-0.3c0.1,0,0.1-0.1,0.1-0.2c-0.1,0-0.2-0.1-0.2-0.1c-0.2,0-0.3,0.1-0.5,0.2
			c0,0-0.1,0-0.1,0c0,0,0-0.1,0-0.1c0-0.1,0.1-0.1,0.2-0.2c0,0,0.1-0.1,0.1-0.1c-0.1,0-0.1,0-0.2,0c-0.3,0.3-0.7,0.5-1.2,0.6
			c-0.1,0-0.1,0.3-0.1,0.4c0.1,0,0.2,0,0.3,0c0,0,0.1-0.1,0.1-0.1c0.1,0,0.2,0,0.2,0.1c0,0,0,0.1,0,0.2c-0.1,0.1-0.3,0.2-0.4,0.3
			c-0.1,0.1-0.2,0.1,0,0.2c0.6,0.4,1.3,0.4,1.9,0.3C98.9,33.7,99.7,33.5,100.5,33.3 M111.9,35.1c0.1,0,0.2,0.1,0.3,0.1
			c0-0.1,0-0.2,0-0.2c0-0.2,0-0.4-0.1-0.6c-0.1-0.3-0.1-0.7-0.2-1c0-0.1-0.1-0.2-0.3-0.3c-0.3-0.1-0.5-0.2-0.8-0.2
			c-0.8,0-1.5,0-2.3,0c-0.2,0-0.4,0.1-0.6,0.1c-0.1,0-0.2,0.2-0.2,0.3c0,0.2,0.8,0.5,1,0.5c0.5,0,1-0.1,1.5,0.1
			C110.9,34.3,111.4,34.7,111.9,35.1 M5.9,165.1c0.5-0.3,1.1-0.6,1.6-0.8c0.8-0.4,1.6-0.9,2.4-1.4c1.1-0.6,2.2-1.2,3.3-1.8
			c1.2-0.6,2.4-1.1,3.7-1.6c0.6-0.2,1.1-0.4,1.7-0.6c0.1,0,0.1-0.1,0.2-0.2c-0.1,0-0.2,0-0.2,0c-1.3,0.5-2.6,0.9-3.9,1.4
			c-1.1,0.4-2.1,1-3.1,1.5c-0.9,0.5-1.7,1-2.6,1.5c-1.1,0.6-2.2,1.2-3.2,1.8c-0.2,0.1-0.4,0.3-0.6,0.5c0.2-0.1,0.4-0.2,0.6-0.2
			C5.8,165.1,5.8,165.1,5.9,165.1 M98.9,41.3c0.5-0.2,1-0.3,1.4-0.6c0.3-0.1,0.5-0.4,0.7-0.7c0,0,0-0.1-0.1-0.1c0,0-0.1-0.1-0.1,0
			c-0.2,0.1-0.3,0.3-0.4,0.4c-0.2,0.1-0.4,0.3-0.6,0.1c-0.3-0.3-0.5-0.3-0.8,0c-0.1,0.1-0.2,0.1-0.3,0.1c-0.1,0-0.3,0-0.4,0
			c0.1-0.1,0.2-0.2,0.3-0.2c0.1-0.1,0.2-0.2,0.3-0.3c0,0,0.1-0.1,0.2-0.1c-0.1-0.1-0.1-0.2-0.2-0.2c0,0-0.1,0-0.2,0.1
			c-0.3,0.4-0.9,0.5-1.3,0.8c-0.1,0-0.2,0-0.3,0c0-0.1,0.1-0.1,0.1-0.2c0-0.1,0.1-0.2,0.1-0.2C97.2,40,97,39.9,97,40
			c-0.2,0.1-0.4,0.2-0.5,0.4c0,0,0,0.1,0,0.1c0.3,0.5,1.4,1.1,2,1C98.5,41.5,98.7,41.4,98.9,41.3 M59.4,158.2c0,0.3,0.1,0.5,0.4,0.6
			c0.1,0,0.2,0,0.2,0c0,0-0.1-0.1-0.1-0.1c-0.1-0.3-0.3-0.6-0.1-0.8c0.2-0.2,0.1-0.4,0.1-0.7c0-0.2-0.1-0.3-0.1-0.5
			c0-0.7,0.1-1.4,0-2.1c-0.1-0.6,0-1.2-0.1-1.8c0-0.4-0.1-0.9-0.2-1.3c0-0.1-0.1-0.2-0.2-0.3c-0.1,0.1-0.2,0.2-0.2,0.4
			c0,0.1,0,0.1,0,0.2c0,0.6,0,1.3,0.1,1.9c0.2,1,0.3,2,0.3,3C59.5,157.1,59.4,157.6,59.4,158.2 M98.9,29.9c0.1,0,0.1,0.1,0.2,0.1
			c-0.1,0.1-0.3,0.3-0.4,0.4c0,0,0,0.1,0,0.1c0,0,0.1,0,0.1,0c0.2-0.1,0.4-0.3,0.6-0.4c0.1,0,0.2,0,0.2,0c0,0,0,0.1,0,0.1
			c-0.2,0.2,0.1,0.5-0.2,0.7c-0.2,0.1-0.3,0.4-0.3,0.4c0.3,0.3,0.3-0.2,0.5-0.2c0,0,0.1-0.1,0.1-0.1c0.1-0.3,0.1-0.2,0.3,0
			c0.3,0.5,0.7,1,1,1.5c0,0.1,0.1,0.1,0.2,0.1c0-0.1,0-0.2,0-0.2c0-0.2,0-0.5-0.2-0.7c-0.1-0.2-0.4-0.3-0.5-0.5
			c-0.2-0.4-0.6-0.7-0.6-1.2c0-0.5-0.5-0.8-0.9-0.9c-0.2,0-0.2,0.2-0.3,0.2c-0.2,0-0.3-0.2-0.4-0.2c-0.3,0-0.5,0.1-0.8,0.1
			c-0.1,0-0.1,0.1-0.1,0.1c0,0,0.1,0.1,0.1,0.1c0.1,0,0.2,0,0.3,0c0.4-0.1,0.5,0.2,0.6,0.5c0,0.1,0.1,0.1,0.1,0.2
			c0.1,0,0.1-0.1,0.2-0.1C98.7,30.1,98.7,30,98.9,29.9 M104.2,191.6c0-0.5,0.1-1,0-1.5c0-0.5,0-1-0.1-1.6c0,0-0.1-0.1-0.1-0.1
			c-0.1,0-0.1,0.1-0.2,0.1c0,0.1-0.1,0.3,0,0.4c0.2,0.3,0.1,0.7,0.1,1c0,1.6-0.1,3.2-0.2,4.8c0,0.2,0,0.3,0,0.5c0,0,0,0.1,0,0.1
			c0,0,0.1,0,0.1-0.1c0-0.1,0.1-0.3,0.1-0.4C104.1,193.8,104.2,192.8,104.2,191.6 M102,34.3c0.1,0.1,0.2,0.1,0.3,0.2
			c0.3,0.1,0.5,0.1,0.7-0.1c0.3-0.3,0.1-0.4-0.1-0.6c-0.1-0.1-0.1-0.2-0.1-0.3c-0.3-0.4-0.6-0.4-1-0.1c-0.2,0.2-0.5,0.4-0.7,0.5
			C101.3,34,101.6,34.1,102,34.3 M97.1,169.8c-0.6-0.1-1.2,0-1.7,0.2c-0.4,0.2-0.9,0.4-1.3,0.6c0,0,0,0.1,0,0.1c0.2,0,0.4,0,0.6,0
			c0.7-0.2,1.4-0.4,2.1-0.5c0.3-0.1,0.7-0.2,1-0.2c0,0,0.1-0.1,0.1-0.1c-0.1,0-0.1-0.1-0.2-0.1C97.6,169.7,97.4,169.7,97.1,169.8
			 M99.9,37.8c0-0.3-0.1-0.7-0.4-0.9c-0.4-0.3-1.3-0.2-1.7,0.1c-0.1,0.1-0.1,0.1-0.1,0.2c0.1,0,0.2,0.1,0.3,0.1
			c0.2-0.1,0.3-0.2,0.5-0.3c0.3-0.1,0.3-0.1,0.3,0.2c0,0.2,0,0.3,0.2,0.2c0.1,0,0.1-0.1,0.2-0.1c0.1,0,0.2,0,0.2,0.1
			c0,0.1-0.1,0.1-0.1,0.2c0,0.1-0.1,0.1-0.2,0.1c0.1,0,0.1,0.1,0.2,0.1C99.5,37.9,99.6,37.8,99.9,37.8 M104.8,198c0,0.2,0,0.4,0,0.6
			c0,0.1,0.2,0.1,0.3,0.2c0-0.1,0.1-0.1,0.1-0.2c0-0.3-0.1-0.6-0.1-1c0-0.8,0-1.6-0.1-2.4c0-0.1,0-0.2-0.1-0.3
			c-0.1,0.1-0.2,0.2-0.2,0.3c0,0.1,0,0.3,0,0.5C104.8,196.3,104.8,197.1,104.8,198 M106,63.2c0-0.3,0.2-0.7-0.2-1
			c-0.2-0.2-0.2-0.3,0-0.4c0,0,0-0.2,0-0.3c0,0-0.1-0.1-0.1-0.1c-0.1,0-0.2,0.1-0.2,0.2c0,0.3,0,0.5,0.1,0.8c0,0.2,0.1,0.4,0.1,0.6
			c0,0.5,0.1,1,0.1,1.5c0,0,0.1,0.1,0.1,0.1c0.1-0.1,0.3-0.2,0.3-0.3C106.2,63.9,106.1,63.6,106,63.2 M108.3,32.2
			c-0.1,0.1-0.1,0.1-0.2,0.2c0,0,0.1,0.1,0.1,0.1c0.3,0,0.6,0,0.8-0.2c0.3-0.2,0.6-0.5,0.9-0.7c0.1-0.1,0.3-0.1,0.4-0.2
			c0.1,0,0.1-0.1,0.1-0.2c-0.1,0-0.2-0.1-0.2-0.1c-0.1,0-0.2,0.1-0.3,0.2c-0.1,0.1-0.2,0.3-0.4,0.3C109,31.6,108.7,31.9,108.3,32.2
			 M95.1,38.2c0-0.2,0-0.3,0-0.5c0,0,0-0.1,0-0.1c0,0-0.1,0.1-0.1,0.1c-0.3,0.5-0.3,1.1-0.3,1.6c0,0.5,0.2,0.8,0.6,1
			c0.1,0,0.1,0,0.2,0.1c0-0.1,0-0.1,0-0.2c-0.2-0.2-0.4-0.4-0.4-0.6C94.9,39.1,95,38.7,95.1,38.2 M97.6,30.8c-0.1,0-0.1-0.3-0.3-0.1
			c-0.3,0.2-0.5,0.5-0.8,0.6c-0.3,0.1-0.4,0.3-0.5,0.6c0,0.1,0,0.2,0,0.2c0.1,0,0.2,0,0.3-0.1C96.7,31.6,97.1,31.2,97.6,30.8
			 M97.6,30c-0.1,0-0.2,0-0.3,0c-0.5,0-1,0.3-1.1,0.8c0,0.1,0,0.2,0,0.2c0.1,0,0.2,0,0.2-0.1c0.2-0.1,0.4-0.2,0.6-0.4
			C97.2,30.3,97.6,30.4,97.6,30 M96,40.1c0.2,0.2,0.3,0,0.4-0.1c0.1-0.1,0.4,0,0.2-0.3c-0.1-0.1-0.2-0.2-0.4-0.2
			c-0.1,0-0.2,0-0.3,0.1c0-0.1,0.1-0.2,0.1-0.3c0-0.1,0.1-0.2,0.1-0.3c-0.1,0-0.2,0.1-0.3,0.1C95.5,39.4,95.5,39.6,96,40.1
			 M104.9,192.3c0,0.7-0.1,1.3-0.1,2c0,0.1,0.1,0.1,0.1,0.2c0-0.1,0.1-0.1,0.1-0.2c0-0.6,0-1.2,0.1-1.7
			C105.1,192.4,105.1,192.3,104.9,192.3 M101.2,30.4c0,0,0-0.1-0.1-0.1c-0.1-0.1-0.1-0.2-0.2-0.3c0,0.1-0.1,0.2-0.1,0.3
			c0.1,0.3,0.1,0.7,0.2,1c0,0.1,0.1,0.2,0.2,0.3c0,0,0.1,0,0.2,0c0,0,0.1-0.1,0.1-0.1C101.4,31.2,101.4,30.8,101.2,30.4 M100.5,39.1
			c-0.2,0.2-0.4,0.4-0.6,0.6c-0.1,0.1-0.2,0.2,0,0.2c0.1,0,0.2,0.1,0.3,0.1c0.3-0.2,0.6-0.5,0.8-0.8c0,0,0-0.1,0-0.2
			C100.8,39.1,100.7,39.1,100.5,39.1 M99.2,39.4c0.1,0.1,0.2,0.2,0.2,0.2c0.4-0.3,0.8-0.6,1.3-0.9c0,0,0-0.1,0-0.2
			c0,0-0.1-0.1-0.1-0.1C100.1,38.8,99.7,39.1,99.2,39.4 M106.9,30.4c-0.1,0.1-0.3,0.2-0.4,0.3c0,0,0,0.1,0,0.2c0,0,0.1-0.1,0.1-0.1
			c0.5-0.3,1-0.6,1.5-0.9c0,0,0.1-0.1,0.1-0.1c-0.1,0-0.1-0.1-0.2-0.1C107.6,29.8,107.3,30.1,106.9,30.4 M105.3,32.2
			c-0.1,0.1-0.2,0.1-0.3,0.2c0.1,0.1,0.1,0.2,0.2,0.2c0.3,0.1,0.6,0.3,0.8,0.4c0.1,0,0.2,0,0.2,0c0-0.1,0-0.2-0.1-0.3
			C105.9,32.5,105.7,32.4,105.3,32.2 M110.6,31.8c0.1-0.1,0.3-0.1,0.4-0.2c0,0,0-0.1,0.1-0.1c0,0-0.1,0-0.1,0
			c-0.5,0-0.9,0.4-1.3,0.6c0,0,0,0.1,0,0.1c0.1,0,0.1,0.1,0.2,0C110,32.1,110.3,32,110.6,31.8 M96.9,38.9c0.2-0.2,0.5-0.3,0.7-0.5
			c0.1,0,0.1-0.2,0.1-0.3c0-0.1-0.2-0.1-0.2-0.1c-0.3,0.2-0.5,0.5-0.8,0.7c0,0-0.1,0.1,0,0.2C96.7,38.9,96.7,38.9,96.9,38.9
			 M101.3,38c0.1,0.1,0.1,0.2,0.2,0.2c0.1,0,0.2-0.1,0.2-0.1c-0.1-0.3-0.2-0.5-0.4-0.8c-0.1-0.2-0.4-0.2-0.6-0.3
			c0.1,0.1,0.2,0.3,0.3,0.4C101.1,37.6,101.2,37.7,101.3,38 M95.9,37.3c-0.2,0.2-0.3,0.4-0.3,0.7c0,0,0,0.1,0,0.1c0,0,0.1,0,0.1-0.1
			c0.2-0.3,0.4-0.5,0.5-0.8c0-0.1-0.1-0.2-0.1-0.4C96.1,37.1,96.1,37.1,95.9,37.3 M96.9,37.5c-0.1,0.2-0.3,0.4-0.4,0.6
			c0.2-0.1,0.4-0.2,0.7-0.3c0,0,0.1-0.1,0.1-0.1c0-0.1,0.1-0.2,0.1-0.2C97.2,37.5,97.1,37.5,96.9,37.5 M94.9,36.6
			C94.9,36.6,94.9,36.6,94.9,36.6C94.9,36.6,95,36.6,94.9,36.6c0.3-0.3,0.3-0.6,0.3-1c0-0.1-0.1-0.2-0.1-0.2
			c-0.1,0.1-0.2,0.2-0.2,0.3C94.9,35.9,94.9,36.2,94.9,36.6 M106.8,34.2c0.1-0.2,0.2-0.4,0.2-0.6c0-0.1,0-0.2-0.1-0.2
			c-0.1,0-0.3,0-0.3,0.1c-0.1,0.2-0.1,0.5-0.2,0.7C106.5,34.2,106.7,34.2,106.8,34.2 M118.1,137.7c-0.2,0-0.3,0.1-0.5,0.1
			c-0.1,0-0.1,0.1-0.1,0.2c0.1,0,0.1,0.1,0.2,0.1c0.3-0.1,0.7-0.2,1-0.3c0,0,0-0.1,0-0.1c0,0-0.1-0.1-0.1-0.1
			C118.4,137.6,118.3,137.7,118.1,137.7 M99.3,38.4C99.3,38.5,99.3,38.5,99.3,38.4c-0.3,0.2-0.5,0.2-0.6,0.4c0,0.1,0.1,0.2,0.1,0.2
			c0.2-0.1,0.4-0.1,0.6-0.2C99.5,38.8,99.4,38.6,99.3,38.4 M109.3,30.8c0.1,0.2,0.3,0.2,0.4,0c0,0,0.1-0.1,0.2-0.1
			c-0.1-0.1-0.2-0.3-0.3-0.4c0,0-0.1,0.1-0.2,0.1C109.3,30.6,109.3,30.7,109.3,30.8 M96.9,39.2c0.1,0.1,0.1,0.2,0.2,0.2
			c0.2-0.1,0.4-0.2,0.6-0.4c0.1,0,0.1-0.1,0.1-0.2c-0.1,0-0.2,0-0.3,0C97.3,38.9,97.2,39,96.9,39.2 M97.6,39.5
			c-0.1,0.1-0.2,0.2-0.3,0.3c0.1,0,0.2,0,0.4,0.1c0.1,0,0.1,0,0.2,0c0.1,0,0.2-0.1,0.2-0.2c0-0.1-0.1-0.2-0.2-0.3
			C97.9,39.3,97.8,39.4,97.6,39.5 M98.6,38.1c-0.2,0-0.3,0.2-0.3,0.4c0,0,0.2,0,0.4-0.1c0.1,0,0.1,0,0.2-0.1
			c0.1-0.1,0.1-0.2,0.1-0.3C98.9,38,98.8,38,98.6,38.1 M107.4,34.4c0.1-0.1,0.2-0.1,0.2-0.2c0-0.1,0.1-0.2,0.1-0.3
			c0-0.1-0.2-0.1-0.3-0.2c0,0.1-0.1,0.2-0.1,0.3C107.3,34.1,107.3,34.3,107.4,34.4 M99.7,38.4c0.1,0,0.2,0,0.3,0
			c0.1,0,0.2-0.1,0.3-0.2c0,0-0.1-0.1-0.1-0.1c-0.1,0-0.2,0-0.3,0C99.8,38.2,99.7,38.3,99.7,38.4 M95.5,38.8c0,0.1,0,0.2,0,0.3
			c0.1-0.1,0.2-0.1,0.2-0.2c0.2-0.1,0.2-0.3,0.1-0.4C95.8,38.4,95.6,38.6,95.5,38.8 M111.7,39.1c0-0.1,0.1-0.3,0.1-0.4
			c-0.1,0.1-0.2,0.1-0.3,0.2c0,0-0.1,0.1-0.1,0.1c0,0.1-0.1,0.2-0.1,0.3C111.5,39.2,111.6,39.2,111.7,39.1 M98.3,37.8
			c0.1-0.1,0.2-0.1,0.3-0.2c-0.1-0.1-0.2-0.2-0.2-0.2c-0.1,0.1-0.3,0.2-0.4,0.3C98,37.8,98.1,37.9,98.3,37.8 M104,34.2
			c0-0.1,0-0.3,0-0.3c-0.2,0-0.5,0.3-0.4,0.5c0,0.1,0.1,0.1,0.2,0.2c0-0.1,0-0.1,0.1-0.2C103.9,34.3,103.9,34.3,104,34.2
			 M96.4,167.9c-0.1,0-0.2,0-0.3,0c-0.1,0-0.1,0.1-0.2,0.2c0.1,0,0.1,0.1,0.2,0.1c0.1,0,0.3,0,0.4,0
			C96.5,168.1,96.5,167.9,96.4,167.9 M95.2,30.8c0,0.1,0,0.3,0,0.4c0,0.1,0.1,0.2,0.1,0.3c0.1-0.1,0.2-0.2,0.2-0.3
			C95.4,31,95.3,30.9,95.2,30.8 M109,30.1c0,0.1-0.3,0.1,0,0.2c0.1,0,0.2,0,0.2,0c0.1-0.1,0.3-0.3,0.4-0.5
			C109.3,29.9,109.2,30,109,30.1 M120.6,142.4c0.1-0.1,0.1-0.1,0.2-0.2c-0.1,0-0.1-0.1-0.2-0.1c-0.1,0-0.2,0-0.3,0
			c-0.1,0.1-0.1,0.2-0.2,0.3C120.2,142.4,120.4,142.4,120.6,142.4 M98.1,31.1c0-0.2-0.1-0.5-0.1-0.7c0,0-0.1,0-0.1,0
			c0,0.2,0,0.4,0,0.6C97.9,31,97.9,31.1,98.1,31.1 M104.1,196.3c0-0.1-0.1-0.1-0.1-0.2c0,0-0.1,0-0.2,0.1c0,0.2,0,0.4,0,0.5
			c0,0,0.1,0,0.2,0.1c0-0.1,0-0.1,0-0.2C103.9,196.5,104,196.5,104.1,196.3 M117,139.2C117,139.2,117,139.2,117,139.2
			C116.9,139.2,116.9,139.2,117,139.2c-0.1,0.2-0.1,0.4-0.2,0.7c0,0,0.1,0.1,0.2,0.1c0,0,0.1-0.1,0.1-0.1
			C117.1,139.7,117,139.5,117,139.2 M99.8,31.4c-0.1,0-0.2,0-0.2,0.1c-0.1,0.1-0.1,0.2-0.2,0.3c0.1,0,0.3,0,0.4-0.1
			C99.9,31.7,99.9,31.6,99.8,31.4 M127.2,132.6c0.1-0.1,0.2-0.2,0.3-0.3c0,0,0-0.1,0-0.1c0,0-0.1,0-0.1,0
			C127.3,132.3,127,132.3,127.2,132.6 M108.5,36.1c-0.1,0.1-0.2,0.2-0.3,0.3c0,0,0,0.1,0,0.1c0,0,0.1,0,0.1,0
			C108.3,36.4,108.7,36.4,108.5,36.1 M117.1,141.2c-0.1-0.1-0.1-0.1-0.2-0.2c0,0.1-0.1,0.1-0.1,0.2c0,0.1,0,0.2,0,0.3
			c0,0,0.1,0.1,0.2,0.1C117,141.5,117,141.4,117.1,141.2 M110.4,36.1c0.1,0,0.1,0,0.2-0.1c0-0.1,0.1-0.1,0.1-0.2
			c-0.1,0-0.2-0.1-0.2,0C110.3,35.9,110.1,35.9,110.4,36.1 M103.3,34.7c-0.3,0-0.3,0.1-0.3,0.3c0,0,0,0.1,0,0.1c0,0,0.1,0,0.1-0.1
			C103.2,35,103.2,34.9,103.3,34.7 M118.3,142.5c-0.1,0-0.2,0.1-0.3,0.1c0,0.1,0.1,0.2,0.1,0.2C118.2,142.8,118.4,142.9,118.3,142.5
			 M103.3,35.5C103.2,35.5,103.2,35.5,103.3,35.5C103.2,35.5,103.2,35.5,103.3,35.5c-0.1,0.1-0.1,0.2-0.1,0.3c0,0,0.1,0,0.2,0
			C103.3,35.8,103.3,35.7,103.3,35.5 M95.4,28.8c-0.1,0-0.1-0.1-0.2-0.1c-0.1,0-0.1,0.1-0.1,0.2c0,0.1,0.1,0.1,0.2,0.2
			C95.4,29,95.4,29,95.4,28.8 M93.4,170.4C93.5,170.3,93.5,170.3,93.4,170.4c0-0.1-0.1-0.1-0.1-0.1c-0.1,0-0.2,0.1-0.2,0.1
			C93.1,170.4,93.2,170.4,93.4,170.4 M98.7,32.3c0.1,0,0.3,0,0.4,0c0-0.1,0-0.1,0-0.2C98.9,32.2,98.8,32.2,98.7,32.3 M100.4,29.4
			c-0.1,0-0.2,0-0.2,0c0,0.1,0.1,0.2,0.1,0.2C100.3,29.5,100.4,29.5,100.4,29.4 M109,29.8c0,0,0.1-0.1,0.1-0.1
			c-0.2-0.2-0.3,0-0.4,0.1C108.8,29.8,108.8,29.9,109,29.8 M98.4,39.4C98.4,39.4,98.4,39.4,98.4,39.4C98.5,39.4,98.5,39.4,98.4,39.4
			c0.1,0,0.1-0.1,0.1-0.2C98.4,39.2,98.4,39.3,98.4,39.4 M109.4,35.8c0,0.1,0,0.2,0,0.3C109.4,36,109.4,35.9,109.4,35.8 M109.3,35.4
			c0,0-0.1,0.1-0.1,0.1c0.1,0,0.1,0,0.2,0.1C109.4,35.5,109.4,35.4,109.3,35.4 M103.3,33.5c0,0.1,0,0.2,0,0.3c0.1,0,0.1,0,0.2-0.1
			C103.4,33.6,103.4,33.6,103.3,33.5 M98.5,31.7C98.5,31.7,98.5,31.7,98.5,31.7C98.5,31.7,98.5,31.7,98.5,31.7
			c-0.1,0-0.1,0.1-0.1,0.2C98.5,31.9,98.6,31.8,98.5,31.7 M116.3,142.5c0-0.1,0-0.1,0.1-0.2c0,0-0.1,0-0.1,0
			C116.2,142.3,116.2,142.3,116.3,142.5 M106.8,29.3c0.1,0,0.1,0,0.2,0c0,0,0-0.1,0-0.1C106.9,29.2,106.8,29.2,106.8,29.3
			 M153.1,133.4C153.1,133.4,153.1,133.3,153.1,133.4C153.1,133.4,153.1,133.4,153.1,133.4 M98.2,31.4
			C98.2,31.4,98.3,31.3,98.2,31.4C98.2,31.3,98.2,31.3,98.2,31.4 M95.4,33.5C95.4,33.5,95.4,33.5,95.4,33.5
			C95.5,33.5,95.5,33.5,95.4,33.5 M112.1,36.5C112.1,36.5,112,36.5,112.1,36.5C112,36.5,112,36.6,112.1,36.5 M150,133.1
			C150.1,133.2,150.1,133.2,150,133.1C150.1,133.1,150.1,133.1,150,133.1z"/>
		<path class="st0" d="M104,205.5c-0.1-0.2-0.2-0.5-0.2-0.7c0-0.1,0-0.2,0.1-0.2c0,0,0.1,0.1,0.1,0.1c0.3,0.7,0.7,1.1,1.4,1.5
			c0.3,0.2,0.6,0.5,0.8,0.7c1.2,1.2,2.4,2.5,3.7,3.6c0.8,0.7,1.7,1.3,2.5,2c0.7,0.5,1.3,1.1,2,1.7c1,0.8,2,1.6,3,2.4
			c0.8,0.6,1.6,1.2,2.4,1.8c0.4,0.3,0.7,0.6,1.1,0.9c0.7,0.7,1.4,1.3,2.2,1.9c0.7,0.5,1.2,1.2,1.9,1.7c0.7,0.6,1.3,1.2,2,1.7
			c0.3,0.2,0.5,0.5,0.7,0.8c0.7,0.9,1.7,1.5,2.5,2.3c0.4,0.4,0.9,0.7,1.3,1.2c1,1,1.9,2.1,2.9,3.1c0.3,0.3,0.4,0.6,0.4,1.1
			c0,0.3-0.2,0.4-0.5,0.4c-0.3-0.1-0.6-0.2-0.8-0.4c-1.1-1.2-2.1-2.4-3.3-3.5c-0.6-0.6-1.3-1.1-1.9-1.7c-0.7-0.6-1.4-1.2-2.1-1.8
			c-1.1-1-2.3-1.9-3.4-2.9c-0.2-0.1-0.3-0.3-0.4-0.4c-1.1-1.1-2.1-2.1-3.3-3c-0.4-0.3-0.7-0.8-1.2-1.2c-0.8-0.7-1.7-1.4-2.5-2
			c0,0-0.1,0-0.2-0.1c-0.1-0.1-0.1-0.1-0.2-0.1c0,0-0.1,0-0.1,0c0,0,0.1,0.1,0.1,0.1c0,0.1,0.1,0.1,0.1,0.1c0.3,0.3,0.7,0.7,1,1
			c0.8,0.7,1.5,1.4,1.8,2.4c0,0.1,0,0.1,0,0.2c-0.1,0-0.1,0-0.2-0.1c-0.3-0.3-0.5-0.7-0.8-1c-0.5-0.5-1-1.1-1.5-1.6
			c-0.6-0.5-1.2-1-1.8-1.5c-1-0.8-1.9-1.7-2.9-2.5c-0.4-0.4-0.8-0.9-1.2-1.4c-0.2-0.2-0.5-0.5-0.7-0.6c-1.2-0.8-2.3-1.8-3.3-2.7
			c-0.7-0.6-1.4-1.2-2.1-1.8c-0.1-0.1-0.2-0.1-0.3-0.1c0,0.1,0,0.2,0,0.2c0,0,0,0,0,0c0,0.2,0,0.4-0.1,0.6c-0.1-0.2-0.4-0.3-0.3-0.5
			c0-0.1,0-0.3-0.1-0.3c-0.4-0.4-0.7-1-1.2-1.3c-1-0.6-1.8-1.4-2.6-2.3c-0.2-0.2-0.3-0.3-0.1-0.6c0.1-0.1,0.6-0.2,0.7,0
			c0.1,0.1,0.2,0.2,0.3,0.3c0.7,0.7,1.5,1.5,2.2,2.2c0.1,0.1,0.1,0.2,0.2,0.2c0.1,0.1,0.3,0.1,0.5,0.1c-0.1-0.1-0.1-0.3-0.2-0.4
			c-0.3-0.5-0.2-0.8,0.3-0.9c0.2,0,0.3,0,0.4,0.2C103.3,204.7,103.6,205.1,104,205.5c0.1,0.2,0.1,0.3,0.2,0.4c0,0,0.1-0.1,0.1-0.1
			c0-0.1-0.1-0.2-0.1-0.3C104.1,205.5,104,205.5,104,205.5z"/>
		<path class="st0" d="M153.4,140.6c0.6-0.2,1.2-0.3,1.8-0.5c1.2-0.3,2.5-0.5,3.7-0.8c0.7-0.1,1.4-0.3,2.1-0.4
			c0.3-0.1,0.6-0.1,0.9-0.1c0.1,0,0.1,0.1,0.2,0.1c0,0.1-0.1,0.2-0.1,0.2c-0.8,0.4-1.7,0.7-2.5,0.9c-0.7,0.2-1.3,0.4-2,0.5
			c-0.6,0.2-1.2,0.3-1.8,0.4c-0.9,0.2-1.8,0.4-2.7,0.6c-1,0.2-1.9,0.5-2.9,0.7c-0.4,0.1-0.8,0.2-1.2,0.4c-1,0.3-2,0.5-3,0.8
			c-1,0.3-2,0.7-3,1c-0.6,0.2-1.3,0.3-1.9,0.5c-0.8,0.2-1.5,0.5-2.3,0.7c-1.2,0.3-2.4,0.6-3.6,1c-0.9,0.2-1.7,0.6-2.6,0.7
			c-1.6,0.2-3.1,0.7-4.7,0.9c-0.5,0.1-1,0.3-1.5,0.5c-0.7,0.2-1.4,0.3-2.1,0.5c-0.4,0.1-0.8,0.3-1.2,0.4c-0.7,0.2-1.5,0.3-2.2,0.5
			c-0.9,0.2-1.8,0.4-2.7,0.6c-0.1,0-0.3,0-0.4,0c-0.1,0-0.3,0.1-0.3-0.2c0-0.2,0-0.4,0.3-0.5c0.6-0.1,1.3-0.2,1.9-0.3
			c0.3-0.1,0.6-0.2,1-0.3c0.9-0.1,1.9-0.4,2.8-0.7c1.1-0.3,2.1-0.5,3.2-0.8c1-0.2,2-0.5,3-0.7c0.7-0.2,1.4-0.3,2.1-0.5
			c0.4-0.1,0.8-0.2,1.2-0.3c1.4-0.3,2.8-0.7,4.2-1c0.8-0.2,1.5-0.5,2.2-0.7c1.1-0.3,2.2-0.6,3.3-1c1.1-0.3,2.3-0.6,3.4-1
			c1.1-0.3,2.2-0.7,3.3-1c1.1-0.3,2.2-0.5,3.4-0.8C152.9,140.7,153.1,140.6,153.4,140.6z"/>
		<path class="st0" d="M155,185.8c0.8,0.5,1.6,1,2.3,1.5c0.8,0.6,1.5,1.2,2.3,1.7c0.6,0.4,1.3,0.7,2,1.1c1.3,0.7,2.5,1.5,3.7,2.3
			c0.7,0.4,1.5,0.8,2.1,1.3c0.4,0.4,0.8,0.7,1.2,1.1c0.1,0.1,0.1,0.2,0.1,0.3c-0.1,0-0.2,0.1-0.3,0c-0.3-0.1-0.7-0.3-1-0.5
			c-0.2-0.1-0.4-0.2-0.6-0.2c-0.1,0-0.2,0-0.2-0.1c0.1,0.1,0.1,0.1,0.2,0.2c0.6,0.4,1.2,0.8,1.9,1c0.1,0,0.1,0.1,0.2,0.1
			c0,0.1,0.1,0.2,0.1,0.2c-0.1,0-0.2,0.1-0.2,0c-1.1-0.3-2.1-0.9-3-1.5c-1.2-0.9-2.3-1.8-3.5-2.6c-0.9-0.6-1.8-1.1-2.9-1.4
			c-0.9-0.3-1.7-0.7-2.5-1.2c-0.8-0.5-1.5-1-2.3-1.5c-1.1-0.6-2.2-1.2-3.3-1.8c-0.6-0.3-1.1-0.7-1.6-1c-0.1,0-0.1,0-0.2-0.1
			c0,0.1,0,0.1,0.1,0.2c0.6,0.6,1.3,1.1,2.1,1.5c0.1,0,0.2,0,0.2,0.1c0.1,0.1,0.1,0.1,0.1,0.2c-0.1,0-0.2,0.1-0.3,0.1
			c-0.3-0.1-0.5-0.1-0.7-0.3c-0.8-0.7-1.7-1.2-2.4-2.2c-0.2-0.4-0.8-0.6-1.2-0.9c-0.1-0.1-0.3-0.2-0.4-0.3c-0.1-0.1-0.2-0.3-0.4-0.4
			c0.2-0.1,0.3-0.3,0.5-0.3c0.2-0.1,0.5-0.1,0.7,0c0.6,0.4,1.3,0.4,1.9,0.6c0.6,0.2,1.2,0.5,1.8,0.7c0.9,0.4,1.8,0.7,2.6,1.3
			C154.5,185.4,154.7,185.6,155,185.8 M153.8,186c-0.8-0.7-1.7-1-2.6-1.5c-0.1-0.1-0.3,0-0.4,0c0.1,0.1,0.2,0.2,0.3,0.2
			c0.1,0,0.1,0.1,0.2,0.1C152.1,185.3,153,185.7,153.8,186z"/>
		<path class="st0" d="M153.9,151.3c1.2-0.3,2.3-0.6,3.4-1c1.1-0.3,2.2-0.7,3.4-0.9c0.8-0.2,1.6-0.2,2.4-0.3
			c0.5-0.1,0.9-0.2,1.3-0.3c0.1,0,0.1,0,0.2,0c0.1,0,0.1,0.1,0.2,0.1c-0.1,0-0.1,0.1-0.2,0.1c-1.1,0.4-2.3,0.7-3.4,1.1
			c-1,0.3-2,0.6-2.9,0.8c-1,0.3-1.9,0.6-2.9,0.8c-2.3,0.6-4.5,1.3-6.8,1.9c-1.4,0.4-2.9,0.8-4.3,1.2c-1.9,0.5-3.9,1.1-5.8,1.7
			c-1.1,0.3-2.3,0.7-3.4,1c-1.1,0.3-2.2,0.6-3.3,0.9c-1.3,0.3-2.6,0.6-3.9,0.9c-1,0.2-1.9,0.5-2.8,0.7c-1.7,0.5-3.4,0.9-5.1,1.4
			c-0.1,0-0.3,0-0.3,0c-0.2-0.1-0.3-0.3-0.4-0.4c0.1-0.1,0.2-0.2,0.4-0.3c1.5-0.4,3-0.8,4.5-1.2c1.1-0.3,2.2-0.5,3.3-0.8
			c0.8-0.2,1.5-0.4,2.3-0.6c1.1-0.3,2.2-0.5,3.3-0.8c0.9-0.2,1.9-0.5,2.8-0.7c2.2-0.6,4.4-1.3,6.6-1.9c1.9-0.5,3.7-1.1,5.6-1.6
			c1-0.2,1.9-0.5,2.9-0.8C151.9,151.9,152.9,151.6,153.9,151.3z"/>
		<path class="st0" d="M155.4,147.6c-1.3,0.4-2.6,0.7-3.9,1.1c-1.7,0.5-3.4,1-5.2,1.4c-1.5,0.3-3,0.8-4.4,1.3c-2,0.6-4.1,1.3-6.1,2
			c-1.6,0.6-3.2,1-4.8,1.5c-1,0.3-2.1,0.5-3.1,0.8c-0.8,0.2-1.6,0.5-2.4,0.7c-1.9,0.6-3.8,1.2-5.7,1.8c-0.3,0.1-0.5,0.3-0.7,0.3
			c-0.2,0.1-0.5,0-0.5-0.3c0-0.2,0.1-0.3,0.3-0.4c0.8-0.3,1.6-0.6,2.4-0.9c1.1-0.4,2.2-0.7,3.3-1c1.4-0.4,2.8-0.7,4.2-1.1
			c1.6-0.4,3.1-0.8,4.7-1.3c1.1-0.3,2.2-0.8,3.3-1.2c1-0.3,2-0.7,2.9-1c1.4-0.5,2.8-1,4.2-1.4c0.9-0.3,1.8-0.5,2.8-0.8
			c1.3-0.4,2.7-0.7,4-1.1c1.4-0.4,2.7-0.8,4.1-1.1c1-0.3,2.1-0.4,3.1-0.6c0.6-0.1,1.1-0.1,1.6-0.1c0.1,0,0.1,0.1,0.2,0.1
			c0,0.1-0.1,0.1-0.1,0.2c-1.2,0.3-2.3,0.6-3.5,0.8C155.8,147.5,155.6,147.5,155.4,147.6z"/>
		<path class="st0" d="M123.9,167.9c-0.3,0.1-0.5,0.1-0.8,0.3c-0.2,0.1-0.4,0.3-0.6,0.4c-0.2,0.1-0.4,0.1-0.4-0.1
			c0-0.1,0-0.3,0.1-0.3c0.4-0.3,0.8-0.5,1.2-0.7c1.2-0.5,2.4-1,3.5-1.5c0.7-0.3,1.4-0.6,2.1-0.9c1.1-0.5,2.3-0.8,3.5-1.1
			c1.6-0.4,3.3-1,5-1.3c1.7-0.3,3.4-0.8,5.1-1.3c1.3-0.4,2.5-0.8,3.8-1.1c1.7-0.4,3.4-0.8,5.1-1.2c1.2-0.3,2.4-0.6,3.6-0.9
			c0.4-0.1,0.7,0,0.9,0.4c0.1,0.2,0.1,0.2-0.1,0.2c-0.9,0.2-1.8,0.4-2.7,0.6c-1,0.2-2,0.5-3.1,0.7c-0.8,0.1-1.5,0.4-2.2,0.6
			c-0.9,0.2-1.7,0.3-2.6,0.6c-0.8,0.3-1.6,0.5-2.4,0.7c-1.7,0.5-3.3,0.9-5,1.3c-1.8,0.4-3.5,0.8-5.2,1.3c-1,0.3-2.1,0.7-3.1,1
			c-0.5,0.1-0.9,0.4-1.4,0.5c-1.4,0.6-2.8,1.1-4.1,1.7C124.1,167.8,124,167.9,123.9,167.9z"/>
		<path class="st0" d="M74.1,151.4c0,0.1,0,1.1,0,1.1c-0.1,0-0.1,0-0.2,0c-0.1-0.1-0.2-0.2-0.2-0.3c-0.1-0.3-0.1-0.6-0.1-1
			c0-1.1,0-2.2,0-3.4c0-0.3,0-0.6-0.1-0.9c-0.1-0.2,0.2-0.6,0.4-0.9c0.5-0.6,1-1.1,1.6-1.6c1.5-1.2,2.9-2.5,4.5-3.5
			c1.2-0.7,2.5-1.3,3.8-1.9c1.5-0.7,3.1-1.3,4.7-1.7c0.9-0.2,1.8-0.3,2.7-0.5c0.8-0.1,1.7-0.4,2.5-0.4c0.9,0,1.7-0.2,2.6,0
			c0.9,0.2,1.9,0.6,2.8,0.4c0.8-0.1,1.6,0.2,2.4,0.4c0.1,0,0.1,0.2,0.1,0.2c0,0.1-0.1,0.2-0.2,0.2c-0.4-0.1-0.7,0.1-1.1-0.2
			c-0.1-0.1-0.3,0-0.5,0c-1.1,0-2.2-0.3-3.3-0.5c-0.8-0.2-1.7-0.2-2.5,0c-0.2,0.1-0.5,0-0.8,0.1c-0.5,0.1-1.1,0.2-1.6,0.3
			c-0.8,0.1-1.5,0.2-2.2,0.4c-1,0.2-1.9,0.5-2.9,0.8c-0.3,0.1-0.6,0.3-0.9,0.4c-0.8,0.3-1.6,0.6-2.3,1c-1.4,0.8-2.9,1.4-4.2,2.4
			c-1.5,1.1-3,2.4-4.4,3.7c-0.2,0.2-0.3,0.4-0.4,0.5c-0.2,0.3-0.2,0.3,0.1,0.4c0.1,0,0.1,0.1,0.2,0.1c-0.1,0.1-0.1,0.1-0.2,0.2
			c-0.3,0.1-0.4,0.3-0.3,0.4c0.2,0.5,0.1,0.9,0.1,1.4C74.1,149.8,74.1,150.6,74.1,151.4z"/>
		<path class="st0" d="M74.7,144c1.1-0.9,2.1-1.9,3.2-2.7c1.2-0.9,2.4-1.7,3.7-2.4c0.7-0.4,1.3-0.9,2-1.2c0.9-0.5,1.9-0.7,2.9-0.9
			c0.5-0.1,1-0.3,1.5-0.3c0.7-0.1,1.4-0.2,2.1-0.3c0.7-0.1,1.3-0.2,2-0.3c0.7-0.1,1.4-0.1,2.1-0.2c0.5-0.1,1.1,0.1,1.6,0
			c0.5-0.1,1.1,0,1.7,0.2c0.6,0.2,1.3,0.3,2,0.3c0.2,0,0.4,0,0.5,0c0.1,0,0.1,0.1,0.1,0.2c0,0-0.1,0.1-0.1,0.1
			c-0.8-0.1-1.6-0.1-2.4-0.2c-1.2-0.2-2.4-0.5-3.6-0.2c-0.8,0.2-1.6,0.2-2.5,0.3c-1,0.2-2,0.4-3,0.5c-0.7,0.1-1.5,0.2-2.2,0.5
			c-0.4,0.1-0.9,0.3-1.3,0.3c-0.5,0-0.8,0.3-1.2,0.5c-0.4,0.2-0.8,0.5-1.2,0.7c-0.9,0.5-1.7,1-2.6,1.6c-0.8,0.5-1.6,1-2.3,1.6
			c-0.4,0.4-1,0.8-1.4,1.2c-0.7,0.7-1.5,1.3-1.9,2.2c0,0.1-0.1,0.1-0.2,0.1c-0.1,0-0.2-0.1-0.2-0.2c0.1-0.2,0.1-0.4,0.2-0.6
			C74.3,144.6,74.5,144.3,74.7,144z"/>
		<path class="st0" d="M117.1,136.6c-0.8,0.1-1.5,0.4-2.2,0.5c-0.3,0.1-0.6,0.1-0.8,0.2c-0.1,0-0.2-0.1-0.2-0.1c0,0,0-0.2,0.1-0.2
			c0.2-0.1,0.4-0.3,0.7-0.3c1.2-0.3,2.3-0.5,3.5-0.8c0.7-0.2,1.5-0.3,2.3-0.5c0.8-0.2,1.5-0.3,2.3-0.5c0,0,0.1-0.1,0.1-0.1
			c0.2,0,0.5-0.1,0.7,0.2c-0.2,0.1-0.4,0.2-0.5,0.2c-0.4,0.1-0.8,0.3-1.2,0.4c-0.7,0.2-1.4,0.3-2.1,0.5
			C118.6,136.2,117.9,136.3,117.1,136.6z"/>
		<path class="st0" d="M10.2,173.1c0.5-0.2,0.9-0.3,1.3-0.5c0.1,0,0.3,0.1,0.4,0.1c-0.1,0.1-0.2,0.2-0.3,0.3c-1,0.4-1.9,0.7-2.9,1
			c-0.5,0.2-1,0.3-1.6,0.4c-0.2,0-0.4,0.1-0.5,0c-0.2-0.1-0.4-0.3-0.6-0.4c0.2,0,0.5,0,0.7,0c0.2,0,0.4,0,0.5,0
			C8.3,173.7,9.2,173.4,10.2,173.1z"/>
		<path class="st0" d="M159.1,125.7c-0.5,0.1-0.9,0.2-1.3,0.4c-0.1,0-0.2,0-0.2-0.1c0.1-0.1,0.1-0.2,0.2-0.2
			c0.6-0.2,1.3-0.4,1.9-0.6c0.1,0,0.2,0,0.2,0.1c-0.1,0.1-0.1,0.1-0.2,0.2C159.5,125.6,159.3,125.6,159.1,125.7z"/>
		<path class="st0" d="M49.2,154.4c0,0.1,0,0.2,0,0.2c-0.4,0.1-0.7,0.2-1.1,0c-0.2-0.1-0.2-0.2-0.2-0.3c0-0.1,0.3-0.1,0.3-0.1
			C48.5,154.6,48.8,154.4,49.2,154.4z"/>
		<path class="st0" d="M5.7,170c0.1,0.1,0.2,0.1,0.2,0.2c0,0.1-0.1,0.2-0.1,0.2c-0.1,0-0.2-0.1-0.3-0.2c-0.1-0.1-0.3-0.2-0.4-0.3
			C5.3,169.8,5.5,169.8,5.7,170z"/>
		<path class="st0" d="M104.5,146.9c-0.3,0.2-0.5,0.2-0.7,0c0,0,0-0.1,0-0.1C104,146.5,104.3,146.6,104.5,146.9z"/>
		<path class="st0" d="M180.6,212.3c0-0.1,0-0.2,0-0.2c0,0,0.1,0,0.1,0c0,0.1,0.1,0.2,0.1,0.3C180.7,212.4,180.6,212.4,180.6,212.3z
			"/>
		<path class="st0" d="M184.8,162.6c0,0,0-0.1,0-0.1C184.8,162.5,184.8,162.5,184.8,162.6z"/>
		<path class="st0" d="M34.9,183.4C34.9,183.4,34.9,183.3,34.9,183.4C34.9,183.3,34.9,183.3,34.9,183.4z"/>
		<path class="st0" d="M151.8,189.1C151.9,189.1,151.9,189.2,151.8,189.1C151.8,189.2,151.8,189.2,151.8,189.1z"/>
		<path class="st0" d="M162.9,194.2C163,194.2,163,194.3,162.9,194.2C163,194.3,162.9,194.3,162.9,194.2z"/>
		<path class="st0" d="M160.7,194.3C160.7,194.3,160.7,194.3,160.7,194.3C160.7,194.4,160.6,194.3,160.7,194.3z"/>
		<path class="st0" d="M155.8,194.4C155.8,194.4,155.8,194.4,155.8,194.4C155.8,194.4,155.8,194.4,155.8,194.4z"/>
		<path class="st0" d="M180.3,174.6C180.3,174.6,180.4,174.6,180.3,174.6C180.4,174.6,180.4,174.6,180.3,174.6z"/>
		<path class="st0" d="M113.5,195.5c-0.1,0-0.1,0-0.2,0c0,0,0-0.1,0-0.1C113.4,195.4,113.4,195.4,113.5,195.5z"/>
	</g>
</g>
</svg>
